G04 (created by PCBNEW (2013-mar-13)-testing) date Thu 20 Jun 2013 07:04:20 PM UYT*
%MOIN*%
G04 Gerber Fmt 3.4, Leading zero omitted, Abs format*
%FSLAX34Y34*%
G01*
G70*
G90*
G04 APERTURE LIST*
%ADD10C,2.3622e-06*%
%ADD11C,0.015*%
%ADD12C,0.012*%
%ADD13C,0.006*%
%ADD14C,0.008*%
%ADD15C,0.01125*%
%ADD16C,0.0112*%
G04 APERTURE END LIST*
G54D10*
G54D11*
X46670Y-21610D02*
X65790Y-21610D01*
X46670Y-55550D02*
X65790Y-55550D01*
X46670Y-55545D02*
X46670Y-21611D01*
X65790Y-21611D02*
X65790Y-55545D01*
G54D12*
X48061Y-31537D02*
X47261Y-31537D01*
X47261Y-31394D01*
X47300Y-31308D01*
X47376Y-31251D01*
X47452Y-31222D01*
X47604Y-31194D01*
X47719Y-31194D01*
X47871Y-31222D01*
X47947Y-31251D01*
X48023Y-31308D01*
X48061Y-31394D01*
X48061Y-31537D01*
X48023Y-30708D02*
X48061Y-30765D01*
X48061Y-30879D01*
X48023Y-30937D01*
X47947Y-30965D01*
X47642Y-30965D01*
X47566Y-30937D01*
X47528Y-30879D01*
X47528Y-30765D01*
X47566Y-30708D01*
X47642Y-30679D01*
X47719Y-30679D01*
X47795Y-30965D01*
X48023Y-30451D02*
X48061Y-30394D01*
X48061Y-30279D01*
X48023Y-30222D01*
X47947Y-30194D01*
X47909Y-30194D01*
X47833Y-30222D01*
X47795Y-30279D01*
X47795Y-30365D01*
X47757Y-30422D01*
X47680Y-30451D01*
X47642Y-30451D01*
X47566Y-30422D01*
X47528Y-30365D01*
X47528Y-30279D01*
X47566Y-30222D01*
X48061Y-29937D02*
X47528Y-29937D01*
X47261Y-29937D02*
X47300Y-29965D01*
X47338Y-29937D01*
X47300Y-29908D01*
X47261Y-29937D01*
X47338Y-29937D01*
X47528Y-29394D02*
X48176Y-29394D01*
X48252Y-29422D01*
X48290Y-29451D01*
X48328Y-29508D01*
X48328Y-29594D01*
X48290Y-29651D01*
X48023Y-29394D02*
X48061Y-29451D01*
X48061Y-29565D01*
X48023Y-29622D01*
X47985Y-29651D01*
X47909Y-29679D01*
X47680Y-29679D01*
X47604Y-29651D01*
X47566Y-29622D01*
X47528Y-29565D01*
X47528Y-29451D01*
X47566Y-29394D01*
X47528Y-29108D02*
X48061Y-29108D01*
X47604Y-29108D02*
X47566Y-29079D01*
X47528Y-29022D01*
X47528Y-28937D01*
X47566Y-28879D01*
X47642Y-28851D01*
X48061Y-28851D01*
X48023Y-28337D02*
X48061Y-28394D01*
X48061Y-28508D01*
X48023Y-28565D01*
X47947Y-28594D01*
X47642Y-28594D01*
X47566Y-28565D01*
X47528Y-28508D01*
X47528Y-28394D01*
X47566Y-28337D01*
X47642Y-28308D01*
X47719Y-28308D01*
X47795Y-28594D01*
X48061Y-27794D02*
X47261Y-27794D01*
X48023Y-27794D02*
X48061Y-27851D01*
X48061Y-27965D01*
X48023Y-28022D01*
X47985Y-28051D01*
X47909Y-28079D01*
X47680Y-28079D01*
X47604Y-28051D01*
X47566Y-28022D01*
X47528Y-27965D01*
X47528Y-27851D01*
X47566Y-27794D01*
X48061Y-27051D02*
X47528Y-27051D01*
X47261Y-27051D02*
X47300Y-27079D01*
X47338Y-27051D01*
X47300Y-27022D01*
X47261Y-27051D01*
X47338Y-27051D01*
X47528Y-26765D02*
X48061Y-26765D01*
X47604Y-26765D02*
X47566Y-26737D01*
X47528Y-26680D01*
X47528Y-26594D01*
X47566Y-26537D01*
X47642Y-26508D01*
X48061Y-26508D01*
X47261Y-25765D02*
X47909Y-25765D01*
X47985Y-25737D01*
X48023Y-25708D01*
X48061Y-25651D01*
X48061Y-25537D01*
X48023Y-25480D01*
X47985Y-25451D01*
X47909Y-25422D01*
X47261Y-25422D01*
X48061Y-25137D02*
X47528Y-25137D01*
X47680Y-25137D02*
X47604Y-25108D01*
X47566Y-25080D01*
X47528Y-25022D01*
X47528Y-24965D01*
X47528Y-24508D02*
X48061Y-24508D01*
X47528Y-24765D02*
X47947Y-24765D01*
X48023Y-24737D01*
X48061Y-24680D01*
X48061Y-24594D01*
X48023Y-24537D01*
X47985Y-24508D01*
X47528Y-23965D02*
X48176Y-23965D01*
X48252Y-23994D01*
X48290Y-24022D01*
X48328Y-24080D01*
X48328Y-24165D01*
X48290Y-24222D01*
X48023Y-23965D02*
X48061Y-24022D01*
X48061Y-24137D01*
X48023Y-24194D01*
X47985Y-24222D01*
X47909Y-24251D01*
X47680Y-24251D01*
X47604Y-24222D01*
X47566Y-24194D01*
X47528Y-24137D01*
X47528Y-24022D01*
X47566Y-23965D01*
X47528Y-23422D02*
X48061Y-23422D01*
X47528Y-23680D02*
X47947Y-23680D01*
X48023Y-23651D01*
X48061Y-23594D01*
X48061Y-23508D01*
X48023Y-23451D01*
X47985Y-23422D01*
X48061Y-22880D02*
X47642Y-22880D01*
X47566Y-22908D01*
X47528Y-22965D01*
X47528Y-23080D01*
X47566Y-23137D01*
X48023Y-22880D02*
X48061Y-22937D01*
X48061Y-23080D01*
X48023Y-23137D01*
X47947Y-23165D01*
X47871Y-23165D01*
X47795Y-23137D01*
X47757Y-23080D01*
X47757Y-22937D01*
X47719Y-22880D01*
X47528Y-22651D02*
X48061Y-22508D01*
X47528Y-22365D02*
X48061Y-22508D01*
X48252Y-22565D01*
X48290Y-22594D01*
X48328Y-22651D01*
G54D13*
X61175Y-40500D02*
X61175Y-39500D01*
X61175Y-39500D02*
X64175Y-39500D01*
X64175Y-39500D02*
X64175Y-40500D01*
X64175Y-40500D02*
X61175Y-40500D01*
X62175Y-39500D02*
X62175Y-40500D01*
G54D12*
X59750Y-41225D02*
X61750Y-41225D01*
X61750Y-41225D02*
X61750Y-43225D01*
X61750Y-43225D02*
X59750Y-43225D01*
X59750Y-43225D02*
X59750Y-41225D01*
G54D13*
X55010Y-54705D02*
X55010Y-53705D01*
X55010Y-53705D02*
X57010Y-53705D01*
X57010Y-53705D02*
X57010Y-54705D01*
X57010Y-54705D02*
X55010Y-54705D01*
X62200Y-53050D02*
X62200Y-54050D01*
X62200Y-54050D02*
X60200Y-54050D01*
X60200Y-54050D02*
X60200Y-53050D01*
X60200Y-53050D02*
X62200Y-53050D01*
X49800Y-54050D02*
X49800Y-53050D01*
X49800Y-53050D02*
X51800Y-53050D01*
X51800Y-53050D02*
X51800Y-54050D01*
X51800Y-54050D02*
X49800Y-54050D01*
G54D12*
X60035Y-49190D02*
X63035Y-49190D01*
X63035Y-49190D02*
X63035Y-50190D01*
X63035Y-50190D02*
X60035Y-50190D01*
X60035Y-50190D02*
X60035Y-49190D01*
X62785Y-49190D02*
X62785Y-50190D01*
X62535Y-50190D02*
X62535Y-49190D01*
X60035Y-49690D02*
X59535Y-49690D01*
X63035Y-49690D02*
X63535Y-49690D01*
X60035Y-50990D02*
X63035Y-50990D01*
X63035Y-50990D02*
X63035Y-51990D01*
X63035Y-51990D02*
X60035Y-51990D01*
X60035Y-51990D02*
X60035Y-50990D01*
X62785Y-50990D02*
X62785Y-51990D01*
X62535Y-51990D02*
X62535Y-50990D01*
X60035Y-51490D02*
X59535Y-51490D01*
X63035Y-51490D02*
X63535Y-51490D01*
X63035Y-46790D02*
X60035Y-46790D01*
X60035Y-46790D02*
X60035Y-45790D01*
X60035Y-45790D02*
X63035Y-45790D01*
X63035Y-45790D02*
X63035Y-46790D01*
X60285Y-46790D02*
X60285Y-45790D01*
X60535Y-45790D02*
X60535Y-46790D01*
X63035Y-46290D02*
X63535Y-46290D01*
X60035Y-46290D02*
X59535Y-46290D01*
X63020Y-48515D02*
X60020Y-48515D01*
X60020Y-48515D02*
X60020Y-47515D01*
X60020Y-47515D02*
X63020Y-47515D01*
X63020Y-47515D02*
X63020Y-48515D01*
X60270Y-48515D02*
X60270Y-47515D01*
X60520Y-47515D02*
X60520Y-48515D01*
X63020Y-48015D02*
X63520Y-48015D01*
X60020Y-48015D02*
X59520Y-48015D01*
X49526Y-45616D02*
X52526Y-45616D01*
X52526Y-45616D02*
X52526Y-46616D01*
X52526Y-46616D02*
X49526Y-46616D01*
X49526Y-46616D02*
X49526Y-45616D01*
X52276Y-45616D02*
X52276Y-46616D01*
X52026Y-46616D02*
X52026Y-45616D01*
X49526Y-46116D02*
X49026Y-46116D01*
X52526Y-46116D02*
X53026Y-46116D01*
X49530Y-47415D02*
X52530Y-47415D01*
X52530Y-47415D02*
X52530Y-48415D01*
X52530Y-48415D02*
X49530Y-48415D01*
X49530Y-48415D02*
X49530Y-47415D01*
X52280Y-47415D02*
X52280Y-48415D01*
X52030Y-48415D02*
X52030Y-47415D01*
X49530Y-47915D02*
X49030Y-47915D01*
X52530Y-47915D02*
X53030Y-47915D01*
X52530Y-50215D02*
X49530Y-50215D01*
X49530Y-50215D02*
X49530Y-49215D01*
X49530Y-49215D02*
X52530Y-49215D01*
X52530Y-49215D02*
X52530Y-50215D01*
X49780Y-50215D02*
X49780Y-49215D01*
X50030Y-49215D02*
X50030Y-50215D01*
X52530Y-49715D02*
X53030Y-49715D01*
X49530Y-49715D02*
X49030Y-49715D01*
X52530Y-52015D02*
X49530Y-52015D01*
X49530Y-52015D02*
X49530Y-51015D01*
X49530Y-51015D02*
X52530Y-51015D01*
X52530Y-51015D02*
X52530Y-52015D01*
X49780Y-52015D02*
X49780Y-51015D01*
X50030Y-51015D02*
X50030Y-52015D01*
X52530Y-51515D02*
X53030Y-51515D01*
X49530Y-51515D02*
X49030Y-51515D01*
G54D13*
X48550Y-38825D02*
X47550Y-38825D01*
X47550Y-38825D02*
X47550Y-35825D01*
X47550Y-35825D02*
X48550Y-35825D01*
X48550Y-35825D02*
X48550Y-38825D01*
X47550Y-37825D02*
X48550Y-37825D01*
X51275Y-35575D02*
X50275Y-35575D01*
X50275Y-35575D02*
X50275Y-33575D01*
X50275Y-33575D02*
X51275Y-33575D01*
X51275Y-33575D02*
X51275Y-35575D01*
X60600Y-36150D02*
X59600Y-36150D01*
X59600Y-36150D02*
X59600Y-34150D01*
X59600Y-34150D02*
X60600Y-34150D01*
X60600Y-34150D02*
X60600Y-36150D01*
G54D12*
X50500Y-26870D02*
X50500Y-28850D01*
X50500Y-28850D02*
X49500Y-28850D01*
X49500Y-28850D02*
X49500Y-26850D01*
X49500Y-26850D02*
X50500Y-26850D01*
X50250Y-26850D02*
X50500Y-27100D01*
X58180Y-38200D02*
X56200Y-38200D01*
X56200Y-38200D02*
X56200Y-37200D01*
X56200Y-37200D02*
X58200Y-37200D01*
X58200Y-37200D02*
X58200Y-38200D01*
X58200Y-37950D02*
X57950Y-38200D01*
G54D11*
X59368Y-22199D02*
X60156Y-22987D01*
X52203Y-22987D02*
X53030Y-22199D01*
X60156Y-22987D02*
X60156Y-24896D01*
X52203Y-22987D02*
X52203Y-24896D01*
X53030Y-22199D02*
X59368Y-22199D01*
X60156Y-24896D02*
X60156Y-29188D01*
X52203Y-24896D02*
X52203Y-29188D01*
X52203Y-24896D02*
X60156Y-24896D01*
X52203Y-29188D02*
X60156Y-29188D01*
G54D13*
X64454Y-40180D02*
X64454Y-39780D01*
X64683Y-40180D02*
X64511Y-39952D01*
X64683Y-39780D02*
X64454Y-40009D01*
X65064Y-40180D02*
X64835Y-40180D01*
X64950Y-40180D02*
X64950Y-39780D01*
X64911Y-39838D01*
X64873Y-39876D01*
X64835Y-39895D01*
G54D14*
X62054Y-42430D02*
X62054Y-42030D01*
X62207Y-42030D01*
X62245Y-42050D01*
X62264Y-42069D01*
X62283Y-42107D01*
X62283Y-42164D01*
X62264Y-42202D01*
X62245Y-42221D01*
X62207Y-42240D01*
X62054Y-42240D01*
X62664Y-42430D02*
X62435Y-42430D01*
X62550Y-42430D02*
X62550Y-42030D01*
X62511Y-42088D01*
X62473Y-42126D01*
X62435Y-42145D01*
G54D13*
X55788Y-53590D02*
X55788Y-53290D01*
X55902Y-53290D01*
X55931Y-53305D01*
X55945Y-53319D01*
X55960Y-53347D01*
X55960Y-53390D01*
X55945Y-53419D01*
X55931Y-53433D01*
X55902Y-53447D01*
X55788Y-53447D01*
X56074Y-53319D02*
X56088Y-53305D01*
X56117Y-53290D01*
X56188Y-53290D01*
X56217Y-53305D01*
X56231Y-53319D01*
X56245Y-53347D01*
X56245Y-53376D01*
X56231Y-53419D01*
X56060Y-53590D01*
X56245Y-53590D01*
X60685Y-54435D02*
X60685Y-54135D01*
X60785Y-54350D01*
X60885Y-54135D01*
X60885Y-54435D01*
X61085Y-54135D02*
X61142Y-54135D01*
X61171Y-54150D01*
X61200Y-54178D01*
X61214Y-54235D01*
X61214Y-54335D01*
X61200Y-54392D01*
X61171Y-54421D01*
X61142Y-54435D01*
X61085Y-54435D01*
X61057Y-54421D01*
X61028Y-54392D01*
X61014Y-54335D01*
X61014Y-54235D01*
X61028Y-54178D01*
X61057Y-54150D01*
X61085Y-54135D01*
X61300Y-54135D02*
X61471Y-54135D01*
X61385Y-54435D02*
X61385Y-54135D01*
X61557Y-54164D02*
X61571Y-54150D01*
X61600Y-54135D01*
X61671Y-54135D01*
X61700Y-54150D01*
X61714Y-54164D01*
X61728Y-54192D01*
X61728Y-54221D01*
X61714Y-54264D01*
X61542Y-54435D01*
X61728Y-54435D01*
X50385Y-54435D02*
X50385Y-54135D01*
X50485Y-54350D01*
X50585Y-54135D01*
X50585Y-54435D01*
X50785Y-54135D02*
X50842Y-54135D01*
X50871Y-54150D01*
X50900Y-54178D01*
X50914Y-54235D01*
X50914Y-54335D01*
X50900Y-54392D01*
X50871Y-54421D01*
X50842Y-54435D01*
X50785Y-54435D01*
X50757Y-54421D01*
X50728Y-54392D01*
X50714Y-54335D01*
X50714Y-54235D01*
X50728Y-54178D01*
X50757Y-54150D01*
X50785Y-54135D01*
X51000Y-54135D02*
X51171Y-54135D01*
X51085Y-54435D02*
X51085Y-54135D01*
X51428Y-54435D02*
X51257Y-54435D01*
X51342Y-54435D02*
X51342Y-54135D01*
X51314Y-54178D01*
X51285Y-54207D01*
X51257Y-54221D01*
G54D14*
X64304Y-49926D02*
X64304Y-49426D01*
X64400Y-49426D01*
X64457Y-49450D01*
X64495Y-49497D01*
X64514Y-49545D01*
X64533Y-49640D01*
X64533Y-49711D01*
X64514Y-49807D01*
X64495Y-49854D01*
X64457Y-49902D01*
X64400Y-49926D01*
X64304Y-49926D01*
X64761Y-49640D02*
X64723Y-49616D01*
X64704Y-49592D01*
X64685Y-49545D01*
X64685Y-49521D01*
X64704Y-49473D01*
X64723Y-49450D01*
X64761Y-49426D01*
X64838Y-49426D01*
X64876Y-49450D01*
X64895Y-49473D01*
X64914Y-49521D01*
X64914Y-49545D01*
X64895Y-49592D01*
X64876Y-49616D01*
X64838Y-49640D01*
X64761Y-49640D01*
X64723Y-49664D01*
X64704Y-49688D01*
X64685Y-49735D01*
X64685Y-49830D01*
X64704Y-49878D01*
X64723Y-49902D01*
X64761Y-49926D01*
X64838Y-49926D01*
X64876Y-49902D01*
X64895Y-49878D01*
X64914Y-49830D01*
X64914Y-49735D01*
X64895Y-49688D01*
X64876Y-49664D01*
X64838Y-49640D01*
X64304Y-51676D02*
X64304Y-51176D01*
X64400Y-51176D01*
X64457Y-51200D01*
X64495Y-51247D01*
X64514Y-51295D01*
X64533Y-51390D01*
X64533Y-51461D01*
X64514Y-51557D01*
X64495Y-51604D01*
X64457Y-51652D01*
X64400Y-51676D01*
X64304Y-51676D01*
X64666Y-51176D02*
X64933Y-51176D01*
X64761Y-51676D01*
X64254Y-46526D02*
X64254Y-46026D01*
X64350Y-46026D01*
X64407Y-46050D01*
X64445Y-46097D01*
X64464Y-46145D01*
X64483Y-46240D01*
X64483Y-46311D01*
X64464Y-46407D01*
X64445Y-46454D01*
X64407Y-46502D01*
X64350Y-46526D01*
X64254Y-46526D01*
X64845Y-46026D02*
X64654Y-46026D01*
X64635Y-46264D01*
X64654Y-46240D01*
X64692Y-46216D01*
X64788Y-46216D01*
X64826Y-46240D01*
X64845Y-46264D01*
X64864Y-46311D01*
X64864Y-46430D01*
X64845Y-46478D01*
X64826Y-46502D01*
X64788Y-46526D01*
X64692Y-46526D01*
X64654Y-46502D01*
X64635Y-46478D01*
X64254Y-48126D02*
X64254Y-47626D01*
X64350Y-47626D01*
X64407Y-47650D01*
X64445Y-47697D01*
X64464Y-47745D01*
X64483Y-47840D01*
X64483Y-47911D01*
X64464Y-48007D01*
X64445Y-48054D01*
X64407Y-48102D01*
X64350Y-48126D01*
X64254Y-48126D01*
X64826Y-47626D02*
X64750Y-47626D01*
X64711Y-47650D01*
X64692Y-47673D01*
X64654Y-47745D01*
X64635Y-47840D01*
X64635Y-48030D01*
X64654Y-48078D01*
X64673Y-48102D01*
X64711Y-48126D01*
X64788Y-48126D01*
X64826Y-48102D01*
X64845Y-48078D01*
X64864Y-48030D01*
X64864Y-47911D01*
X64845Y-47864D01*
X64826Y-47840D01*
X64788Y-47816D01*
X64711Y-47816D01*
X64673Y-47840D01*
X64654Y-47864D01*
X64635Y-47911D01*
X47704Y-46326D02*
X47704Y-45826D01*
X47800Y-45826D01*
X47857Y-45850D01*
X47895Y-45897D01*
X47914Y-45945D01*
X47933Y-46040D01*
X47933Y-46111D01*
X47914Y-46207D01*
X47895Y-46254D01*
X47857Y-46302D01*
X47800Y-46326D01*
X47704Y-46326D01*
X48276Y-45992D02*
X48276Y-46326D01*
X48180Y-45802D02*
X48085Y-46159D01*
X48333Y-46159D01*
X47704Y-48126D02*
X47704Y-47626D01*
X47800Y-47626D01*
X47857Y-47650D01*
X47895Y-47697D01*
X47914Y-47745D01*
X47933Y-47840D01*
X47933Y-47911D01*
X47914Y-48007D01*
X47895Y-48054D01*
X47857Y-48102D01*
X47800Y-48126D01*
X47704Y-48126D01*
X48066Y-47626D02*
X48314Y-47626D01*
X48180Y-47816D01*
X48238Y-47816D01*
X48276Y-47840D01*
X48295Y-47864D01*
X48314Y-47911D01*
X48314Y-48030D01*
X48295Y-48078D01*
X48276Y-48102D01*
X48238Y-48126D01*
X48123Y-48126D01*
X48085Y-48102D01*
X48066Y-48078D01*
X47704Y-49926D02*
X47704Y-49426D01*
X47800Y-49426D01*
X47857Y-49450D01*
X47895Y-49497D01*
X47914Y-49545D01*
X47933Y-49640D01*
X47933Y-49711D01*
X47914Y-49807D01*
X47895Y-49854D01*
X47857Y-49902D01*
X47800Y-49926D01*
X47704Y-49926D01*
X48314Y-49926D02*
X48085Y-49926D01*
X48200Y-49926D02*
X48200Y-49426D01*
X48161Y-49497D01*
X48123Y-49545D01*
X48085Y-49569D01*
X47704Y-51726D02*
X47704Y-51226D01*
X47800Y-51226D01*
X47857Y-51250D01*
X47895Y-51297D01*
X47914Y-51345D01*
X47933Y-51440D01*
X47933Y-51511D01*
X47914Y-51607D01*
X47895Y-51654D01*
X47857Y-51702D01*
X47800Y-51726D01*
X47704Y-51726D01*
X48085Y-51273D02*
X48104Y-51250D01*
X48142Y-51226D01*
X48238Y-51226D01*
X48276Y-51250D01*
X48295Y-51273D01*
X48314Y-51321D01*
X48314Y-51369D01*
X48295Y-51440D01*
X48066Y-51726D01*
X48314Y-51726D01*
G54D13*
X49170Y-37620D02*
X48770Y-37620D01*
X49170Y-37391D02*
X48942Y-37563D01*
X48770Y-37391D02*
X48999Y-37620D01*
X48809Y-37239D02*
X48790Y-37220D01*
X48770Y-37182D01*
X48770Y-37086D01*
X48790Y-37048D01*
X48809Y-37029D01*
X48847Y-37010D01*
X48885Y-37010D01*
X48942Y-37029D01*
X49170Y-37258D01*
X49170Y-37010D01*
X51790Y-34856D02*
X51490Y-34856D01*
X51490Y-34742D01*
X51505Y-34713D01*
X51519Y-34699D01*
X51547Y-34685D01*
X51590Y-34685D01*
X51619Y-34699D01*
X51633Y-34713D01*
X51647Y-34742D01*
X51647Y-34856D01*
X51490Y-34585D02*
X51490Y-34399D01*
X51605Y-34499D01*
X51605Y-34456D01*
X51619Y-34427D01*
X51633Y-34413D01*
X51662Y-34399D01*
X51733Y-34399D01*
X51762Y-34413D01*
X51776Y-34427D01*
X51790Y-34456D01*
X51790Y-34542D01*
X51776Y-34570D01*
X51762Y-34585D01*
X61015Y-35351D02*
X60715Y-35351D01*
X60715Y-35237D01*
X60730Y-35208D01*
X60744Y-35194D01*
X60772Y-35180D01*
X60815Y-35180D01*
X60844Y-35194D01*
X60858Y-35208D01*
X60872Y-35237D01*
X60872Y-35351D01*
X60815Y-34922D02*
X61015Y-34922D01*
X60701Y-34994D02*
X60915Y-35065D01*
X60915Y-34880D01*
G54D14*
X50217Y-29491D02*
X50236Y-29510D01*
X50255Y-29567D01*
X50255Y-29605D01*
X50236Y-29663D01*
X50198Y-29701D01*
X50160Y-29720D01*
X50084Y-29739D01*
X50027Y-29739D01*
X49951Y-29720D01*
X49913Y-29701D01*
X49875Y-29663D01*
X49855Y-29605D01*
X49855Y-29567D01*
X49875Y-29510D01*
X49894Y-29491D01*
X49894Y-29339D02*
X49875Y-29320D01*
X49855Y-29282D01*
X49855Y-29186D01*
X49875Y-29148D01*
X49894Y-29129D01*
X49932Y-29110D01*
X49970Y-29110D01*
X50027Y-29129D01*
X50255Y-29358D01*
X50255Y-29110D01*
X57033Y-38742D02*
X57014Y-38761D01*
X56957Y-38780D01*
X56919Y-38780D01*
X56861Y-38761D01*
X56823Y-38723D01*
X56804Y-38685D01*
X56785Y-38609D01*
X56785Y-38552D01*
X56804Y-38476D01*
X56823Y-38438D01*
X56861Y-38400D01*
X56919Y-38380D01*
X56957Y-38380D01*
X57014Y-38400D01*
X57033Y-38419D01*
X57414Y-38780D02*
X57185Y-38780D01*
X57300Y-38780D02*
X57300Y-38380D01*
X57261Y-38438D01*
X57223Y-38476D01*
X57185Y-38495D01*
G54D15*
X55807Y-25166D02*
X55807Y-25733D01*
X55828Y-25800D01*
X55850Y-25833D01*
X55892Y-25866D01*
X55978Y-25866D01*
X56021Y-25833D01*
X56042Y-25800D01*
X56064Y-25733D01*
X56064Y-25166D01*
X56514Y-25866D02*
X56257Y-25866D01*
X56385Y-25866D02*
X56385Y-25166D01*
X56342Y-25266D01*
X56300Y-25333D01*
X56257Y-25366D01*
G54D16*
X55646Y-27016D02*
X55432Y-27016D01*
X55432Y-26316D01*
X55775Y-26383D02*
X55796Y-26350D01*
X55839Y-26316D01*
X55946Y-26316D01*
X55989Y-26350D01*
X56010Y-26383D01*
X56032Y-26450D01*
X56032Y-26516D01*
X56010Y-26616D01*
X55753Y-27016D01*
X56032Y-27016D01*
X56246Y-27016D02*
X56332Y-27016D01*
X56375Y-26983D01*
X56396Y-26950D01*
X56439Y-26850D01*
X56460Y-26716D01*
X56460Y-26450D01*
X56439Y-26383D01*
X56417Y-26350D01*
X56375Y-26316D01*
X56289Y-26316D01*
X56246Y-26350D01*
X56225Y-26383D01*
X56203Y-26450D01*
X56203Y-26616D01*
X56225Y-26683D01*
X56246Y-26716D01*
X56289Y-26750D01*
X56375Y-26750D01*
X56417Y-26716D01*
X56439Y-26683D01*
X56460Y-26616D01*
X56717Y-26616D02*
X56675Y-26583D01*
X56653Y-26550D01*
X56632Y-26483D01*
X56632Y-26450D01*
X56653Y-26383D01*
X56675Y-26350D01*
X56717Y-26316D01*
X56803Y-26316D01*
X56846Y-26350D01*
X56867Y-26383D01*
X56889Y-26450D01*
X56889Y-26483D01*
X56867Y-26550D01*
X56846Y-26583D01*
X56803Y-26616D01*
X56717Y-26616D01*
X56675Y-26650D01*
X56653Y-26683D01*
X56632Y-26750D01*
X56632Y-26883D01*
X56653Y-26950D01*
X56675Y-26983D01*
X56717Y-27016D01*
X56803Y-27016D01*
X56846Y-26983D01*
X56867Y-26950D01*
X56889Y-26883D01*
X56889Y-26750D01*
X56867Y-26683D01*
X56846Y-26650D01*
X56803Y-26616D01*
M02*
