G04 (created by PCBNEW (2013-mar-13)-testing) date Thu 20 Jun 2013 07:04:20 PM UYT*
%MOIN*%
G04 Gerber Fmt 3.4, Leading zero omitted, Abs format*
%FSLAX34Y34*%
G01*
G70*
G90*
G04 APERTURE LIST*
%ADD10C,2.3622e-06*%
%ADD11C,0.015*%
%ADD12C,0.00515748*%
%ADD13C,0.0100787*%
%ADD14R,0.0649606X0.0649606*%
%ADD15C,0.0787402*%
%ADD16C,0.07*%
%ADD17R,0.07X0.07*%
%ADD18O,0.062X0.0787402*%
%ADD19R,0.062X0.0787402*%
%ADD20R,0.629921X0.23622*%
%ADD21C,0.0591*%
%ADD22C,0.0315*%
%ADD23C,0.0275591*%
%ADD24C,0.0394*%
%ADD25C,0.05*%
G04 APERTURE END LIST*
G54D10*
G54D11*
X46670Y-21610D02*
X65790Y-21610D01*
X46670Y-55550D02*
X65790Y-55550D01*
X46670Y-55545D02*
X46670Y-21611D01*
X65790Y-21611D02*
X65790Y-55545D01*
G54D12*
X63862Y-23715D02*
X63930Y-23446D01*
X63979Y-23715D02*
X63979Y-23151D01*
X63901Y-23151D01*
X63881Y-23178D01*
X63871Y-23204D01*
X63862Y-23258D01*
X63862Y-23339D01*
X63871Y-23392D01*
X63881Y-23419D01*
X63901Y-23446D01*
X63979Y-23446D01*
X63783Y-23204D02*
X63773Y-23178D01*
X63753Y-23151D01*
X63704Y-23151D01*
X63685Y-23178D01*
X63675Y-23204D01*
X63665Y-23258D01*
X63665Y-23312D01*
X63675Y-23392D01*
X63793Y-23715D01*
X63665Y-23715D01*
X63537Y-23151D02*
X63518Y-23151D01*
X63498Y-23178D01*
X63488Y-23204D01*
X63478Y-23258D01*
X63469Y-23366D01*
X63469Y-23500D01*
X63478Y-23607D01*
X63488Y-23661D01*
X63498Y-23688D01*
X63518Y-23715D01*
X63537Y-23715D01*
X63557Y-23688D01*
X63567Y-23661D01*
X63577Y-23607D01*
X63586Y-23500D01*
X63586Y-23366D01*
X63577Y-23258D01*
X63567Y-23204D01*
X63557Y-23178D01*
X63537Y-23151D01*
X63341Y-23151D02*
X63321Y-23151D01*
X63302Y-23178D01*
X63292Y-23204D01*
X63282Y-23258D01*
X63272Y-23366D01*
X63272Y-23500D01*
X63282Y-23607D01*
X63292Y-23661D01*
X63302Y-23688D01*
X63321Y-23715D01*
X63341Y-23715D01*
X63360Y-23688D01*
X63370Y-23661D01*
X63380Y-23607D01*
X63390Y-23500D01*
X63390Y-23366D01*
X63380Y-23258D01*
X63370Y-23204D01*
X63360Y-23178D01*
X63341Y-23151D01*
X63095Y-23151D02*
X63135Y-23151D01*
X63154Y-23178D01*
X63164Y-23204D01*
X63184Y-23285D01*
X63193Y-23392D01*
X63193Y-23607D01*
X63184Y-23661D01*
X63174Y-23688D01*
X63154Y-23715D01*
X63115Y-23715D01*
X63095Y-23688D01*
X63085Y-23661D01*
X63076Y-23607D01*
X63076Y-23473D01*
X63085Y-23419D01*
X63095Y-23392D01*
X63115Y-23366D01*
X63154Y-23366D01*
X63174Y-23392D01*
X63184Y-23419D01*
X63193Y-23473D01*
X62997Y-23204D02*
X62987Y-23178D01*
X62968Y-23151D01*
X62918Y-23151D01*
X62899Y-23178D01*
X62889Y-23204D01*
X62879Y-23258D01*
X62879Y-23312D01*
X62889Y-23392D01*
X63007Y-23715D01*
X62879Y-23715D01*
X62751Y-23151D02*
X62732Y-23151D01*
X62712Y-23178D01*
X62702Y-23204D01*
X62692Y-23258D01*
X62683Y-23366D01*
X62683Y-23500D01*
X62692Y-23607D01*
X62702Y-23661D01*
X62712Y-23688D01*
X62732Y-23715D01*
X62751Y-23715D01*
X62771Y-23688D01*
X62781Y-23661D01*
X62791Y-23607D01*
X62801Y-23500D01*
X62801Y-23366D01*
X62791Y-23258D01*
X62781Y-23204D01*
X62771Y-23178D01*
X62751Y-23151D01*
X62486Y-23715D02*
X62604Y-23715D01*
X62545Y-23715D02*
X62545Y-23151D01*
X62565Y-23231D01*
X62584Y-23285D01*
X62604Y-23312D01*
X62417Y-23151D02*
X62290Y-23151D01*
X62358Y-23366D01*
X62329Y-23366D01*
X62309Y-23392D01*
X62300Y-23419D01*
X62290Y-23473D01*
X62290Y-23607D01*
X62300Y-23661D01*
X62309Y-23688D01*
X62329Y-23715D01*
X62388Y-23715D01*
X62408Y-23688D01*
X62417Y-23661D01*
X61749Y-23339D02*
X61700Y-23715D01*
X61651Y-23339D01*
X61465Y-23715D02*
X61582Y-23715D01*
X61523Y-23715D02*
X61523Y-23151D01*
X61543Y-23231D01*
X61563Y-23285D01*
X61582Y-23312D01*
X61376Y-23661D02*
X61366Y-23688D01*
X61376Y-23715D01*
X61386Y-23688D01*
X61376Y-23661D01*
X61376Y-23715D01*
X61170Y-23715D02*
X61288Y-23715D01*
X61229Y-23715D02*
X61229Y-23151D01*
X61248Y-23231D01*
X61268Y-23285D01*
X61288Y-23312D01*
G54D13*
X65499Y-22635D02*
X65499Y-22071D01*
X65499Y-22339D02*
X65269Y-22339D01*
X65269Y-22635D02*
X65269Y-22071D01*
X65077Y-22420D02*
X64770Y-22420D01*
X64443Y-22339D02*
X64386Y-22366D01*
X64367Y-22393D01*
X64347Y-22447D01*
X64347Y-22527D01*
X64367Y-22581D01*
X64386Y-22608D01*
X64424Y-22635D01*
X64578Y-22635D01*
X64578Y-22071D01*
X64443Y-22071D01*
X64405Y-22098D01*
X64386Y-22124D01*
X64367Y-22178D01*
X64367Y-22232D01*
X64386Y-22286D01*
X64405Y-22312D01*
X64443Y-22339D01*
X64578Y-22339D01*
X64175Y-22635D02*
X64175Y-22259D01*
X64175Y-22366D02*
X64155Y-22312D01*
X64136Y-22286D01*
X64098Y-22259D01*
X64059Y-22259D01*
X63925Y-22635D02*
X63925Y-22259D01*
X63925Y-22071D02*
X63944Y-22098D01*
X63925Y-22124D01*
X63906Y-22098D01*
X63925Y-22071D01*
X63925Y-22124D01*
X63560Y-22635D02*
X63560Y-22071D01*
X63560Y-22608D02*
X63599Y-22635D01*
X63675Y-22635D01*
X63714Y-22608D01*
X63733Y-22581D01*
X63752Y-22527D01*
X63752Y-22366D01*
X63733Y-22312D01*
X63714Y-22286D01*
X63675Y-22259D01*
X63599Y-22259D01*
X63560Y-22286D01*
X63195Y-22259D02*
X63195Y-22715D01*
X63215Y-22769D01*
X63234Y-22796D01*
X63272Y-22822D01*
X63330Y-22822D01*
X63368Y-22796D01*
X63195Y-22608D02*
X63234Y-22635D01*
X63311Y-22635D01*
X63349Y-22608D01*
X63368Y-22581D01*
X63387Y-22527D01*
X63387Y-22366D01*
X63368Y-22312D01*
X63349Y-22286D01*
X63311Y-22259D01*
X63234Y-22259D01*
X63195Y-22286D01*
X62850Y-22608D02*
X62888Y-22635D01*
X62965Y-22635D01*
X63003Y-22608D01*
X63023Y-22554D01*
X63023Y-22339D01*
X63003Y-22286D01*
X62965Y-22259D01*
X62888Y-22259D01*
X62850Y-22286D01*
X62831Y-22339D01*
X62831Y-22393D01*
X63023Y-22447D01*
X62159Y-22635D02*
X62351Y-22635D01*
X62351Y-22071D01*
X62044Y-22124D02*
X62024Y-22098D01*
X61986Y-22071D01*
X61890Y-22071D01*
X61852Y-22098D01*
X61832Y-22124D01*
X61813Y-22178D01*
X61813Y-22232D01*
X61832Y-22312D01*
X62063Y-22635D01*
X61813Y-22635D01*
X61621Y-22635D02*
X61544Y-22635D01*
X61506Y-22608D01*
X61487Y-22581D01*
X61448Y-22500D01*
X61429Y-22393D01*
X61429Y-22178D01*
X61448Y-22124D01*
X61468Y-22098D01*
X61506Y-22071D01*
X61583Y-22071D01*
X61621Y-22098D01*
X61640Y-22124D01*
X61660Y-22178D01*
X61660Y-22312D01*
X61640Y-22366D01*
X61621Y-22393D01*
X61583Y-22420D01*
X61506Y-22420D01*
X61468Y-22393D01*
X61448Y-22366D01*
X61429Y-22312D01*
X61199Y-22312D02*
X61237Y-22286D01*
X61257Y-22259D01*
X61276Y-22205D01*
X61276Y-22178D01*
X61257Y-22124D01*
X61237Y-22098D01*
X61199Y-22071D01*
X61122Y-22071D01*
X61084Y-22098D01*
X61065Y-22124D01*
X61045Y-22178D01*
X61045Y-22205D01*
X61065Y-22259D01*
X61084Y-22286D01*
X61122Y-22312D01*
X61199Y-22312D01*
X61237Y-22339D01*
X61257Y-22366D01*
X61276Y-22420D01*
X61276Y-22527D01*
X61257Y-22581D01*
X61237Y-22608D01*
X61199Y-22635D01*
X61122Y-22635D01*
X61084Y-22608D01*
X61065Y-22581D01*
X61045Y-22527D01*
X61045Y-22420D01*
X61065Y-22366D01*
X61084Y-22339D01*
X61122Y-22312D01*
X60873Y-22635D02*
X60873Y-22071D01*
X60873Y-22339D02*
X60642Y-22339D01*
X60642Y-22635D02*
X60642Y-22071D01*
X60450Y-22635D02*
X60450Y-22071D01*
X60220Y-22635D01*
X60220Y-22071D01*
G54D14*
X61675Y-40000D03*
G54D15*
X62675Y-40000D03*
X63675Y-40000D03*
G54D14*
X60250Y-42725D03*
G54D15*
X60250Y-41725D03*
X61250Y-42725D03*
X61250Y-41725D03*
G54D14*
X55510Y-54205D03*
G54D15*
X56510Y-54205D03*
G54D14*
X61700Y-53550D03*
G54D15*
X60700Y-53550D03*
G54D14*
X50300Y-53550D03*
G54D15*
X51300Y-53550D03*
G54D16*
X59535Y-49690D03*
G54D17*
X63535Y-49690D03*
G54D16*
X59535Y-51490D03*
G54D17*
X63535Y-51490D03*
G54D16*
X63535Y-46290D03*
G54D17*
X59535Y-46290D03*
G54D16*
X63520Y-48015D03*
G54D17*
X59520Y-48015D03*
G54D16*
X49026Y-46116D03*
G54D17*
X53026Y-46116D03*
G54D16*
X49030Y-47915D03*
G54D17*
X53030Y-47915D03*
G54D16*
X53030Y-49715D03*
G54D17*
X49030Y-49715D03*
G54D16*
X53030Y-51515D03*
G54D17*
X49030Y-51515D03*
G54D14*
X48050Y-38325D03*
G54D15*
X48050Y-37325D03*
X48050Y-36325D03*
G54D14*
X50775Y-35075D03*
G54D15*
X50775Y-34075D03*
G54D14*
X60100Y-35650D03*
G54D15*
X60100Y-34650D03*
X50000Y-27350D03*
X50000Y-28350D03*
X57700Y-37700D03*
X56700Y-37700D03*
G54D18*
X59680Y-31440D03*
X59180Y-30440D03*
X58680Y-31440D03*
X58180Y-30440D03*
X57680Y-31440D03*
X57180Y-30440D03*
X56680Y-31440D03*
X56180Y-30440D03*
X55680Y-31440D03*
X55180Y-30440D03*
X54680Y-31440D03*
X54180Y-30440D03*
X53680Y-31440D03*
X53180Y-30440D03*
G54D19*
X52680Y-31440D03*
G54D20*
X56180Y-23538D03*
G54D21*
X50775Y-34075D03*
X55180Y-30440D03*
X48050Y-38325D03*
X48050Y-37325D03*
X56180Y-30440D03*
X56180Y-27980D03*
X59680Y-31440D03*
X56700Y-37700D03*
X48050Y-36325D03*
X58760Y-33400D03*
X63240Y-30440D03*
X59180Y-30440D03*
X63520Y-48015D03*
G54D22*
X60100Y-34650D02*
X58850Y-34650D01*
X57690Y-33490D02*
X57690Y-31445D01*
X58850Y-34650D02*
X57690Y-33490D01*
X48050Y-38325D02*
X48050Y-38450D01*
X48050Y-38450D02*
X47300Y-39200D01*
X48050Y-37325D02*
X48050Y-38325D01*
X50000Y-27350D02*
X48140Y-27350D01*
X48140Y-27350D02*
X47300Y-28190D01*
X47300Y-28190D02*
X47300Y-39200D01*
X48046Y-46116D02*
X49026Y-46116D01*
X47300Y-39200D02*
X47300Y-45370D01*
X47300Y-45370D02*
X48046Y-46116D01*
X50000Y-27350D02*
X50000Y-24260D01*
X50918Y-23341D02*
X56180Y-23341D01*
X50000Y-24260D02*
X50918Y-23341D01*
X55350Y-27350D02*
X50000Y-27350D01*
X55550Y-27350D02*
X55350Y-27350D01*
X56180Y-27980D02*
X55550Y-27350D01*
X56180Y-30440D02*
X56180Y-27980D01*
G54D23*
X61670Y-39825D02*
X61670Y-33005D01*
X61670Y-33005D02*
X60110Y-31445D01*
X60110Y-31445D02*
X59690Y-31445D01*
G54D22*
X55510Y-54205D02*
X55510Y-54610D01*
X59535Y-54415D02*
X59535Y-51490D01*
X58900Y-55050D02*
X59535Y-54415D01*
X55950Y-55050D02*
X58900Y-55050D01*
X55510Y-54610D02*
X55950Y-55050D01*
G54D23*
X59535Y-51490D02*
X59535Y-49690D01*
G54D22*
X57700Y-37700D02*
X57700Y-38100D01*
X59600Y-40000D02*
X61675Y-40000D01*
X57700Y-38100D02*
X59600Y-40000D01*
X55510Y-54205D02*
X54975Y-54205D01*
X48060Y-48885D02*
X49030Y-47915D01*
X48060Y-53500D02*
X48060Y-48885D01*
X49600Y-55040D02*
X48060Y-53500D01*
X54140Y-55040D02*
X49600Y-55040D01*
X54975Y-54205D02*
X54140Y-55040D01*
G54D23*
X49030Y-47915D02*
X49030Y-46120D01*
X49030Y-46120D02*
X49026Y-46116D01*
G54D22*
X56700Y-37700D02*
X56700Y-31455D01*
X56700Y-31455D02*
X56690Y-31445D01*
X56690Y-38440D02*
X56690Y-37710D01*
X63675Y-40475D02*
X63350Y-40800D01*
X63350Y-40800D02*
X59050Y-40800D01*
X59050Y-40800D02*
X56690Y-38440D01*
X63675Y-40000D02*
X63675Y-40475D01*
X56690Y-37710D02*
X56700Y-37700D01*
X60250Y-42725D02*
X57925Y-42725D01*
X54690Y-39490D02*
X54690Y-31445D01*
X57925Y-42725D02*
X54690Y-39490D01*
X60250Y-41725D02*
X58675Y-41725D01*
X55690Y-38740D02*
X55690Y-31445D01*
X58675Y-41725D02*
X55690Y-38740D01*
X61250Y-42725D02*
X64375Y-42725D01*
X57190Y-28010D02*
X57190Y-30425D01*
X57700Y-27500D02*
X57190Y-28010D01*
X63650Y-27500D02*
X57700Y-27500D01*
X65150Y-29000D02*
X63650Y-27500D01*
X65150Y-41950D02*
X65150Y-29000D01*
X64375Y-42725D02*
X65150Y-41950D01*
X61250Y-41725D02*
X64025Y-41725D01*
X58190Y-28660D02*
X58190Y-30445D01*
X58700Y-28150D02*
X58190Y-28660D01*
X63100Y-28150D02*
X58700Y-28150D01*
X64450Y-29500D02*
X63100Y-28150D01*
X64450Y-41300D02*
X64450Y-29500D01*
X64025Y-41725D02*
X64450Y-41300D01*
G54D24*
X53180Y-30440D02*
X50680Y-30440D01*
X52365Y-47915D02*
X51300Y-46850D01*
X51300Y-46850D02*
X51300Y-38250D01*
X51300Y-38250D02*
X50000Y-36950D01*
X50000Y-36950D02*
X50000Y-31120D01*
X53030Y-47915D02*
X52365Y-47915D01*
X50680Y-30440D02*
X50000Y-31120D01*
X53030Y-49715D02*
X53030Y-50020D01*
X53030Y-50020D02*
X52100Y-50950D01*
X52100Y-50950D02*
X52100Y-52250D01*
X52100Y-52250D02*
X51600Y-52750D01*
X51600Y-52750D02*
X50650Y-52750D01*
X50650Y-52750D02*
X50300Y-53100D01*
X50300Y-53100D02*
X50300Y-53550D01*
X53030Y-47915D02*
X53030Y-49715D01*
X53030Y-52720D02*
X53030Y-51515D01*
X52200Y-53550D02*
X53030Y-52720D01*
X51300Y-53550D02*
X52200Y-53550D01*
X53026Y-46116D02*
X53116Y-46116D01*
X53116Y-46116D02*
X53950Y-46950D01*
X53950Y-46950D02*
X53950Y-50595D01*
X53950Y-50595D02*
X53030Y-51515D01*
X53690Y-31445D02*
X53690Y-45452D01*
X53690Y-45452D02*
X53026Y-46116D01*
X58680Y-33320D02*
X58680Y-31440D01*
X58760Y-33400D02*
X58680Y-33320D01*
X63535Y-51490D02*
X63160Y-51490D01*
X63160Y-51490D02*
X62650Y-52000D01*
X62650Y-52000D02*
X62650Y-52950D01*
X62650Y-52950D02*
X62050Y-53550D01*
X62050Y-53550D02*
X61700Y-53550D01*
X63135Y-51490D02*
X62635Y-50990D01*
X62635Y-47190D02*
X63535Y-46290D01*
X63535Y-51490D02*
X63135Y-51490D01*
X62635Y-50990D02*
X62635Y-47190D01*
G54D22*
X59180Y-30440D02*
X63240Y-30440D01*
G54D24*
X60700Y-53550D02*
X60700Y-54150D01*
X60700Y-54150D02*
X61050Y-54500D01*
X61050Y-54500D02*
X63700Y-54500D01*
X63700Y-54500D02*
X64650Y-53550D01*
X64650Y-53550D02*
X64650Y-50200D01*
X64650Y-50200D02*
X64140Y-49690D01*
X64140Y-49690D02*
X63535Y-49690D01*
X63535Y-49690D02*
X63535Y-48030D01*
X63535Y-48030D02*
X63520Y-48015D01*
X56510Y-54205D02*
X56510Y-53840D01*
X56510Y-53840D02*
X57000Y-53350D01*
X57000Y-53350D02*
X57550Y-53350D01*
X57550Y-53350D02*
X58450Y-52450D01*
X58450Y-52450D02*
X58450Y-49085D01*
X58450Y-49085D02*
X59520Y-48015D01*
G54D25*
X50000Y-28350D02*
X49650Y-28350D01*
X49650Y-28350D02*
X49140Y-28860D01*
X49140Y-28860D02*
X49140Y-37320D01*
X49140Y-37320D02*
X49980Y-38160D01*
X49980Y-38160D02*
X49980Y-48765D01*
X49980Y-48765D02*
X49030Y-49715D01*
X54180Y-30445D02*
X54180Y-28730D01*
X54180Y-28730D02*
X53800Y-28350D01*
X53800Y-28350D02*
X50000Y-28350D01*
G54D24*
X56510Y-54205D02*
X56510Y-53710D01*
X49030Y-53410D02*
X49030Y-51515D01*
X50040Y-54420D02*
X49030Y-53410D01*
X53460Y-54420D02*
X50040Y-54420D01*
X54540Y-53340D02*
X53460Y-54420D01*
X56140Y-53340D02*
X54540Y-53340D01*
X56510Y-53710D02*
X56140Y-53340D01*
G54D25*
X59520Y-48015D02*
X59520Y-46304D01*
X59520Y-46304D02*
X59535Y-46290D01*
X49030Y-49715D02*
X49030Y-51515D01*
G54D10*
G36*
X53478Y-47307D02*
X53434Y-47290D01*
X53325Y-47289D01*
X52625Y-47289D01*
X52524Y-47331D01*
X52486Y-47369D01*
X51772Y-46654D01*
X51772Y-38250D01*
X51736Y-38069D01*
X51633Y-37916D01*
X50472Y-36754D01*
X50472Y-35674D01*
X50504Y-35674D01*
X51154Y-35674D01*
X51255Y-35633D01*
X51332Y-35555D01*
X51374Y-35454D01*
X51374Y-35345D01*
X51374Y-34695D01*
X51333Y-34594D01*
X51267Y-34528D01*
X51341Y-34454D01*
X51443Y-34208D01*
X51443Y-33942D01*
X51342Y-33696D01*
X51154Y-33508D01*
X50908Y-33406D01*
X50642Y-33406D01*
X50472Y-33476D01*
X50472Y-31315D01*
X50875Y-30912D01*
X52128Y-30912D01*
X52095Y-30991D01*
X52094Y-31100D01*
X52095Y-31346D01*
X52163Y-31415D01*
X52655Y-31415D01*
X52655Y-31407D01*
X52705Y-31407D01*
X52705Y-31415D01*
X52712Y-31415D01*
X52712Y-31465D01*
X52705Y-31465D01*
X52705Y-32039D01*
X52773Y-32108D01*
X53044Y-32108D01*
X53145Y-32066D01*
X53218Y-31994D01*
X53218Y-45257D01*
X52983Y-45491D01*
X52655Y-45491D01*
X52655Y-32039D01*
X52655Y-31465D01*
X52163Y-31465D01*
X52095Y-31533D01*
X52094Y-31779D01*
X52095Y-31888D01*
X52137Y-31989D01*
X52214Y-32066D01*
X52315Y-32108D01*
X52586Y-32108D01*
X52655Y-32039D01*
X52655Y-45491D01*
X52621Y-45491D01*
X52520Y-45533D01*
X52443Y-45610D01*
X52401Y-45711D01*
X52401Y-45821D01*
X52401Y-46521D01*
X52442Y-46622D01*
X52520Y-46699D01*
X52621Y-46741D01*
X52730Y-46741D01*
X53074Y-46741D01*
X53478Y-47145D01*
X53478Y-47307D01*
X53478Y-47307D01*
G37*
G54D11*
X53478Y-47307D02*
X53434Y-47290D01*
X53325Y-47289D01*
X52625Y-47289D01*
X52524Y-47331D01*
X52486Y-47369D01*
X51772Y-46654D01*
X51772Y-38250D01*
X51736Y-38069D01*
X51633Y-37916D01*
X50472Y-36754D01*
X50472Y-35674D01*
X50504Y-35674D01*
X51154Y-35674D01*
X51255Y-35633D01*
X51332Y-35555D01*
X51374Y-35454D01*
X51374Y-35345D01*
X51374Y-34695D01*
X51333Y-34594D01*
X51267Y-34528D01*
X51341Y-34454D01*
X51443Y-34208D01*
X51443Y-33942D01*
X51342Y-33696D01*
X51154Y-33508D01*
X50908Y-33406D01*
X50642Y-33406D01*
X50472Y-33476D01*
X50472Y-31315D01*
X50875Y-30912D01*
X52128Y-30912D01*
X52095Y-30991D01*
X52094Y-31100D01*
X52095Y-31346D01*
X52163Y-31415D01*
X52655Y-31415D01*
X52655Y-31407D01*
X52705Y-31407D01*
X52705Y-31415D01*
X52712Y-31415D01*
X52712Y-31465D01*
X52705Y-31465D01*
X52705Y-32039D01*
X52773Y-32108D01*
X53044Y-32108D01*
X53145Y-32066D01*
X53218Y-31994D01*
X53218Y-45257D01*
X52983Y-45491D01*
X52655Y-45491D01*
X52655Y-32039D01*
X52655Y-31465D01*
X52163Y-31465D01*
X52095Y-31533D01*
X52094Y-31779D01*
X52095Y-31888D01*
X52137Y-31989D01*
X52214Y-32066D01*
X52315Y-32108D01*
X52586Y-32108D01*
X52655Y-32039D01*
X52655Y-45491D01*
X52621Y-45491D01*
X52520Y-45533D01*
X52443Y-45610D01*
X52401Y-45711D01*
X52401Y-45821D01*
X52401Y-46521D01*
X52442Y-46622D01*
X52520Y-46699D01*
X52621Y-46741D01*
X52730Y-46741D01*
X53074Y-46741D01*
X53478Y-47145D01*
X53478Y-47307D01*
G54D10*
G36*
X64017Y-39418D02*
X63808Y-39331D01*
X63542Y-39331D01*
X63296Y-39432D01*
X63174Y-39554D01*
X63054Y-39433D01*
X62808Y-39331D01*
X62542Y-39331D01*
X62296Y-39432D01*
X62221Y-39507D01*
X62155Y-39441D01*
X62054Y-39400D01*
X61768Y-39400D01*
X61700Y-39468D01*
X61700Y-39975D01*
X61707Y-39975D01*
X61707Y-40025D01*
X61700Y-40025D01*
X61700Y-40032D01*
X61650Y-40032D01*
X61650Y-40025D01*
X61650Y-39975D01*
X61650Y-39468D01*
X61581Y-39400D01*
X61295Y-39400D01*
X61194Y-39441D01*
X61117Y-39519D01*
X61075Y-39620D01*
X61075Y-39729D01*
X61075Y-39906D01*
X61143Y-39975D01*
X61650Y-39975D01*
X61650Y-40025D01*
X61143Y-40025D01*
X61075Y-40093D01*
X61075Y-40270D01*
X61075Y-40367D01*
X59229Y-40367D01*
X58369Y-39507D01*
X58369Y-37568D01*
X58267Y-37322D01*
X58265Y-37319D01*
X58150Y-37284D01*
X58115Y-37319D01*
X58115Y-37249D01*
X58080Y-37134D01*
X57834Y-37031D01*
X57568Y-37030D01*
X57322Y-37132D01*
X57319Y-37134D01*
X57284Y-37249D01*
X57700Y-37664D01*
X58115Y-37249D01*
X58115Y-37319D01*
X57735Y-37700D01*
X58150Y-38115D01*
X58265Y-38080D01*
X58368Y-37834D01*
X58369Y-37568D01*
X58369Y-39507D01*
X58115Y-39253D01*
X58115Y-38150D01*
X57700Y-37735D01*
X57284Y-38150D01*
X57319Y-38265D01*
X57565Y-38368D01*
X57831Y-38369D01*
X58077Y-38267D01*
X58080Y-38265D01*
X58115Y-38150D01*
X58115Y-39253D01*
X57122Y-38260D01*
X57122Y-38223D01*
X57234Y-38111D01*
X57249Y-38115D01*
X57664Y-37700D01*
X57249Y-37284D01*
X57234Y-37289D01*
X57132Y-37186D01*
X57132Y-31892D01*
X57179Y-31821D01*
X57257Y-31937D01*
X57257Y-33490D01*
X57290Y-33655D01*
X57384Y-33795D01*
X58544Y-34955D01*
X58684Y-35049D01*
X58850Y-35082D01*
X59586Y-35082D01*
X59607Y-35103D01*
X59542Y-35169D01*
X59500Y-35270D01*
X59500Y-35379D01*
X59500Y-36029D01*
X59541Y-36130D01*
X59619Y-36207D01*
X59720Y-36249D01*
X59829Y-36249D01*
X60479Y-36249D01*
X60580Y-36208D01*
X60657Y-36130D01*
X60699Y-36029D01*
X60699Y-35920D01*
X60699Y-35270D01*
X60658Y-35169D01*
X60592Y-35103D01*
X60666Y-35029D01*
X60768Y-34783D01*
X60768Y-34517D01*
X60667Y-34271D01*
X60479Y-34083D01*
X60265Y-33994D01*
X60265Y-31548D01*
X60265Y-31465D01*
X59705Y-31465D01*
X59705Y-32039D01*
X59796Y-32097D01*
X59880Y-32073D01*
X60075Y-31955D01*
X60210Y-31770D01*
X60265Y-31548D01*
X60265Y-33994D01*
X60233Y-33981D01*
X59967Y-33981D01*
X59721Y-34082D01*
X59586Y-34217D01*
X59029Y-34217D01*
X58782Y-33970D01*
X58872Y-33970D01*
X59082Y-33883D01*
X59243Y-33723D01*
X59330Y-33513D01*
X59330Y-33287D01*
X59243Y-33077D01*
X59152Y-32985D01*
X59152Y-31863D01*
X59182Y-31816D01*
X59284Y-31955D01*
X59479Y-32073D01*
X59563Y-32097D01*
X59655Y-32039D01*
X59655Y-31465D01*
X59647Y-31465D01*
X59647Y-31415D01*
X59655Y-31415D01*
X59655Y-31407D01*
X59705Y-31407D01*
X59705Y-31415D01*
X60265Y-31415D01*
X60265Y-31331D01*
X60210Y-31109D01*
X60075Y-30924D01*
X59989Y-30872D01*
X62865Y-30872D01*
X62916Y-30923D01*
X63126Y-31010D01*
X63352Y-31010D01*
X63562Y-30923D01*
X63723Y-30763D01*
X63810Y-30553D01*
X63810Y-30327D01*
X63723Y-30117D01*
X63563Y-29956D01*
X63353Y-29869D01*
X63127Y-29869D01*
X62917Y-29956D01*
X62865Y-30007D01*
X59645Y-30007D01*
X59593Y-29929D01*
X59403Y-29802D01*
X59180Y-29758D01*
X58956Y-29802D01*
X58766Y-29929D01*
X58679Y-30058D01*
X58622Y-29972D01*
X58622Y-28839D01*
X58879Y-28582D01*
X62920Y-28582D01*
X64017Y-29679D01*
X64017Y-39418D01*
X64017Y-39418D01*
G37*
G54D11*
X64017Y-39418D02*
X63808Y-39331D01*
X63542Y-39331D01*
X63296Y-39432D01*
X63174Y-39554D01*
X63054Y-39433D01*
X62808Y-39331D01*
X62542Y-39331D01*
X62296Y-39432D01*
X62221Y-39507D01*
X62155Y-39441D01*
X62054Y-39400D01*
X61768Y-39400D01*
X61700Y-39468D01*
X61700Y-39975D01*
X61707Y-39975D01*
X61707Y-40025D01*
X61700Y-40025D01*
X61700Y-40032D01*
X61650Y-40032D01*
X61650Y-40025D01*
X61650Y-39975D01*
X61650Y-39468D01*
X61581Y-39400D01*
X61295Y-39400D01*
X61194Y-39441D01*
X61117Y-39519D01*
X61075Y-39620D01*
X61075Y-39729D01*
X61075Y-39906D01*
X61143Y-39975D01*
X61650Y-39975D01*
X61650Y-40025D01*
X61143Y-40025D01*
X61075Y-40093D01*
X61075Y-40270D01*
X61075Y-40367D01*
X59229Y-40367D01*
X58369Y-39507D01*
X58369Y-37568D01*
X58267Y-37322D01*
X58265Y-37319D01*
X58150Y-37284D01*
X58115Y-37319D01*
X58115Y-37249D01*
X58080Y-37134D01*
X57834Y-37031D01*
X57568Y-37030D01*
X57322Y-37132D01*
X57319Y-37134D01*
X57284Y-37249D01*
X57700Y-37664D01*
X58115Y-37249D01*
X58115Y-37319D01*
X57735Y-37700D01*
X58150Y-38115D01*
X58265Y-38080D01*
X58368Y-37834D01*
X58369Y-37568D01*
X58369Y-39507D01*
X58115Y-39253D01*
X58115Y-38150D01*
X57700Y-37735D01*
X57284Y-38150D01*
X57319Y-38265D01*
X57565Y-38368D01*
X57831Y-38369D01*
X58077Y-38267D01*
X58080Y-38265D01*
X58115Y-38150D01*
X58115Y-39253D01*
X57122Y-38260D01*
X57122Y-38223D01*
X57234Y-38111D01*
X57249Y-38115D01*
X57664Y-37700D01*
X57249Y-37284D01*
X57234Y-37289D01*
X57132Y-37186D01*
X57132Y-31892D01*
X57179Y-31821D01*
X57257Y-31937D01*
X57257Y-33490D01*
X57290Y-33655D01*
X57384Y-33795D01*
X58544Y-34955D01*
X58684Y-35049D01*
X58850Y-35082D01*
X59586Y-35082D01*
X59607Y-35103D01*
X59542Y-35169D01*
X59500Y-35270D01*
X59500Y-35379D01*
X59500Y-36029D01*
X59541Y-36130D01*
X59619Y-36207D01*
X59720Y-36249D01*
X59829Y-36249D01*
X60479Y-36249D01*
X60580Y-36208D01*
X60657Y-36130D01*
X60699Y-36029D01*
X60699Y-35920D01*
X60699Y-35270D01*
X60658Y-35169D01*
X60592Y-35103D01*
X60666Y-35029D01*
X60768Y-34783D01*
X60768Y-34517D01*
X60667Y-34271D01*
X60479Y-34083D01*
X60265Y-33994D01*
X60265Y-31548D01*
X60265Y-31465D01*
X59705Y-31465D01*
X59705Y-32039D01*
X59796Y-32097D01*
X59880Y-32073D01*
X60075Y-31955D01*
X60210Y-31770D01*
X60265Y-31548D01*
X60265Y-33994D01*
X60233Y-33981D01*
X59967Y-33981D01*
X59721Y-34082D01*
X59586Y-34217D01*
X59029Y-34217D01*
X58782Y-33970D01*
X58872Y-33970D01*
X59082Y-33883D01*
X59243Y-33723D01*
X59330Y-33513D01*
X59330Y-33287D01*
X59243Y-33077D01*
X59152Y-32985D01*
X59152Y-31863D01*
X59182Y-31816D01*
X59284Y-31955D01*
X59479Y-32073D01*
X59563Y-32097D01*
X59655Y-32039D01*
X59655Y-31465D01*
X59647Y-31465D01*
X59647Y-31415D01*
X59655Y-31415D01*
X59655Y-31407D01*
X59705Y-31407D01*
X59705Y-31415D01*
X60265Y-31415D01*
X60265Y-31331D01*
X60210Y-31109D01*
X60075Y-30924D01*
X59989Y-30872D01*
X62865Y-30872D01*
X62916Y-30923D01*
X63126Y-31010D01*
X63352Y-31010D01*
X63562Y-30923D01*
X63723Y-30763D01*
X63810Y-30553D01*
X63810Y-30327D01*
X63723Y-30117D01*
X63563Y-29956D01*
X63353Y-29869D01*
X63127Y-29869D01*
X62917Y-29956D01*
X62865Y-30007D01*
X59645Y-30007D01*
X59593Y-29929D01*
X59403Y-29802D01*
X59180Y-29758D01*
X58956Y-29802D01*
X58766Y-29929D01*
X58679Y-30058D01*
X58622Y-29972D01*
X58622Y-28839D01*
X58879Y-28582D01*
X62920Y-28582D01*
X64017Y-29679D01*
X64017Y-39418D01*
G54D10*
G36*
X65440Y-55200D02*
X65122Y-55200D01*
X65122Y-53550D01*
X65122Y-50200D01*
X65086Y-50019D01*
X64983Y-49866D01*
X64473Y-49356D01*
X64320Y-49253D01*
X64140Y-49218D01*
X64132Y-49218D01*
X64118Y-49184D01*
X64040Y-49107D01*
X64007Y-49092D01*
X64007Y-48412D01*
X64049Y-48369D01*
X64144Y-48140D01*
X64145Y-47891D01*
X64050Y-47661D01*
X63874Y-47485D01*
X63644Y-47390D01*
X63396Y-47390D01*
X63166Y-47485D01*
X63107Y-47544D01*
X63107Y-47385D01*
X63577Y-46915D01*
X63658Y-46915D01*
X63888Y-46820D01*
X64064Y-46644D01*
X64159Y-46414D01*
X64160Y-46166D01*
X64065Y-45936D01*
X63889Y-45760D01*
X63659Y-45665D01*
X63411Y-45664D01*
X63181Y-45759D01*
X63005Y-45935D01*
X62910Y-46165D01*
X62910Y-46247D01*
X62301Y-46856D01*
X62198Y-47009D01*
X62163Y-47190D01*
X62163Y-50990D01*
X62198Y-51170D01*
X62301Y-51323D01*
X62479Y-51502D01*
X62316Y-51666D01*
X62213Y-51819D01*
X62178Y-52000D01*
X62178Y-52754D01*
X61982Y-52950D01*
X61970Y-52950D01*
X61320Y-52950D01*
X61219Y-52991D01*
X61153Y-53057D01*
X61079Y-52983D01*
X60833Y-52881D01*
X60567Y-52881D01*
X60321Y-52982D01*
X60160Y-53144D01*
X60160Y-51365D01*
X60160Y-49565D01*
X60064Y-49335D01*
X60064Y-49335D01*
X59954Y-49306D01*
X59918Y-49341D01*
X59918Y-49270D01*
X59889Y-49160D01*
X59659Y-49065D01*
X59410Y-49064D01*
X59180Y-49160D01*
X59180Y-49160D01*
X59151Y-49270D01*
X59535Y-49654D01*
X59918Y-49270D01*
X59918Y-49341D01*
X59570Y-49690D01*
X59954Y-50073D01*
X60064Y-50044D01*
X60159Y-49814D01*
X60160Y-49565D01*
X60160Y-51365D01*
X60064Y-51135D01*
X60064Y-51135D01*
X59954Y-51106D01*
X59918Y-51141D01*
X59918Y-51070D01*
X59918Y-50109D01*
X59535Y-49725D01*
X59151Y-50109D01*
X59180Y-50219D01*
X59410Y-50314D01*
X59659Y-50315D01*
X59889Y-50219D01*
X59889Y-50219D01*
X59918Y-50109D01*
X59918Y-51070D01*
X59889Y-50960D01*
X59659Y-50865D01*
X59410Y-50864D01*
X59180Y-50960D01*
X59180Y-50960D01*
X59151Y-51070D01*
X59535Y-51454D01*
X59918Y-51070D01*
X59918Y-51141D01*
X59570Y-51490D01*
X59954Y-51873D01*
X60064Y-51844D01*
X60159Y-51614D01*
X60160Y-51365D01*
X60160Y-53144D01*
X60133Y-53170D01*
X60031Y-53416D01*
X60031Y-53682D01*
X60132Y-53928D01*
X60228Y-54023D01*
X60228Y-54150D01*
X60263Y-54330D01*
X60366Y-54483D01*
X60716Y-54833D01*
X60869Y-54936D01*
X60869Y-54936D01*
X61050Y-54972D01*
X63700Y-54972D01*
X63880Y-54936D01*
X63880Y-54936D01*
X64033Y-54833D01*
X64983Y-53883D01*
X65086Y-53730D01*
X65122Y-53550D01*
X65122Y-55200D01*
X59918Y-55200D01*
X59918Y-51909D01*
X59535Y-51525D01*
X59151Y-51909D01*
X59180Y-52019D01*
X59410Y-52114D01*
X59659Y-52115D01*
X59889Y-52019D01*
X59889Y-52019D01*
X59918Y-51909D01*
X59918Y-55200D01*
X55485Y-55200D01*
X55485Y-54736D01*
X55485Y-54230D01*
X54978Y-54230D01*
X54910Y-54298D01*
X54910Y-54475D01*
X54910Y-54584D01*
X54952Y-54685D01*
X55029Y-54763D01*
X55130Y-54804D01*
X55416Y-54804D01*
X55485Y-54736D01*
X55485Y-55200D01*
X48025Y-55200D01*
X48025Y-38856D01*
X48025Y-38350D01*
X47518Y-38350D01*
X47450Y-38418D01*
X47450Y-38704D01*
X47491Y-38805D01*
X47569Y-38882D01*
X47670Y-38924D01*
X47779Y-38924D01*
X47956Y-38924D01*
X48025Y-38856D01*
X48025Y-55200D01*
X47020Y-55200D01*
X47020Y-21960D01*
X59798Y-21960D01*
X59798Y-23100D01*
X60830Y-23100D01*
X60830Y-24155D01*
X64329Y-24155D01*
X64329Y-23100D01*
X65440Y-23100D01*
X65440Y-28678D01*
X63955Y-27194D01*
X63815Y-27100D01*
X63650Y-27067D01*
X59604Y-27067D01*
X59604Y-24665D01*
X59604Y-22411D01*
X59604Y-22302D01*
X59562Y-22201D01*
X59485Y-22124D01*
X59384Y-22082D01*
X56273Y-22082D01*
X56205Y-22151D01*
X56205Y-23513D01*
X59535Y-23513D01*
X59604Y-23444D01*
X59604Y-22411D01*
X59604Y-24665D01*
X59604Y-23632D01*
X59535Y-23563D01*
X56205Y-23563D01*
X56205Y-24925D01*
X56273Y-24994D01*
X59384Y-24994D01*
X59485Y-24952D01*
X59562Y-24875D01*
X59604Y-24774D01*
X59604Y-24665D01*
X59604Y-27067D01*
X57700Y-27067D01*
X57534Y-27100D01*
X57394Y-27194D01*
X56884Y-27704D01*
X56790Y-27844D01*
X56757Y-28010D01*
X56757Y-29942D01*
X56677Y-30063D01*
X56575Y-29924D01*
X56380Y-29806D01*
X56296Y-29782D01*
X56205Y-29840D01*
X56205Y-30415D01*
X56212Y-30415D01*
X56212Y-30465D01*
X56205Y-30465D01*
X56205Y-30472D01*
X56155Y-30472D01*
X56155Y-30465D01*
X56147Y-30465D01*
X56147Y-30415D01*
X56155Y-30415D01*
X56155Y-29840D01*
X56155Y-24925D01*
X56155Y-23563D01*
X56155Y-23513D01*
X56155Y-22151D01*
X56086Y-22082D01*
X52975Y-22082D01*
X52874Y-22124D01*
X52797Y-22201D01*
X52755Y-22302D01*
X52755Y-22411D01*
X52755Y-23444D01*
X52824Y-23513D01*
X56155Y-23513D01*
X56155Y-23563D01*
X52824Y-23563D01*
X52755Y-23632D01*
X52755Y-24665D01*
X52755Y-24774D01*
X52797Y-24875D01*
X52874Y-24952D01*
X52975Y-24994D01*
X56086Y-24994D01*
X56155Y-24925D01*
X56155Y-29840D01*
X56063Y-29782D01*
X55979Y-29806D01*
X55784Y-29924D01*
X55682Y-30063D01*
X55593Y-29929D01*
X55403Y-29802D01*
X55180Y-29758D01*
X54956Y-29802D01*
X54766Y-29929D01*
X54705Y-30021D01*
X54705Y-28730D01*
X54665Y-28529D01*
X54551Y-28358D01*
X54171Y-27978D01*
X54000Y-27864D01*
X53800Y-27825D01*
X50669Y-27825D01*
X50487Y-27825D01*
X50498Y-27813D01*
X50450Y-27765D01*
X50565Y-27730D01*
X50668Y-27484D01*
X50669Y-27218D01*
X50567Y-26972D01*
X50565Y-26969D01*
X50450Y-26934D01*
X50415Y-26969D01*
X50415Y-26899D01*
X50380Y-26784D01*
X50134Y-26681D01*
X49868Y-26680D01*
X49622Y-26782D01*
X49619Y-26784D01*
X49584Y-26899D01*
X50000Y-27314D01*
X50415Y-26899D01*
X50415Y-26969D01*
X50035Y-27350D01*
X50040Y-27355D01*
X50005Y-27390D01*
X50000Y-27385D01*
X49964Y-27420D01*
X49964Y-27350D01*
X49549Y-26934D01*
X49434Y-26969D01*
X49331Y-27215D01*
X49330Y-27481D01*
X49432Y-27727D01*
X49434Y-27730D01*
X49549Y-27765D01*
X49964Y-27350D01*
X49964Y-27420D01*
X49584Y-27800D01*
X49589Y-27815D01*
X49561Y-27842D01*
X49561Y-27842D01*
X49449Y-27864D01*
X49278Y-27978D01*
X48768Y-28488D01*
X48654Y-28659D01*
X48615Y-28860D01*
X48615Y-35944D01*
X48429Y-35758D01*
X48183Y-35656D01*
X47917Y-35656D01*
X47671Y-35757D01*
X47483Y-35945D01*
X47381Y-36191D01*
X47381Y-36457D01*
X47482Y-36703D01*
X47638Y-36859D01*
X47634Y-36874D01*
X48050Y-37289D01*
X48465Y-36874D01*
X48460Y-36859D01*
X48615Y-36705D01*
X48615Y-36944D01*
X48500Y-36909D01*
X48085Y-37325D01*
X48090Y-37330D01*
X48055Y-37365D01*
X48050Y-37360D01*
X48044Y-37365D01*
X48014Y-37336D01*
X48009Y-37330D01*
X48014Y-37325D01*
X47599Y-36909D01*
X47484Y-36944D01*
X47381Y-37190D01*
X47380Y-37456D01*
X47482Y-37702D01*
X47484Y-37705D01*
X47599Y-37740D01*
X47574Y-37764D01*
X47569Y-37767D01*
X47491Y-37844D01*
X47450Y-37945D01*
X47450Y-38231D01*
X47518Y-38300D01*
X48025Y-38300D01*
X48025Y-38292D01*
X48075Y-38292D01*
X48075Y-38300D01*
X48581Y-38300D01*
X48649Y-38231D01*
X48649Y-37945D01*
X48608Y-37844D01*
X48530Y-37767D01*
X48525Y-37764D01*
X48500Y-37740D01*
X48615Y-37705D01*
X48678Y-37555D01*
X48768Y-37691D01*
X49455Y-38377D01*
X49455Y-45652D01*
X49409Y-45697D01*
X49380Y-45586D01*
X49150Y-45491D01*
X48901Y-45491D01*
X48672Y-45586D01*
X48672Y-45586D01*
X48649Y-45668D01*
X48649Y-38704D01*
X48649Y-38418D01*
X48581Y-38350D01*
X48075Y-38350D01*
X48075Y-38856D01*
X48143Y-38924D01*
X48320Y-38924D01*
X48429Y-38924D01*
X48530Y-38882D01*
X48608Y-38805D01*
X48649Y-38704D01*
X48649Y-45668D01*
X48642Y-45697D01*
X49026Y-46081D01*
X49031Y-46075D01*
X49066Y-46111D01*
X49061Y-46116D01*
X49066Y-46122D01*
X49031Y-46157D01*
X49026Y-46151D01*
X48990Y-46187D01*
X48990Y-46116D01*
X48606Y-45732D01*
X48496Y-45762D01*
X48401Y-45992D01*
X48401Y-46240D01*
X48496Y-46470D01*
X48496Y-46470D01*
X48606Y-46500D01*
X48990Y-46116D01*
X48990Y-46187D01*
X48642Y-46535D01*
X48672Y-46646D01*
X48901Y-46741D01*
X49150Y-46741D01*
X49380Y-46646D01*
X49380Y-46646D01*
X49409Y-46535D01*
X49409Y-46535D01*
X49455Y-46580D01*
X49455Y-47454D01*
X49413Y-47495D01*
X49409Y-47481D01*
X49384Y-47385D01*
X49154Y-47290D01*
X48905Y-47289D01*
X48675Y-47385D01*
X48675Y-47385D01*
X48646Y-47495D01*
X49030Y-47879D01*
X49035Y-47874D01*
X49070Y-47909D01*
X49065Y-47915D01*
X49070Y-47920D01*
X49035Y-47955D01*
X49030Y-47950D01*
X48994Y-47985D01*
X48994Y-47915D01*
X48610Y-47531D01*
X48500Y-47560D01*
X48405Y-47790D01*
X48404Y-48039D01*
X48500Y-48269D01*
X48500Y-48269D01*
X48610Y-48298D01*
X48994Y-47915D01*
X48994Y-47985D01*
X48646Y-48334D01*
X48675Y-48444D01*
X48905Y-48539D01*
X49154Y-48540D01*
X49384Y-48444D01*
X49384Y-48444D01*
X49413Y-48334D01*
X49413Y-48334D01*
X49455Y-48375D01*
X49455Y-48547D01*
X49413Y-48588D01*
X48912Y-49089D01*
X48625Y-49089D01*
X48524Y-49131D01*
X48447Y-49209D01*
X48405Y-49310D01*
X48404Y-49419D01*
X48404Y-50119D01*
X48446Y-50220D01*
X48505Y-50278D01*
X48505Y-50951D01*
X48447Y-51009D01*
X48405Y-51110D01*
X48404Y-51219D01*
X48404Y-51919D01*
X48446Y-52020D01*
X48524Y-52097D01*
X48558Y-52112D01*
X48558Y-53410D01*
X48593Y-53590D01*
X48696Y-53743D01*
X49706Y-54753D01*
X49706Y-54753D01*
X49859Y-54856D01*
X50040Y-54892D01*
X53460Y-54892D01*
X53640Y-54856D01*
X53640Y-54856D01*
X53793Y-54753D01*
X54735Y-53812D01*
X54915Y-53812D01*
X54910Y-53825D01*
X54910Y-53934D01*
X54910Y-54111D01*
X54978Y-54180D01*
X55485Y-54180D01*
X55485Y-54172D01*
X55535Y-54172D01*
X55535Y-54180D01*
X55542Y-54180D01*
X55542Y-54230D01*
X55535Y-54230D01*
X55535Y-54736D01*
X55603Y-54804D01*
X55889Y-54804D01*
X55990Y-54763D01*
X56056Y-54697D01*
X56130Y-54771D01*
X56376Y-54873D01*
X56642Y-54873D01*
X56888Y-54772D01*
X57076Y-54584D01*
X57178Y-54338D01*
X57178Y-54072D01*
X57110Y-53907D01*
X57195Y-53822D01*
X57550Y-53822D01*
X57730Y-53786D01*
X57730Y-53786D01*
X57883Y-53683D01*
X58783Y-52783D01*
X58886Y-52630D01*
X58922Y-52450D01*
X58922Y-51643D01*
X59005Y-51844D01*
X59005Y-51844D01*
X59115Y-51873D01*
X59499Y-51490D01*
X59115Y-51106D01*
X59005Y-51135D01*
X58922Y-51336D01*
X58922Y-49843D01*
X59005Y-50044D01*
X59005Y-50044D01*
X59115Y-50073D01*
X59499Y-49690D01*
X59115Y-49306D01*
X59005Y-49335D01*
X58922Y-49536D01*
X58922Y-49280D01*
X59562Y-48640D01*
X59924Y-48640D01*
X60025Y-48598D01*
X60103Y-48521D01*
X60144Y-48420D01*
X60145Y-48310D01*
X60145Y-47610D01*
X60103Y-47509D01*
X60045Y-47451D01*
X60045Y-46868D01*
X60117Y-46795D01*
X60159Y-46694D01*
X60160Y-46585D01*
X60160Y-45885D01*
X60118Y-45784D01*
X60040Y-45707D01*
X59939Y-45665D01*
X59830Y-45664D01*
X59130Y-45664D01*
X59029Y-45706D01*
X58952Y-45784D01*
X58910Y-45885D01*
X58909Y-45994D01*
X58909Y-46694D01*
X58951Y-46795D01*
X58995Y-46838D01*
X58995Y-47451D01*
X58937Y-47509D01*
X58895Y-47610D01*
X58894Y-47719D01*
X58894Y-47972D01*
X58116Y-48751D01*
X58013Y-48904D01*
X57978Y-49085D01*
X57978Y-52254D01*
X57354Y-52878D01*
X57000Y-52878D01*
X56819Y-52913D01*
X56666Y-53016D01*
X56575Y-53107D01*
X56473Y-53006D01*
X56320Y-52903D01*
X56140Y-52868D01*
X54540Y-52868D01*
X54359Y-52903D01*
X54206Y-53006D01*
X53264Y-53948D01*
X52437Y-53948D01*
X52533Y-53883D01*
X53363Y-53053D01*
X53466Y-52900D01*
X53466Y-52900D01*
X53502Y-52720D01*
X53502Y-51926D01*
X53559Y-51869D01*
X53654Y-51639D01*
X53654Y-51557D01*
X54283Y-50928D01*
X54386Y-50775D01*
X54422Y-50595D01*
X54422Y-46950D01*
X54386Y-46769D01*
X54386Y-46769D01*
X54283Y-46616D01*
X53738Y-46071D01*
X54023Y-45786D01*
X54126Y-45633D01*
X54126Y-45633D01*
X54162Y-45452D01*
X54162Y-31848D01*
X54179Y-31821D01*
X54257Y-31937D01*
X54257Y-39490D01*
X54290Y-39655D01*
X54384Y-39795D01*
X57619Y-43030D01*
X57759Y-43124D01*
X57925Y-43157D01*
X59672Y-43157D01*
X59691Y-43205D01*
X59769Y-43282D01*
X59870Y-43324D01*
X59979Y-43324D01*
X60629Y-43324D01*
X60730Y-43283D01*
X60796Y-43217D01*
X60870Y-43291D01*
X61116Y-43393D01*
X61382Y-43393D01*
X61628Y-43292D01*
X61763Y-43157D01*
X64375Y-43157D01*
X64540Y-43124D01*
X64680Y-43030D01*
X65440Y-42271D01*
X65440Y-55200D01*
X65440Y-55200D01*
G37*
G54D11*
X65440Y-55200D02*
X65122Y-55200D01*
X65122Y-53550D01*
X65122Y-50200D01*
X65086Y-50019D01*
X64983Y-49866D01*
X64473Y-49356D01*
X64320Y-49253D01*
X64140Y-49218D01*
X64132Y-49218D01*
X64118Y-49184D01*
X64040Y-49107D01*
X64007Y-49092D01*
X64007Y-48412D01*
X64049Y-48369D01*
X64144Y-48140D01*
X64145Y-47891D01*
X64050Y-47661D01*
X63874Y-47485D01*
X63644Y-47390D01*
X63396Y-47390D01*
X63166Y-47485D01*
X63107Y-47544D01*
X63107Y-47385D01*
X63577Y-46915D01*
X63658Y-46915D01*
X63888Y-46820D01*
X64064Y-46644D01*
X64159Y-46414D01*
X64160Y-46166D01*
X64065Y-45936D01*
X63889Y-45760D01*
X63659Y-45665D01*
X63411Y-45664D01*
X63181Y-45759D01*
X63005Y-45935D01*
X62910Y-46165D01*
X62910Y-46247D01*
X62301Y-46856D01*
X62198Y-47009D01*
X62163Y-47190D01*
X62163Y-50990D01*
X62198Y-51170D01*
X62301Y-51323D01*
X62479Y-51502D01*
X62316Y-51666D01*
X62213Y-51819D01*
X62178Y-52000D01*
X62178Y-52754D01*
X61982Y-52950D01*
X61970Y-52950D01*
X61320Y-52950D01*
X61219Y-52991D01*
X61153Y-53057D01*
X61079Y-52983D01*
X60833Y-52881D01*
X60567Y-52881D01*
X60321Y-52982D01*
X60160Y-53144D01*
X60160Y-51365D01*
X60160Y-49565D01*
X60064Y-49335D01*
X60064Y-49335D01*
X59954Y-49306D01*
X59918Y-49341D01*
X59918Y-49270D01*
X59889Y-49160D01*
X59659Y-49065D01*
X59410Y-49064D01*
X59180Y-49160D01*
X59180Y-49160D01*
X59151Y-49270D01*
X59535Y-49654D01*
X59918Y-49270D01*
X59918Y-49341D01*
X59570Y-49690D01*
X59954Y-50073D01*
X60064Y-50044D01*
X60159Y-49814D01*
X60160Y-49565D01*
X60160Y-51365D01*
X60064Y-51135D01*
X60064Y-51135D01*
X59954Y-51106D01*
X59918Y-51141D01*
X59918Y-51070D01*
X59918Y-50109D01*
X59535Y-49725D01*
X59151Y-50109D01*
X59180Y-50219D01*
X59410Y-50314D01*
X59659Y-50315D01*
X59889Y-50219D01*
X59889Y-50219D01*
X59918Y-50109D01*
X59918Y-51070D01*
X59889Y-50960D01*
X59659Y-50865D01*
X59410Y-50864D01*
X59180Y-50960D01*
X59180Y-50960D01*
X59151Y-51070D01*
X59535Y-51454D01*
X59918Y-51070D01*
X59918Y-51141D01*
X59570Y-51490D01*
X59954Y-51873D01*
X60064Y-51844D01*
X60159Y-51614D01*
X60160Y-51365D01*
X60160Y-53144D01*
X60133Y-53170D01*
X60031Y-53416D01*
X60031Y-53682D01*
X60132Y-53928D01*
X60228Y-54023D01*
X60228Y-54150D01*
X60263Y-54330D01*
X60366Y-54483D01*
X60716Y-54833D01*
X60869Y-54936D01*
X60869Y-54936D01*
X61050Y-54972D01*
X63700Y-54972D01*
X63880Y-54936D01*
X63880Y-54936D01*
X64033Y-54833D01*
X64983Y-53883D01*
X65086Y-53730D01*
X65122Y-53550D01*
X65122Y-55200D01*
X59918Y-55200D01*
X59918Y-51909D01*
X59535Y-51525D01*
X59151Y-51909D01*
X59180Y-52019D01*
X59410Y-52114D01*
X59659Y-52115D01*
X59889Y-52019D01*
X59889Y-52019D01*
X59918Y-51909D01*
X59918Y-55200D01*
X55485Y-55200D01*
X55485Y-54736D01*
X55485Y-54230D01*
X54978Y-54230D01*
X54910Y-54298D01*
X54910Y-54475D01*
X54910Y-54584D01*
X54952Y-54685D01*
X55029Y-54763D01*
X55130Y-54804D01*
X55416Y-54804D01*
X55485Y-54736D01*
X55485Y-55200D01*
X48025Y-55200D01*
X48025Y-38856D01*
X48025Y-38350D01*
X47518Y-38350D01*
X47450Y-38418D01*
X47450Y-38704D01*
X47491Y-38805D01*
X47569Y-38882D01*
X47670Y-38924D01*
X47779Y-38924D01*
X47956Y-38924D01*
X48025Y-38856D01*
X48025Y-55200D01*
X47020Y-55200D01*
X47020Y-21960D01*
X59798Y-21960D01*
X59798Y-23100D01*
X60830Y-23100D01*
X60830Y-24155D01*
X64329Y-24155D01*
X64329Y-23100D01*
X65440Y-23100D01*
X65440Y-28678D01*
X63955Y-27194D01*
X63815Y-27100D01*
X63650Y-27067D01*
X59604Y-27067D01*
X59604Y-24665D01*
X59604Y-22411D01*
X59604Y-22302D01*
X59562Y-22201D01*
X59485Y-22124D01*
X59384Y-22082D01*
X56273Y-22082D01*
X56205Y-22151D01*
X56205Y-23513D01*
X59535Y-23513D01*
X59604Y-23444D01*
X59604Y-22411D01*
X59604Y-24665D01*
X59604Y-23632D01*
X59535Y-23563D01*
X56205Y-23563D01*
X56205Y-24925D01*
X56273Y-24994D01*
X59384Y-24994D01*
X59485Y-24952D01*
X59562Y-24875D01*
X59604Y-24774D01*
X59604Y-24665D01*
X59604Y-27067D01*
X57700Y-27067D01*
X57534Y-27100D01*
X57394Y-27194D01*
X56884Y-27704D01*
X56790Y-27844D01*
X56757Y-28010D01*
X56757Y-29942D01*
X56677Y-30063D01*
X56575Y-29924D01*
X56380Y-29806D01*
X56296Y-29782D01*
X56205Y-29840D01*
X56205Y-30415D01*
X56212Y-30415D01*
X56212Y-30465D01*
X56205Y-30465D01*
X56205Y-30472D01*
X56155Y-30472D01*
X56155Y-30465D01*
X56147Y-30465D01*
X56147Y-30415D01*
X56155Y-30415D01*
X56155Y-29840D01*
X56155Y-24925D01*
X56155Y-23563D01*
X56155Y-23513D01*
X56155Y-22151D01*
X56086Y-22082D01*
X52975Y-22082D01*
X52874Y-22124D01*
X52797Y-22201D01*
X52755Y-22302D01*
X52755Y-22411D01*
X52755Y-23444D01*
X52824Y-23513D01*
X56155Y-23513D01*
X56155Y-23563D01*
X52824Y-23563D01*
X52755Y-23632D01*
X52755Y-24665D01*
X52755Y-24774D01*
X52797Y-24875D01*
X52874Y-24952D01*
X52975Y-24994D01*
X56086Y-24994D01*
X56155Y-24925D01*
X56155Y-29840D01*
X56063Y-29782D01*
X55979Y-29806D01*
X55784Y-29924D01*
X55682Y-30063D01*
X55593Y-29929D01*
X55403Y-29802D01*
X55180Y-29758D01*
X54956Y-29802D01*
X54766Y-29929D01*
X54705Y-30021D01*
X54705Y-28730D01*
X54665Y-28529D01*
X54551Y-28358D01*
X54171Y-27978D01*
X54000Y-27864D01*
X53800Y-27825D01*
X50669Y-27825D01*
X50487Y-27825D01*
X50498Y-27813D01*
X50450Y-27765D01*
X50565Y-27730D01*
X50668Y-27484D01*
X50669Y-27218D01*
X50567Y-26972D01*
X50565Y-26969D01*
X50450Y-26934D01*
X50415Y-26969D01*
X50415Y-26899D01*
X50380Y-26784D01*
X50134Y-26681D01*
X49868Y-26680D01*
X49622Y-26782D01*
X49619Y-26784D01*
X49584Y-26899D01*
X50000Y-27314D01*
X50415Y-26899D01*
X50415Y-26969D01*
X50035Y-27350D01*
X50040Y-27355D01*
X50005Y-27390D01*
X50000Y-27385D01*
X49964Y-27420D01*
X49964Y-27350D01*
X49549Y-26934D01*
X49434Y-26969D01*
X49331Y-27215D01*
X49330Y-27481D01*
X49432Y-27727D01*
X49434Y-27730D01*
X49549Y-27765D01*
X49964Y-27350D01*
X49964Y-27420D01*
X49584Y-27800D01*
X49589Y-27815D01*
X49561Y-27842D01*
X49561Y-27842D01*
X49449Y-27864D01*
X49278Y-27978D01*
X48768Y-28488D01*
X48654Y-28659D01*
X48615Y-28860D01*
X48615Y-35944D01*
X48429Y-35758D01*
X48183Y-35656D01*
X47917Y-35656D01*
X47671Y-35757D01*
X47483Y-35945D01*
X47381Y-36191D01*
X47381Y-36457D01*
X47482Y-36703D01*
X47638Y-36859D01*
X47634Y-36874D01*
X48050Y-37289D01*
X48465Y-36874D01*
X48460Y-36859D01*
X48615Y-36705D01*
X48615Y-36944D01*
X48500Y-36909D01*
X48085Y-37325D01*
X48090Y-37330D01*
X48055Y-37365D01*
X48050Y-37360D01*
X48044Y-37365D01*
X48014Y-37336D01*
X48009Y-37330D01*
X48014Y-37325D01*
X47599Y-36909D01*
X47484Y-36944D01*
X47381Y-37190D01*
X47380Y-37456D01*
X47482Y-37702D01*
X47484Y-37705D01*
X47599Y-37740D01*
X47574Y-37764D01*
X47569Y-37767D01*
X47491Y-37844D01*
X47450Y-37945D01*
X47450Y-38231D01*
X47518Y-38300D01*
X48025Y-38300D01*
X48025Y-38292D01*
X48075Y-38292D01*
X48075Y-38300D01*
X48581Y-38300D01*
X48649Y-38231D01*
X48649Y-37945D01*
X48608Y-37844D01*
X48530Y-37767D01*
X48525Y-37764D01*
X48500Y-37740D01*
X48615Y-37705D01*
X48678Y-37555D01*
X48768Y-37691D01*
X49455Y-38377D01*
X49455Y-45652D01*
X49409Y-45697D01*
X49380Y-45586D01*
X49150Y-45491D01*
X48901Y-45491D01*
X48672Y-45586D01*
X48672Y-45586D01*
X48649Y-45668D01*
X48649Y-38704D01*
X48649Y-38418D01*
X48581Y-38350D01*
X48075Y-38350D01*
X48075Y-38856D01*
X48143Y-38924D01*
X48320Y-38924D01*
X48429Y-38924D01*
X48530Y-38882D01*
X48608Y-38805D01*
X48649Y-38704D01*
X48649Y-45668D01*
X48642Y-45697D01*
X49026Y-46081D01*
X49031Y-46075D01*
X49066Y-46111D01*
X49061Y-46116D01*
X49066Y-46122D01*
X49031Y-46157D01*
X49026Y-46151D01*
X48990Y-46187D01*
X48990Y-46116D01*
X48606Y-45732D01*
X48496Y-45762D01*
X48401Y-45992D01*
X48401Y-46240D01*
X48496Y-46470D01*
X48496Y-46470D01*
X48606Y-46500D01*
X48990Y-46116D01*
X48990Y-46187D01*
X48642Y-46535D01*
X48672Y-46646D01*
X48901Y-46741D01*
X49150Y-46741D01*
X49380Y-46646D01*
X49380Y-46646D01*
X49409Y-46535D01*
X49409Y-46535D01*
X49455Y-46580D01*
X49455Y-47454D01*
X49413Y-47495D01*
X49409Y-47481D01*
X49384Y-47385D01*
X49154Y-47290D01*
X48905Y-47289D01*
X48675Y-47385D01*
X48675Y-47385D01*
X48646Y-47495D01*
X49030Y-47879D01*
X49035Y-47874D01*
X49070Y-47909D01*
X49065Y-47915D01*
X49070Y-47920D01*
X49035Y-47955D01*
X49030Y-47950D01*
X48994Y-47985D01*
X48994Y-47915D01*
X48610Y-47531D01*
X48500Y-47560D01*
X48405Y-47790D01*
X48404Y-48039D01*
X48500Y-48269D01*
X48500Y-48269D01*
X48610Y-48298D01*
X48994Y-47915D01*
X48994Y-47985D01*
X48646Y-48334D01*
X48675Y-48444D01*
X48905Y-48539D01*
X49154Y-48540D01*
X49384Y-48444D01*
X49384Y-48444D01*
X49413Y-48334D01*
X49413Y-48334D01*
X49455Y-48375D01*
X49455Y-48547D01*
X49413Y-48588D01*
X48912Y-49089D01*
X48625Y-49089D01*
X48524Y-49131D01*
X48447Y-49209D01*
X48405Y-49310D01*
X48404Y-49419D01*
X48404Y-50119D01*
X48446Y-50220D01*
X48505Y-50278D01*
X48505Y-50951D01*
X48447Y-51009D01*
X48405Y-51110D01*
X48404Y-51219D01*
X48404Y-51919D01*
X48446Y-52020D01*
X48524Y-52097D01*
X48558Y-52112D01*
X48558Y-53410D01*
X48593Y-53590D01*
X48696Y-53743D01*
X49706Y-54753D01*
X49706Y-54753D01*
X49859Y-54856D01*
X50040Y-54892D01*
X53460Y-54892D01*
X53640Y-54856D01*
X53640Y-54856D01*
X53793Y-54753D01*
X54735Y-53812D01*
X54915Y-53812D01*
X54910Y-53825D01*
X54910Y-53934D01*
X54910Y-54111D01*
X54978Y-54180D01*
X55485Y-54180D01*
X55485Y-54172D01*
X55535Y-54172D01*
X55535Y-54180D01*
X55542Y-54180D01*
X55542Y-54230D01*
X55535Y-54230D01*
X55535Y-54736D01*
X55603Y-54804D01*
X55889Y-54804D01*
X55990Y-54763D01*
X56056Y-54697D01*
X56130Y-54771D01*
X56376Y-54873D01*
X56642Y-54873D01*
X56888Y-54772D01*
X57076Y-54584D01*
X57178Y-54338D01*
X57178Y-54072D01*
X57110Y-53907D01*
X57195Y-53822D01*
X57550Y-53822D01*
X57730Y-53786D01*
X57730Y-53786D01*
X57883Y-53683D01*
X58783Y-52783D01*
X58886Y-52630D01*
X58922Y-52450D01*
X58922Y-51643D01*
X59005Y-51844D01*
X59005Y-51844D01*
X59115Y-51873D01*
X59499Y-51490D01*
X59115Y-51106D01*
X59005Y-51135D01*
X58922Y-51336D01*
X58922Y-49843D01*
X59005Y-50044D01*
X59005Y-50044D01*
X59115Y-50073D01*
X59499Y-49690D01*
X59115Y-49306D01*
X59005Y-49335D01*
X58922Y-49536D01*
X58922Y-49280D01*
X59562Y-48640D01*
X59924Y-48640D01*
X60025Y-48598D01*
X60103Y-48521D01*
X60144Y-48420D01*
X60145Y-48310D01*
X60145Y-47610D01*
X60103Y-47509D01*
X60045Y-47451D01*
X60045Y-46868D01*
X60117Y-46795D01*
X60159Y-46694D01*
X60160Y-46585D01*
X60160Y-45885D01*
X60118Y-45784D01*
X60040Y-45707D01*
X59939Y-45665D01*
X59830Y-45664D01*
X59130Y-45664D01*
X59029Y-45706D01*
X58952Y-45784D01*
X58910Y-45885D01*
X58909Y-45994D01*
X58909Y-46694D01*
X58951Y-46795D01*
X58995Y-46838D01*
X58995Y-47451D01*
X58937Y-47509D01*
X58895Y-47610D01*
X58894Y-47719D01*
X58894Y-47972D01*
X58116Y-48751D01*
X58013Y-48904D01*
X57978Y-49085D01*
X57978Y-52254D01*
X57354Y-52878D01*
X57000Y-52878D01*
X56819Y-52913D01*
X56666Y-53016D01*
X56575Y-53107D01*
X56473Y-53006D01*
X56320Y-52903D01*
X56140Y-52868D01*
X54540Y-52868D01*
X54359Y-52903D01*
X54206Y-53006D01*
X53264Y-53948D01*
X52437Y-53948D01*
X52533Y-53883D01*
X53363Y-53053D01*
X53466Y-52900D01*
X53466Y-52900D01*
X53502Y-52720D01*
X53502Y-51926D01*
X53559Y-51869D01*
X53654Y-51639D01*
X53654Y-51557D01*
X54283Y-50928D01*
X54386Y-50775D01*
X54422Y-50595D01*
X54422Y-46950D01*
X54386Y-46769D01*
X54386Y-46769D01*
X54283Y-46616D01*
X53738Y-46071D01*
X54023Y-45786D01*
X54126Y-45633D01*
X54126Y-45633D01*
X54162Y-45452D01*
X54162Y-31848D01*
X54179Y-31821D01*
X54257Y-31937D01*
X54257Y-39490D01*
X54290Y-39655D01*
X54384Y-39795D01*
X57619Y-43030D01*
X57759Y-43124D01*
X57925Y-43157D01*
X59672Y-43157D01*
X59691Y-43205D01*
X59769Y-43282D01*
X59870Y-43324D01*
X59979Y-43324D01*
X60629Y-43324D01*
X60730Y-43283D01*
X60796Y-43217D01*
X60870Y-43291D01*
X61116Y-43393D01*
X61382Y-43393D01*
X61628Y-43292D01*
X61763Y-43157D01*
X64375Y-43157D01*
X64540Y-43124D01*
X64680Y-43030D01*
X65440Y-42271D01*
X65440Y-55200D01*
M02*
