M48
;DRILL file {Pcbnew (2013-mar-13)-testing} date Thu 20 Jun 2013 07:04:49 PM UYT
;FORMAT={-:-/ absolute / metric / decimal}
FMAT,2
METRIC,TZ
T1C0.800
T2C0.813
T3C1.016
T4C3.850
%
G90
G05
M71
T1
X122.047Y-92.265
X122.047Y-94.805
X122.047Y-97.346
X128.969Y-86.55
X140.157Y-77.318
X142.697Y-71.069
X142.697Y-77.318
X144.018Y-95.758
X149.25Y-84.836
X150.317Y-77.318
X151.587Y-79.858
X160.63Y-77.318
X161.341Y-121.959
T2
X133.807Y-79.858
X135.077Y-77.318
X136.347Y-79.858
X137.617Y-77.318
X138.887Y-79.858
X140.157Y-77.318
X141.427Y-79.858
X142.697Y-77.318
X143.967Y-79.858
X145.237Y-77.318
X146.507Y-79.858
X147.777Y-77.318
X149.047Y-79.858
X150.317Y-77.318
X151.587Y-79.858
T3
X122.047Y-92.265
X122.047Y-94.805
X122.047Y-97.346
X124.526Y-117.136
X124.536Y-121.704
X124.536Y-126.276
X124.536Y-130.848
X127.Y-69.469
X127.Y-72.009
X127.762Y-136.017
X128.969Y-86.55
X128.969Y-89.09
X130.302Y-136.017
X134.686Y-117.136
X134.696Y-121.704
X134.696Y-126.276
X134.696Y-130.848
X140.995Y-137.681
X143.535Y-137.681
X144.018Y-95.758
X146.558Y-95.758
X151.181Y-121.959
X151.219Y-117.577
X151.219Y-126.213
X151.219Y-130.785
X152.654Y-88.011
X152.654Y-90.551
X153.035Y-105.981
X153.035Y-108.521
X154.178Y-136.017
X155.575Y-105.981
X155.575Y-108.521
X156.654Y-101.6
X156.718Y-136.017
X159.195Y-101.6
X161.341Y-121.959
X161.379Y-117.577
X161.379Y-126.213
X161.379Y-130.785
X161.734Y-101.6
T4
X142.697Y-59.288
T0
M30
