G04 (created by PCBNEW (2012-nov-02)-testing) date lun 29 abr 2013 20:18:49 UYT*
%MOIN*%
G04 Gerber Fmt 3.4, Leading zero omitted, Abs format*
%FSLAX34Y34*%
G01*
G70*
G90*
G04 APERTURE LIST*
%ADD10C,2.3622e-06*%
%ADD11C,0.015*%
%ADD12C,0.00515748*%
%ADD13C,0.0100787*%
%ADD14R,0.0649606X0.0649606*%
%ADD15C,0.0787402*%
%ADD16C,0.07*%
%ADD17R,0.07X0.07*%
%ADD18O,0.062X0.09*%
%ADD19R,0.062X0.09*%
%ADD20C,0.0591*%
%ADD21C,0.0315*%
%ADD22C,0.0275591*%
%ADD23C,0.01*%
G04 APERTURE END LIST*
G54D10*
G54D11*
X46230Y-55545D02*
X46230Y-21611D01*
X66330Y-55545D02*
X46230Y-55545D01*
X66330Y-21611D02*
X66330Y-55545D01*
X46230Y-21611D02*
X66330Y-21611D01*
G54D12*
X63912Y-24477D02*
X63981Y-24209D01*
X64030Y-24477D02*
X64030Y-23913D01*
X63951Y-23913D01*
X63932Y-23940D01*
X63922Y-23967D01*
X63912Y-24021D01*
X63912Y-24101D01*
X63922Y-24155D01*
X63932Y-24182D01*
X63951Y-24209D01*
X64030Y-24209D01*
X63834Y-23967D02*
X63824Y-23940D01*
X63804Y-23913D01*
X63755Y-23913D01*
X63735Y-23940D01*
X63725Y-23967D01*
X63716Y-24021D01*
X63716Y-24074D01*
X63725Y-24155D01*
X63843Y-24477D01*
X63716Y-24477D01*
X63617Y-24477D02*
X63578Y-24477D01*
X63558Y-24450D01*
X63549Y-24423D01*
X63529Y-24343D01*
X63519Y-24235D01*
X63519Y-24021D01*
X63529Y-23967D01*
X63539Y-23940D01*
X63558Y-23913D01*
X63598Y-23913D01*
X63617Y-23940D01*
X63627Y-23967D01*
X63637Y-24021D01*
X63637Y-24155D01*
X63627Y-24209D01*
X63617Y-24235D01*
X63598Y-24262D01*
X63558Y-24262D01*
X63539Y-24235D01*
X63529Y-24209D01*
X63519Y-24155D01*
X63391Y-23913D02*
X63372Y-23913D01*
X63352Y-23940D01*
X63342Y-23967D01*
X63333Y-24021D01*
X63323Y-24128D01*
X63323Y-24262D01*
X63333Y-24370D01*
X63342Y-24423D01*
X63352Y-24450D01*
X63372Y-24477D01*
X63391Y-24477D01*
X63411Y-24450D01*
X63421Y-24423D01*
X63431Y-24370D01*
X63441Y-24262D01*
X63441Y-24128D01*
X63431Y-24021D01*
X63421Y-23967D01*
X63411Y-23940D01*
X63391Y-23913D01*
X63146Y-24101D02*
X63146Y-24477D01*
X63195Y-23886D02*
X63244Y-24289D01*
X63116Y-24289D01*
X63048Y-23967D02*
X63038Y-23940D01*
X63018Y-23913D01*
X62969Y-23913D01*
X62949Y-23940D01*
X62940Y-23967D01*
X62930Y-24021D01*
X62930Y-24074D01*
X62940Y-24155D01*
X63057Y-24477D01*
X62930Y-24477D01*
X62802Y-23913D02*
X62782Y-23913D01*
X62763Y-23940D01*
X62753Y-23967D01*
X62743Y-24021D01*
X62733Y-24128D01*
X62733Y-24262D01*
X62743Y-24370D01*
X62753Y-24423D01*
X62763Y-24450D01*
X62782Y-24477D01*
X62802Y-24477D01*
X62822Y-24450D01*
X62832Y-24423D01*
X62841Y-24370D01*
X62851Y-24262D01*
X62851Y-24128D01*
X62841Y-24021D01*
X62832Y-23967D01*
X62822Y-23940D01*
X62802Y-23913D01*
X62537Y-24477D02*
X62655Y-24477D01*
X62596Y-24477D02*
X62596Y-23913D01*
X62615Y-23994D01*
X62635Y-24048D01*
X62655Y-24074D01*
X62468Y-23913D02*
X62340Y-23913D01*
X62409Y-24128D01*
X62380Y-24128D01*
X62360Y-24155D01*
X62350Y-24182D01*
X62340Y-24235D01*
X62340Y-24370D01*
X62350Y-24423D01*
X62360Y-24450D01*
X62380Y-24477D01*
X62439Y-24477D01*
X62458Y-24450D01*
X62468Y-24423D01*
X61800Y-24101D02*
X61751Y-24477D01*
X61702Y-24101D01*
X61515Y-24477D02*
X61633Y-24477D01*
X61574Y-24477D02*
X61574Y-23913D01*
X61594Y-23994D01*
X61613Y-24048D01*
X61633Y-24074D01*
X61427Y-24423D02*
X61417Y-24450D01*
X61427Y-24477D01*
X61437Y-24450D01*
X61427Y-24423D01*
X61427Y-24477D01*
X61220Y-24477D02*
X61338Y-24477D01*
X61279Y-24477D02*
X61279Y-23913D01*
X61299Y-23994D01*
X61319Y-24048D01*
X61338Y-24074D01*
G54D13*
X64998Y-23338D02*
X64998Y-22774D01*
X64998Y-23042D02*
X64768Y-23042D01*
X64768Y-23338D02*
X64768Y-22774D01*
X64576Y-23123D02*
X64268Y-23123D01*
X63942Y-23042D02*
X63885Y-23069D01*
X63865Y-23096D01*
X63846Y-23150D01*
X63846Y-23230D01*
X63865Y-23284D01*
X63885Y-23311D01*
X63923Y-23338D01*
X64077Y-23338D01*
X64077Y-22774D01*
X63942Y-22774D01*
X63904Y-22801D01*
X63885Y-22828D01*
X63865Y-22881D01*
X63865Y-22935D01*
X63885Y-22989D01*
X63904Y-23016D01*
X63942Y-23042D01*
X64077Y-23042D01*
X63673Y-23338D02*
X63673Y-22962D01*
X63673Y-23069D02*
X63654Y-23016D01*
X63635Y-22989D01*
X63597Y-22962D01*
X63558Y-22962D01*
X63424Y-23338D02*
X63424Y-22962D01*
X63424Y-22774D02*
X63443Y-22801D01*
X63424Y-22828D01*
X63405Y-22801D01*
X63424Y-22774D01*
X63424Y-22828D01*
X63059Y-23338D02*
X63059Y-22774D01*
X63059Y-23311D02*
X63097Y-23338D01*
X63174Y-23338D01*
X63213Y-23311D01*
X63232Y-23284D01*
X63251Y-23230D01*
X63251Y-23069D01*
X63232Y-23016D01*
X63213Y-22989D01*
X63174Y-22962D01*
X63097Y-22962D01*
X63059Y-22989D01*
X62694Y-22962D02*
X62694Y-23418D01*
X62713Y-23472D01*
X62733Y-23499D01*
X62771Y-23526D01*
X62829Y-23526D01*
X62867Y-23499D01*
X62694Y-23311D02*
X62733Y-23338D01*
X62809Y-23338D01*
X62848Y-23311D01*
X62867Y-23284D01*
X62886Y-23230D01*
X62886Y-23069D01*
X62867Y-23016D01*
X62848Y-22989D01*
X62809Y-22962D01*
X62733Y-22962D01*
X62694Y-22989D01*
X62349Y-23311D02*
X62387Y-23338D01*
X62464Y-23338D01*
X62502Y-23311D01*
X62522Y-23257D01*
X62522Y-23042D01*
X62502Y-22989D01*
X62464Y-22962D01*
X62387Y-22962D01*
X62349Y-22989D01*
X62330Y-23042D01*
X62330Y-23096D01*
X62522Y-23150D01*
X61658Y-23338D02*
X61850Y-23338D01*
X61850Y-22774D01*
X61542Y-22828D02*
X61523Y-22801D01*
X61485Y-22774D01*
X61389Y-22774D01*
X61350Y-22801D01*
X61331Y-22828D01*
X61312Y-22881D01*
X61312Y-22935D01*
X61331Y-23016D01*
X61562Y-23338D01*
X61312Y-23338D01*
X61120Y-23338D02*
X61043Y-23338D01*
X61005Y-23311D01*
X60986Y-23284D01*
X60947Y-23203D01*
X60928Y-23096D01*
X60928Y-22881D01*
X60947Y-22828D01*
X60967Y-22801D01*
X61005Y-22774D01*
X61082Y-22774D01*
X61120Y-22801D01*
X61139Y-22828D01*
X61158Y-22881D01*
X61158Y-23016D01*
X61139Y-23069D01*
X61120Y-23096D01*
X61082Y-23123D01*
X61005Y-23123D01*
X60967Y-23096D01*
X60947Y-23069D01*
X60928Y-23016D01*
X60698Y-23016D02*
X60736Y-22989D01*
X60755Y-22962D01*
X60775Y-22908D01*
X60775Y-22881D01*
X60755Y-22828D01*
X60736Y-22801D01*
X60698Y-22774D01*
X60621Y-22774D01*
X60583Y-22801D01*
X60563Y-22828D01*
X60544Y-22881D01*
X60544Y-22908D01*
X60563Y-22962D01*
X60583Y-22989D01*
X60621Y-23016D01*
X60698Y-23016D01*
X60736Y-23042D01*
X60755Y-23069D01*
X60775Y-23123D01*
X60775Y-23230D01*
X60755Y-23284D01*
X60736Y-23311D01*
X60698Y-23338D01*
X60621Y-23338D01*
X60583Y-23311D01*
X60563Y-23284D01*
X60544Y-23230D01*
X60544Y-23123D01*
X60563Y-23069D01*
X60583Y-23042D01*
X60621Y-23016D01*
X60371Y-23338D02*
X60371Y-22774D01*
X60141Y-23338D01*
X60141Y-22774D01*
G54D14*
X61675Y-40000D03*
G54D15*
X62675Y-40000D03*
X63675Y-40000D03*
G54D14*
X60250Y-42725D03*
G54D15*
X60250Y-41725D03*
X61250Y-42725D03*
X61250Y-41725D03*
G54D14*
X55510Y-54205D03*
G54D15*
X56510Y-54205D03*
G54D14*
X61700Y-53550D03*
G54D15*
X60700Y-53550D03*
G54D14*
X50300Y-53550D03*
G54D15*
X51300Y-53550D03*
G54D16*
X59535Y-49690D03*
G54D17*
X63535Y-49690D03*
G54D16*
X59535Y-51490D03*
G54D17*
X63535Y-51490D03*
G54D16*
X63535Y-46290D03*
G54D17*
X59535Y-46290D03*
G54D16*
X63520Y-48015D03*
G54D17*
X59520Y-48015D03*
G54D16*
X49026Y-46116D03*
G54D17*
X53026Y-46116D03*
G54D16*
X49030Y-47915D03*
G54D17*
X53030Y-47915D03*
G54D16*
X53030Y-49715D03*
G54D17*
X49030Y-49715D03*
G54D16*
X53030Y-51515D03*
G54D17*
X49030Y-51515D03*
G54D18*
X59690Y-31445D03*
X59190Y-29445D03*
X58690Y-31445D03*
X58190Y-29445D03*
X57690Y-31445D03*
X57190Y-29445D03*
X56690Y-31445D03*
X56190Y-29445D03*
X55690Y-31445D03*
X55190Y-29445D03*
X54690Y-31445D03*
X54190Y-29445D03*
X53690Y-31445D03*
X53190Y-29445D03*
G54D19*
X52690Y-31445D03*
G54D14*
X48050Y-38325D03*
G54D15*
X48050Y-37325D03*
X48050Y-36325D03*
G54D14*
X50775Y-35075D03*
G54D15*
X50775Y-34075D03*
G54D14*
X60100Y-35650D03*
G54D15*
X60100Y-34650D03*
X50000Y-27350D03*
X50000Y-28350D03*
X57700Y-37700D03*
X56700Y-37700D03*
G54D20*
X62200Y-26720D03*
X62200Y-30320D03*
X59450Y-38600D03*
X59250Y-44550D03*
X63650Y-30300D03*
X65800Y-30350D03*
G54D21*
X55190Y-29445D02*
X55190Y-29660D01*
X50775Y-30615D02*
X50775Y-34075D01*
X51140Y-30250D02*
X50775Y-30615D01*
X54600Y-30250D02*
X51140Y-30250D01*
X55190Y-29660D02*
X54600Y-30250D01*
X60100Y-34650D02*
X58850Y-34650D01*
X57690Y-33490D02*
X57690Y-31445D01*
X58850Y-34650D02*
X57690Y-33490D01*
X50000Y-27350D02*
X49510Y-27350D01*
X49720Y-45422D02*
X49026Y-46116D01*
X49720Y-39220D02*
X49720Y-45422D01*
X48840Y-38340D02*
X49720Y-39220D01*
X48840Y-28020D02*
X48840Y-38340D01*
X49510Y-27350D02*
X48840Y-28020D01*
X52690Y-31445D02*
X52690Y-31160D01*
X56190Y-29960D02*
X56190Y-29445D01*
X55450Y-30700D02*
X56190Y-29960D01*
X53150Y-30700D02*
X55450Y-30700D01*
X52690Y-31160D02*
X53150Y-30700D01*
X55510Y-54205D02*
X55510Y-54610D01*
X59535Y-54415D02*
X59535Y-51490D01*
X58900Y-55050D02*
X59535Y-54415D01*
X55950Y-55050D02*
X58900Y-55050D01*
X55510Y-54610D02*
X55950Y-55050D01*
G54D22*
X59535Y-51490D02*
X59535Y-49690D01*
G54D21*
X50000Y-27350D02*
X55550Y-27350D01*
X55550Y-27350D02*
X56190Y-27990D01*
X56190Y-27990D02*
X56190Y-29445D01*
X57700Y-37700D02*
X57700Y-38100D01*
X59600Y-40000D02*
X61675Y-40000D01*
X57700Y-38100D02*
X59600Y-40000D01*
X55510Y-54205D02*
X54975Y-54205D01*
X48060Y-48885D02*
X49030Y-47915D01*
X48060Y-53500D02*
X48060Y-48885D01*
X49600Y-55040D02*
X48060Y-53500D01*
X54140Y-55040D02*
X49600Y-55040D01*
X54975Y-54205D02*
X54140Y-55040D01*
G54D22*
X61670Y-39825D02*
X61670Y-33005D01*
X60110Y-31445D02*
X59690Y-31445D01*
X61670Y-33005D02*
X60110Y-31445D01*
X59690Y-31445D02*
X59690Y-30865D01*
X56730Y-30465D02*
X56190Y-29925D01*
X59290Y-30465D02*
X56730Y-30465D01*
X59690Y-30865D02*
X59290Y-30465D01*
X56190Y-29925D02*
X56190Y-29445D01*
X56190Y-29925D02*
X56190Y-29445D01*
X49030Y-47915D02*
X49030Y-46120D01*
X49030Y-46120D02*
X49026Y-46116D01*
G54D21*
X63675Y-40000D02*
X63675Y-31795D01*
X48050Y-27132D02*
X48050Y-36325D01*
X49042Y-26140D02*
X48050Y-27132D01*
X61620Y-26140D02*
X49042Y-26140D01*
X62200Y-26720D02*
X61620Y-26140D01*
X63675Y-31795D02*
X62200Y-30320D01*
X56700Y-37700D02*
X56700Y-31455D01*
X56700Y-31455D02*
X56690Y-31445D01*
X56690Y-38440D02*
X56690Y-37710D01*
X63675Y-40475D02*
X63350Y-40800D01*
X63350Y-40800D02*
X59050Y-40800D01*
X59050Y-40800D02*
X56690Y-38440D01*
X63675Y-40000D02*
X63675Y-40475D01*
X56690Y-37710D02*
X56700Y-37700D01*
X60250Y-42725D02*
X57925Y-42725D01*
X54690Y-39490D02*
X54690Y-31445D01*
X57925Y-42725D02*
X54690Y-39490D01*
X60250Y-41725D02*
X58675Y-41725D01*
X55690Y-38740D02*
X55690Y-31445D01*
X58675Y-41725D02*
X55690Y-38740D01*
X61250Y-42725D02*
X64375Y-42725D01*
X57190Y-28010D02*
X57190Y-29445D01*
X57700Y-27500D02*
X57190Y-28010D01*
X63650Y-27500D02*
X57700Y-27500D01*
X65150Y-29000D02*
X63650Y-27500D01*
X65150Y-41950D02*
X65150Y-29000D01*
X64375Y-42725D02*
X65150Y-41950D01*
X61250Y-41725D02*
X64025Y-41725D01*
X58190Y-28660D02*
X58190Y-29445D01*
X58700Y-28150D02*
X58190Y-28660D01*
X63100Y-28150D02*
X58700Y-28150D01*
X64450Y-29500D02*
X63100Y-28150D01*
X64450Y-41300D02*
X64450Y-29500D01*
X64025Y-41725D02*
X64450Y-41300D01*
X53030Y-49715D02*
X53030Y-50020D01*
X50300Y-53100D02*
X50300Y-53550D01*
X50650Y-52750D02*
X50300Y-53100D01*
X51600Y-52750D02*
X50650Y-52750D01*
X52100Y-52250D02*
X51600Y-52750D01*
X52100Y-50950D02*
X52100Y-52250D01*
X53030Y-50020D02*
X52100Y-50950D01*
X53030Y-47915D02*
X52365Y-47915D01*
X50595Y-29445D02*
X53190Y-29445D01*
X50000Y-30040D02*
X50595Y-29445D01*
X50000Y-36950D02*
X50000Y-30040D01*
X51300Y-38250D02*
X50000Y-36950D01*
X51300Y-46850D02*
X51300Y-38250D01*
X52365Y-47915D02*
X51300Y-46850D01*
G54D22*
X53030Y-47915D02*
X53030Y-49715D01*
G54D21*
X51300Y-53550D02*
X52200Y-53550D01*
X53030Y-52720D02*
X53030Y-51515D01*
X52200Y-53550D02*
X53030Y-52720D01*
X53026Y-46116D02*
X53116Y-46116D01*
X53950Y-50595D02*
X53030Y-51515D01*
X53950Y-46950D02*
X53950Y-50595D01*
X53116Y-46116D02*
X53950Y-46950D01*
X53690Y-31445D02*
X53690Y-45452D01*
X53690Y-45452D02*
X53026Y-46116D01*
X59250Y-44550D02*
X61795Y-44550D01*
X58690Y-32240D02*
X59450Y-33000D01*
X59450Y-33000D02*
X60300Y-33000D01*
X60300Y-33000D02*
X61100Y-33800D01*
X61100Y-33800D02*
X61100Y-37800D01*
X61100Y-37800D02*
X60300Y-38600D01*
X60300Y-38600D02*
X59450Y-38600D01*
X58690Y-31445D02*
X58690Y-32240D01*
X61795Y-44550D02*
X63535Y-46290D01*
X63535Y-51490D02*
X63160Y-51490D01*
X62050Y-53550D02*
X61700Y-53550D01*
X62650Y-52950D02*
X62050Y-53550D01*
X62650Y-52000D02*
X62650Y-52950D01*
X63160Y-51490D02*
X62650Y-52000D01*
G54D22*
X63135Y-51490D02*
X62635Y-50990D01*
X62635Y-50990D02*
X62635Y-47190D01*
X63535Y-51490D02*
X63135Y-51490D01*
X62635Y-47190D02*
X63535Y-46290D01*
G54D21*
X63520Y-48015D02*
X64934Y-48015D01*
X62795Y-29445D02*
X63650Y-30300D01*
X65800Y-30350D02*
X65800Y-45250D01*
X62795Y-29445D02*
X59190Y-29445D01*
X64934Y-48015D02*
X65800Y-47150D01*
X65800Y-47150D02*
X65800Y-45250D01*
X60700Y-53550D02*
X60700Y-54150D01*
X64140Y-49690D02*
X63535Y-49690D01*
X64650Y-50200D02*
X64140Y-49690D01*
X64650Y-53550D02*
X64650Y-50200D01*
X63700Y-54500D02*
X64650Y-53550D01*
X61050Y-54500D02*
X63700Y-54500D01*
X60700Y-54150D02*
X61050Y-54500D01*
X63535Y-49690D02*
X63535Y-48030D01*
X63535Y-48030D02*
X63520Y-48015D01*
X56510Y-54205D02*
X56510Y-53840D01*
X58450Y-49085D02*
X59520Y-48015D01*
X58450Y-52450D02*
X58450Y-49085D01*
X57550Y-53350D02*
X58450Y-52450D01*
X57000Y-53350D02*
X57550Y-53350D01*
X56510Y-53840D02*
X57000Y-53350D01*
X50000Y-28350D02*
X49650Y-28350D01*
X50550Y-48195D02*
X49030Y-49715D01*
X50550Y-38730D02*
X50550Y-48195D01*
X49460Y-37640D02*
X50550Y-38730D01*
X49460Y-28540D02*
X49460Y-37640D01*
X49650Y-28350D02*
X49460Y-28540D01*
X54190Y-29445D02*
X54190Y-28740D01*
X53800Y-28350D02*
X50000Y-28350D01*
X54190Y-28740D02*
X53800Y-28350D01*
X56510Y-54205D02*
X56510Y-53710D01*
X49030Y-53410D02*
X49030Y-51515D01*
X50040Y-54420D02*
X49030Y-53410D01*
X53460Y-54420D02*
X50040Y-54420D01*
X54540Y-53340D02*
X53460Y-54420D01*
X56140Y-53340D02*
X54540Y-53340D01*
X56510Y-53710D02*
X56140Y-53340D01*
G54D22*
X59520Y-48015D02*
X59520Y-46304D01*
X59520Y-46304D02*
X59535Y-46290D01*
X49030Y-49715D02*
X49030Y-51515D01*
G54D10*
G36*
X53427Y-47200D02*
X53307Y-47199D01*
X52607Y-47199D01*
X52473Y-47255D01*
X52458Y-47270D01*
X51822Y-46633D01*
X51822Y-38250D01*
X51782Y-38050D01*
X51669Y-37880D01*
X50522Y-36733D01*
X50522Y-35764D01*
X50522Y-35764D01*
X51172Y-35764D01*
X51306Y-35709D01*
X51409Y-35606D01*
X51464Y-35472D01*
X51464Y-35327D01*
X51464Y-34677D01*
X51409Y-34543D01*
X51394Y-34528D01*
X51417Y-34505D01*
X51533Y-34226D01*
X51533Y-33924D01*
X51418Y-33645D01*
X51297Y-33524D01*
X51297Y-30831D01*
X51356Y-30772D01*
X52263Y-30772D01*
X52238Y-30782D01*
X52168Y-30853D01*
X52130Y-30945D01*
X52129Y-31044D01*
X52130Y-31332D01*
X52192Y-31395D01*
X52640Y-31395D01*
X52640Y-31387D01*
X52740Y-31387D01*
X52740Y-31395D01*
X52747Y-31395D01*
X52747Y-31495D01*
X52740Y-31495D01*
X52740Y-32082D01*
X52802Y-32145D01*
X53049Y-32145D01*
X53141Y-32107D01*
X53167Y-32080D01*
X53167Y-45236D01*
X53002Y-45401D01*
X52640Y-45401D01*
X52640Y-32082D01*
X52640Y-31495D01*
X52192Y-31495D01*
X52130Y-31557D01*
X52129Y-31845D01*
X52130Y-31944D01*
X52168Y-32036D01*
X52238Y-32107D01*
X52330Y-32145D01*
X52577Y-32145D01*
X52640Y-32082D01*
X52640Y-45401D01*
X52603Y-45401D01*
X52469Y-45456D01*
X52366Y-45559D01*
X52311Y-45693D01*
X52311Y-45838D01*
X52311Y-46538D01*
X52366Y-46673D01*
X52469Y-46775D01*
X52603Y-46831D01*
X52748Y-46831D01*
X53092Y-46831D01*
X53427Y-47166D01*
X53427Y-47200D01*
X53427Y-47200D01*
G37*
G54D23*
X53427Y-47200D02*
X53307Y-47199D01*
X52607Y-47199D01*
X52473Y-47255D01*
X52458Y-47270D01*
X51822Y-46633D01*
X51822Y-38250D01*
X51782Y-38050D01*
X51669Y-37880D01*
X50522Y-36733D01*
X50522Y-35764D01*
X50522Y-35764D01*
X51172Y-35764D01*
X51306Y-35709D01*
X51409Y-35606D01*
X51464Y-35472D01*
X51464Y-35327D01*
X51464Y-34677D01*
X51409Y-34543D01*
X51394Y-34528D01*
X51417Y-34505D01*
X51533Y-34226D01*
X51533Y-33924D01*
X51418Y-33645D01*
X51297Y-33524D01*
X51297Y-30831D01*
X51356Y-30772D01*
X52263Y-30772D01*
X52238Y-30782D01*
X52168Y-30853D01*
X52130Y-30945D01*
X52129Y-31044D01*
X52130Y-31332D01*
X52192Y-31395D01*
X52640Y-31395D01*
X52640Y-31387D01*
X52740Y-31387D01*
X52740Y-31395D01*
X52747Y-31395D01*
X52747Y-31495D01*
X52740Y-31495D01*
X52740Y-32082D01*
X52802Y-32145D01*
X53049Y-32145D01*
X53141Y-32107D01*
X53167Y-32080D01*
X53167Y-45236D01*
X53002Y-45401D01*
X52640Y-45401D01*
X52640Y-32082D01*
X52640Y-31495D01*
X52192Y-31495D01*
X52130Y-31557D01*
X52129Y-31845D01*
X52130Y-31944D01*
X52168Y-32036D01*
X52238Y-32107D01*
X52330Y-32145D01*
X52577Y-32145D01*
X52640Y-32082D01*
X52640Y-45401D01*
X52603Y-45401D01*
X52469Y-45456D01*
X52366Y-45559D01*
X52311Y-45693D01*
X52311Y-45838D01*
X52311Y-46538D01*
X52366Y-46673D01*
X52469Y-46775D01*
X52603Y-46831D01*
X52748Y-46831D01*
X53092Y-46831D01*
X53427Y-47166D01*
X53427Y-47200D01*
G54D10*
G36*
X65890Y-55105D02*
X59886Y-55105D01*
X59886Y-51912D01*
X59535Y-51560D01*
X59183Y-51912D01*
X59217Y-52012D01*
X59441Y-52094D01*
X59679Y-52084D01*
X59852Y-52012D01*
X59886Y-51912D01*
X59886Y-55105D01*
X55460Y-55105D01*
X55460Y-54717D01*
X55460Y-54255D01*
X54997Y-54255D01*
X54935Y-54317D01*
X54935Y-54480D01*
X54935Y-54579D01*
X54973Y-54671D01*
X55043Y-54741D01*
X55135Y-54779D01*
X55397Y-54779D01*
X55460Y-54717D01*
X55460Y-55105D01*
X46669Y-55105D01*
X46669Y-22050D01*
X65890Y-22050D01*
X65890Y-29689D01*
X65672Y-29689D01*
X65672Y-29000D01*
X65632Y-28800D01*
X65519Y-28630D01*
X65519Y-28630D01*
X65509Y-28620D01*
X65509Y-23920D01*
X65509Y-22199D01*
X59630Y-22199D01*
X59630Y-23920D01*
X60790Y-23920D01*
X60790Y-25034D01*
X64470Y-25034D01*
X64470Y-23920D01*
X65509Y-23920D01*
X65509Y-28620D01*
X64019Y-27130D01*
X63849Y-27017D01*
X63650Y-26977D01*
X62808Y-26977D01*
X62860Y-26851D01*
X62860Y-26589D01*
X62760Y-26346D01*
X62574Y-26160D01*
X62331Y-26059D01*
X62278Y-26059D01*
X61989Y-25770D01*
X61819Y-25657D01*
X61620Y-25617D01*
X49042Y-25617D01*
X48842Y-25657D01*
X48672Y-25770D01*
X47680Y-26762D01*
X47567Y-26932D01*
X47527Y-27132D01*
X47527Y-35774D01*
X47407Y-35894D01*
X47291Y-36173D01*
X47291Y-36475D01*
X47406Y-36754D01*
X47477Y-36824D01*
X47407Y-36894D01*
X47291Y-37173D01*
X47291Y-37475D01*
X47406Y-37754D01*
X47430Y-37778D01*
X47415Y-37793D01*
X47360Y-37927D01*
X47360Y-38072D01*
X47360Y-38722D01*
X47415Y-38856D01*
X47518Y-38959D01*
X47652Y-39014D01*
X47797Y-39014D01*
X48447Y-39014D01*
X48581Y-38959D01*
X48684Y-38856D01*
X48739Y-38722D01*
X48739Y-38577D01*
X48739Y-37927D01*
X48684Y-37793D01*
X48669Y-37778D01*
X48692Y-37755D01*
X48808Y-37476D01*
X48808Y-37174D01*
X48693Y-36895D01*
X48622Y-36825D01*
X48692Y-36755D01*
X48808Y-36476D01*
X48808Y-36174D01*
X48693Y-35895D01*
X48572Y-35774D01*
X48572Y-27348D01*
X49258Y-26662D01*
X61403Y-26662D01*
X61539Y-26798D01*
X61539Y-26850D01*
X61591Y-26977D01*
X57700Y-26977D01*
X57500Y-27017D01*
X57330Y-27130D01*
X56820Y-27640D01*
X56707Y-27810D01*
X56667Y-28010D01*
X56667Y-28879D01*
X56616Y-28955D01*
X56550Y-28873D01*
X56358Y-28768D01*
X56326Y-28761D01*
X56240Y-28810D01*
X56240Y-29395D01*
X56247Y-29395D01*
X56247Y-29495D01*
X56240Y-29495D01*
X56240Y-30079D01*
X56326Y-30128D01*
X56358Y-30121D01*
X56550Y-30016D01*
X56616Y-29934D01*
X56712Y-30078D01*
X56931Y-30224D01*
X57190Y-30275D01*
X57448Y-30224D01*
X57667Y-30078D01*
X57690Y-30044D01*
X57712Y-30078D01*
X57931Y-30224D01*
X58190Y-30275D01*
X58448Y-30224D01*
X58667Y-30078D01*
X58690Y-30044D01*
X58712Y-30078D01*
X58931Y-30224D01*
X59190Y-30275D01*
X59448Y-30224D01*
X59667Y-30078D01*
X59741Y-29967D01*
X61631Y-29967D01*
X61539Y-30188D01*
X61539Y-30450D01*
X61639Y-30693D01*
X61825Y-30879D01*
X62068Y-30980D01*
X62121Y-30980D01*
X63152Y-32011D01*
X63152Y-39404D01*
X63105Y-39357D01*
X62826Y-39241D01*
X62524Y-39241D01*
X62245Y-39356D01*
X62139Y-39462D01*
X62049Y-39425D01*
X61787Y-39425D01*
X61725Y-39487D01*
X61725Y-39950D01*
X61732Y-39950D01*
X61732Y-40050D01*
X61725Y-40050D01*
X61725Y-40057D01*
X61625Y-40057D01*
X61625Y-40050D01*
X61625Y-39950D01*
X61625Y-39487D01*
X61562Y-39425D01*
X61300Y-39425D01*
X61208Y-39463D01*
X61138Y-39533D01*
X61100Y-39625D01*
X61100Y-39724D01*
X61100Y-39887D01*
X61162Y-39950D01*
X61625Y-39950D01*
X61625Y-40050D01*
X61162Y-40050D01*
X61100Y-40112D01*
X61100Y-40275D01*
X61100Y-40277D01*
X59266Y-40277D01*
X58347Y-39359D01*
X58347Y-37804D01*
X58338Y-37548D01*
X58258Y-37355D01*
X58153Y-37316D01*
X57770Y-37700D01*
X58153Y-38083D01*
X58258Y-38044D01*
X58347Y-37804D01*
X58347Y-39359D01*
X57230Y-38242D01*
X57317Y-38155D01*
X57355Y-38258D01*
X57595Y-38347D01*
X57851Y-38338D01*
X58044Y-38258D01*
X58083Y-38153D01*
X57700Y-37770D01*
X57694Y-37776D01*
X57623Y-37705D01*
X57629Y-37700D01*
X57623Y-37694D01*
X57694Y-37623D01*
X57700Y-37629D01*
X58083Y-37246D01*
X58044Y-37141D01*
X57804Y-37052D01*
X57548Y-37061D01*
X57355Y-37141D01*
X57317Y-37244D01*
X57222Y-37149D01*
X57222Y-33712D01*
X57320Y-33859D01*
X58480Y-35019D01*
X58480Y-35019D01*
X58650Y-35132D01*
X58849Y-35172D01*
X58850Y-35172D01*
X59443Y-35172D01*
X59410Y-35252D01*
X59410Y-35397D01*
X59410Y-36047D01*
X59465Y-36181D01*
X59568Y-36284D01*
X59702Y-36339D01*
X59847Y-36339D01*
X60497Y-36339D01*
X60577Y-36306D01*
X60577Y-37583D01*
X60083Y-38077D01*
X59861Y-38077D01*
X59824Y-38040D01*
X59581Y-37939D01*
X59319Y-37939D01*
X59076Y-38039D01*
X58890Y-38225D01*
X58789Y-38468D01*
X58789Y-38730D01*
X58889Y-38973D01*
X59075Y-39159D01*
X59318Y-39260D01*
X59580Y-39260D01*
X59823Y-39160D01*
X59861Y-39122D01*
X60300Y-39122D01*
X60499Y-39082D01*
X60669Y-38969D01*
X61469Y-38169D01*
X61469Y-38169D01*
X61469Y-38169D01*
X61582Y-37999D01*
X61582Y-37999D01*
X61622Y-37800D01*
X61622Y-37800D01*
X61622Y-33800D01*
X61622Y-33799D01*
X61582Y-33600D01*
X61582Y-33600D01*
X61469Y-33430D01*
X61469Y-33430D01*
X60669Y-32630D01*
X60499Y-32517D01*
X60300Y-32477D01*
X60250Y-32477D01*
X60250Y-31635D01*
X60250Y-31495D01*
X60250Y-31395D01*
X60250Y-31255D01*
X60188Y-31044D01*
X60050Y-30873D01*
X59858Y-30768D01*
X59826Y-30761D01*
X59740Y-30810D01*
X59740Y-31395D01*
X60250Y-31395D01*
X60250Y-31495D01*
X59740Y-31495D01*
X59740Y-32079D01*
X59826Y-32128D01*
X59858Y-32121D01*
X60050Y-32016D01*
X60188Y-31845D01*
X60250Y-31635D01*
X60250Y-32477D01*
X59666Y-32477D01*
X59212Y-32023D01*
X59212Y-32010D01*
X59263Y-31934D01*
X59329Y-32016D01*
X59521Y-32121D01*
X59553Y-32128D01*
X59640Y-32079D01*
X59640Y-31495D01*
X59632Y-31495D01*
X59632Y-31395D01*
X59640Y-31395D01*
X59640Y-30810D01*
X59553Y-30761D01*
X59521Y-30768D01*
X59329Y-30873D01*
X59263Y-30955D01*
X59167Y-30811D01*
X58948Y-30665D01*
X58690Y-30614D01*
X58431Y-30665D01*
X58212Y-30811D01*
X58190Y-30845D01*
X58167Y-30811D01*
X57948Y-30665D01*
X57690Y-30614D01*
X57431Y-30665D01*
X57212Y-30811D01*
X57190Y-30845D01*
X57167Y-30811D01*
X56948Y-30665D01*
X56690Y-30614D01*
X56431Y-30665D01*
X56212Y-30811D01*
X56190Y-30845D01*
X56167Y-30811D01*
X55948Y-30665D01*
X55690Y-30614D01*
X55431Y-30665D01*
X55212Y-30811D01*
X55190Y-30845D01*
X55167Y-30811D01*
X54948Y-30665D01*
X54911Y-30658D01*
X54969Y-30619D01*
X55343Y-30245D01*
X55448Y-30224D01*
X55667Y-30078D01*
X55763Y-29934D01*
X55829Y-30016D01*
X56021Y-30121D01*
X56053Y-30128D01*
X56140Y-30079D01*
X56140Y-29495D01*
X56132Y-29495D01*
X56132Y-29395D01*
X56140Y-29395D01*
X56140Y-28810D01*
X56053Y-28761D01*
X56021Y-28768D01*
X55829Y-28873D01*
X55763Y-28955D01*
X55667Y-28811D01*
X55448Y-28665D01*
X55190Y-28614D01*
X54931Y-28665D01*
X54712Y-28811D01*
X54712Y-28812D01*
X54712Y-28740D01*
X54712Y-28739D01*
X54672Y-28540D01*
X54672Y-28540D01*
X54559Y-28370D01*
X54559Y-28370D01*
X54169Y-27980D01*
X53999Y-27867D01*
X53800Y-27827D01*
X50550Y-27827D01*
X50455Y-27732D01*
X50558Y-27694D01*
X50647Y-27454D01*
X50638Y-27198D01*
X50558Y-27005D01*
X50453Y-26966D01*
X50383Y-27037D01*
X50383Y-26896D01*
X50344Y-26791D01*
X50104Y-26702D01*
X49848Y-26711D01*
X49655Y-26791D01*
X49616Y-26896D01*
X50000Y-27279D01*
X50383Y-26896D01*
X50383Y-27037D01*
X50070Y-27350D01*
X50076Y-27355D01*
X50005Y-27426D01*
X50000Y-27420D01*
X49994Y-27426D01*
X49923Y-27355D01*
X49929Y-27350D01*
X49546Y-26966D01*
X49441Y-27005D01*
X49352Y-27245D01*
X49361Y-27501D01*
X49441Y-27694D01*
X49544Y-27732D01*
X49357Y-27919D01*
X49351Y-27933D01*
X49280Y-27980D01*
X49090Y-28170D01*
X48977Y-28340D01*
X48937Y-28540D01*
X48937Y-37640D01*
X48977Y-37839D01*
X49090Y-38009D01*
X50027Y-38946D01*
X50027Y-47978D01*
X49634Y-48371D01*
X49634Y-48008D01*
X49630Y-47916D01*
X49630Y-46210D01*
X49620Y-45971D01*
X49548Y-45798D01*
X49448Y-45765D01*
X49377Y-45835D01*
X49377Y-45694D01*
X49343Y-45593D01*
X49119Y-45512D01*
X48881Y-45522D01*
X48708Y-45593D01*
X48674Y-45694D01*
X49026Y-46045D01*
X49377Y-45694D01*
X49377Y-45835D01*
X49096Y-46116D01*
X49448Y-46467D01*
X49548Y-46434D01*
X49630Y-46210D01*
X49630Y-47916D01*
X49624Y-47770D01*
X49552Y-47597D01*
X49452Y-47563D01*
X49381Y-47634D01*
X49381Y-47492D01*
X49377Y-47481D01*
X49377Y-46538D01*
X49026Y-46187D01*
X48955Y-46257D01*
X48955Y-46116D01*
X48603Y-45765D01*
X48503Y-45798D01*
X48421Y-46022D01*
X48431Y-46261D01*
X48503Y-46434D01*
X48603Y-46467D01*
X48955Y-46116D01*
X48955Y-46257D01*
X48674Y-46538D01*
X48708Y-46639D01*
X48932Y-46721D01*
X49170Y-46710D01*
X49343Y-46639D01*
X49377Y-46538D01*
X49377Y-47481D01*
X49347Y-47392D01*
X49123Y-47310D01*
X48885Y-47320D01*
X48712Y-47392D01*
X48678Y-47492D01*
X49030Y-47844D01*
X49381Y-47492D01*
X49381Y-47634D01*
X49100Y-47915D01*
X49452Y-48266D01*
X49552Y-48232D01*
X49634Y-48008D01*
X49634Y-48371D01*
X49381Y-48624D01*
X49381Y-48337D01*
X49030Y-47985D01*
X48959Y-48056D01*
X48959Y-47915D01*
X48607Y-47563D01*
X48507Y-47597D01*
X48425Y-47821D01*
X48435Y-48059D01*
X48507Y-48232D01*
X48607Y-48266D01*
X48959Y-47915D01*
X48959Y-48056D01*
X48678Y-48337D01*
X48712Y-48437D01*
X48936Y-48519D01*
X49174Y-48509D01*
X49347Y-48437D01*
X49381Y-48337D01*
X49381Y-48624D01*
X49006Y-48999D01*
X48607Y-48999D01*
X48473Y-49055D01*
X48370Y-49157D01*
X48315Y-49292D01*
X48314Y-49437D01*
X48314Y-50137D01*
X48370Y-50271D01*
X48472Y-50374D01*
X48527Y-50396D01*
X48527Y-50833D01*
X48473Y-50855D01*
X48370Y-50957D01*
X48315Y-51092D01*
X48314Y-51237D01*
X48314Y-51937D01*
X48370Y-52071D01*
X48472Y-52174D01*
X48507Y-52188D01*
X48507Y-53410D01*
X48547Y-53609D01*
X48660Y-53779D01*
X49670Y-54789D01*
X49840Y-54902D01*
X50040Y-54942D01*
X53460Y-54942D01*
X53659Y-54902D01*
X53829Y-54789D01*
X54756Y-53862D01*
X54935Y-53862D01*
X54935Y-53929D01*
X54935Y-54092D01*
X54997Y-54155D01*
X55460Y-54155D01*
X55460Y-54147D01*
X55560Y-54147D01*
X55560Y-54155D01*
X55567Y-54155D01*
X55567Y-54255D01*
X55560Y-54255D01*
X55560Y-54717D01*
X55622Y-54779D01*
X55884Y-54779D01*
X55974Y-54742D01*
X56079Y-54847D01*
X56358Y-54963D01*
X56660Y-54963D01*
X56939Y-54848D01*
X57152Y-54635D01*
X57268Y-54356D01*
X57268Y-54054D01*
X57200Y-53888D01*
X57216Y-53872D01*
X57550Y-53872D01*
X57749Y-53832D01*
X57919Y-53719D01*
X58819Y-52819D01*
X58932Y-52649D01*
X58972Y-52450D01*
X58972Y-51711D01*
X59012Y-51807D01*
X59112Y-51841D01*
X59464Y-51490D01*
X59112Y-51138D01*
X59012Y-51172D01*
X58972Y-51281D01*
X58972Y-49911D01*
X59012Y-50007D01*
X59112Y-50041D01*
X59464Y-49690D01*
X59112Y-49338D01*
X59012Y-49372D01*
X58972Y-49481D01*
X58972Y-49301D01*
X59543Y-48730D01*
X59942Y-48730D01*
X60076Y-48674D01*
X60179Y-48572D01*
X60234Y-48438D01*
X60235Y-48292D01*
X60235Y-47592D01*
X60179Y-47458D01*
X60077Y-47355D01*
X60022Y-47333D01*
X60022Y-46977D01*
X60091Y-46949D01*
X60194Y-46847D01*
X60249Y-46712D01*
X60250Y-46567D01*
X60250Y-45867D01*
X60194Y-45733D01*
X60092Y-45630D01*
X59957Y-45575D01*
X59812Y-45574D01*
X59112Y-45574D01*
X58978Y-45630D01*
X58875Y-45732D01*
X58820Y-45867D01*
X58819Y-46012D01*
X58819Y-46712D01*
X58875Y-46846D01*
X58977Y-46949D01*
X59017Y-46965D01*
X59017Y-47333D01*
X58963Y-47355D01*
X58860Y-47458D01*
X58805Y-47592D01*
X58805Y-47737D01*
X58805Y-47991D01*
X58080Y-48715D01*
X57967Y-48885D01*
X57927Y-49085D01*
X57927Y-52233D01*
X57333Y-52827D01*
X57000Y-52827D01*
X56800Y-52867D01*
X56630Y-52980D01*
X56575Y-53036D01*
X56509Y-52970D01*
X56339Y-52857D01*
X56140Y-52817D01*
X54540Y-52817D01*
X54340Y-52857D01*
X54170Y-52970D01*
X53243Y-53897D01*
X52591Y-53897D01*
X53399Y-53089D01*
X53512Y-52919D01*
X53552Y-52720D01*
X53552Y-52003D01*
X53635Y-51920D01*
X53744Y-51657D01*
X53744Y-51538D01*
X54319Y-50964D01*
X54432Y-50794D01*
X54472Y-50595D01*
X54472Y-46950D01*
X54432Y-46750D01*
X54319Y-46580D01*
X54319Y-46580D01*
X53810Y-46071D01*
X54059Y-45822D01*
X54059Y-45822D01*
X54172Y-45652D01*
X54212Y-45452D01*
X54212Y-45452D01*
X54212Y-39697D01*
X54320Y-39859D01*
X57555Y-43094D01*
X57725Y-43207D01*
X57925Y-43247D01*
X59611Y-43247D01*
X59615Y-43256D01*
X59718Y-43359D01*
X59852Y-43414D01*
X59997Y-43414D01*
X60647Y-43414D01*
X60781Y-43359D01*
X60796Y-43344D01*
X60819Y-43367D01*
X61098Y-43483D01*
X61400Y-43483D01*
X61679Y-43368D01*
X61800Y-43247D01*
X64375Y-43247D01*
X64574Y-43207D01*
X64744Y-43094D01*
X65277Y-42561D01*
X65277Y-45250D01*
X65277Y-46933D01*
X64718Y-47492D01*
X64008Y-47492D01*
X63925Y-47409D01*
X63662Y-47300D01*
X63378Y-47300D01*
X63137Y-47399D01*
X63137Y-47398D01*
X63531Y-47004D01*
X63676Y-47005D01*
X63939Y-46896D01*
X64140Y-46695D01*
X64249Y-46432D01*
X64250Y-46148D01*
X64141Y-45885D01*
X63940Y-45684D01*
X63677Y-45575D01*
X63558Y-45575D01*
X62164Y-44180D01*
X61994Y-44067D01*
X61795Y-44027D01*
X59661Y-44027D01*
X59624Y-43990D01*
X59381Y-43889D01*
X59119Y-43889D01*
X58876Y-43989D01*
X58690Y-44175D01*
X58589Y-44418D01*
X58589Y-44680D01*
X58689Y-44923D01*
X58875Y-45109D01*
X59118Y-45210D01*
X59380Y-45210D01*
X59623Y-45110D01*
X59661Y-45072D01*
X61578Y-45072D01*
X62810Y-46303D01*
X62279Y-46834D01*
X62170Y-46997D01*
X62132Y-47190D01*
X62132Y-50990D01*
X62170Y-51182D01*
X62279Y-51345D01*
X62422Y-51488D01*
X62280Y-51630D01*
X62167Y-51800D01*
X62127Y-52000D01*
X62127Y-52733D01*
X62000Y-52860D01*
X61952Y-52860D01*
X61302Y-52860D01*
X61168Y-52915D01*
X61153Y-52930D01*
X61130Y-52907D01*
X60851Y-52791D01*
X60549Y-52791D01*
X60270Y-52906D01*
X60139Y-53037D01*
X60139Y-51583D01*
X60139Y-49783D01*
X60129Y-49545D01*
X60057Y-49372D01*
X59957Y-49338D01*
X59886Y-49409D01*
X59886Y-49267D01*
X59852Y-49167D01*
X59628Y-49085D01*
X59390Y-49095D01*
X59217Y-49167D01*
X59183Y-49267D01*
X59535Y-49619D01*
X59886Y-49267D01*
X59886Y-49409D01*
X59605Y-49690D01*
X59957Y-50041D01*
X60057Y-50007D01*
X60139Y-49783D01*
X60139Y-51583D01*
X60129Y-51345D01*
X60057Y-51172D01*
X59957Y-51138D01*
X59886Y-51209D01*
X59886Y-51067D01*
X59886Y-50112D01*
X59535Y-49760D01*
X59183Y-50112D01*
X59217Y-50212D01*
X59441Y-50294D01*
X59679Y-50284D01*
X59852Y-50212D01*
X59886Y-50112D01*
X59886Y-51067D01*
X59852Y-50967D01*
X59628Y-50885D01*
X59390Y-50895D01*
X59217Y-50967D01*
X59183Y-51067D01*
X59535Y-51419D01*
X59886Y-51067D01*
X59886Y-51209D01*
X59605Y-51490D01*
X59957Y-51841D01*
X60057Y-51807D01*
X60139Y-51583D01*
X60139Y-53037D01*
X60057Y-53119D01*
X59941Y-53398D01*
X59941Y-53700D01*
X60056Y-53979D01*
X60177Y-54100D01*
X60177Y-54150D01*
X60217Y-54349D01*
X60330Y-54519D01*
X60680Y-54869D01*
X60680Y-54869D01*
X60850Y-54982D01*
X61049Y-55022D01*
X61050Y-55022D01*
X63700Y-55022D01*
X63899Y-54982D01*
X64069Y-54869D01*
X65019Y-53919D01*
X65132Y-53749D01*
X65172Y-53550D01*
X65172Y-50200D01*
X65132Y-50000D01*
X65019Y-49830D01*
X64509Y-49320D01*
X64339Y-49207D01*
X64214Y-49182D01*
X64194Y-49133D01*
X64092Y-49030D01*
X64057Y-49016D01*
X64057Y-48537D01*
X64934Y-48537D01*
X65134Y-48497D01*
X65304Y-48384D01*
X65890Y-47798D01*
X65890Y-55105D01*
X65890Y-55105D01*
G37*
G54D23*
X65890Y-55105D02*
X59886Y-55105D01*
X59886Y-51912D01*
X59535Y-51560D01*
X59183Y-51912D01*
X59217Y-52012D01*
X59441Y-52094D01*
X59679Y-52084D01*
X59852Y-52012D01*
X59886Y-51912D01*
X59886Y-55105D01*
X55460Y-55105D01*
X55460Y-54717D01*
X55460Y-54255D01*
X54997Y-54255D01*
X54935Y-54317D01*
X54935Y-54480D01*
X54935Y-54579D01*
X54973Y-54671D01*
X55043Y-54741D01*
X55135Y-54779D01*
X55397Y-54779D01*
X55460Y-54717D01*
X55460Y-55105D01*
X46669Y-55105D01*
X46669Y-22050D01*
X65890Y-22050D01*
X65890Y-29689D01*
X65672Y-29689D01*
X65672Y-29000D01*
X65632Y-28800D01*
X65519Y-28630D01*
X65519Y-28630D01*
X65509Y-28620D01*
X65509Y-23920D01*
X65509Y-22199D01*
X59630Y-22199D01*
X59630Y-23920D01*
X60790Y-23920D01*
X60790Y-25034D01*
X64470Y-25034D01*
X64470Y-23920D01*
X65509Y-23920D01*
X65509Y-28620D01*
X64019Y-27130D01*
X63849Y-27017D01*
X63650Y-26977D01*
X62808Y-26977D01*
X62860Y-26851D01*
X62860Y-26589D01*
X62760Y-26346D01*
X62574Y-26160D01*
X62331Y-26059D01*
X62278Y-26059D01*
X61989Y-25770D01*
X61819Y-25657D01*
X61620Y-25617D01*
X49042Y-25617D01*
X48842Y-25657D01*
X48672Y-25770D01*
X47680Y-26762D01*
X47567Y-26932D01*
X47527Y-27132D01*
X47527Y-35774D01*
X47407Y-35894D01*
X47291Y-36173D01*
X47291Y-36475D01*
X47406Y-36754D01*
X47477Y-36824D01*
X47407Y-36894D01*
X47291Y-37173D01*
X47291Y-37475D01*
X47406Y-37754D01*
X47430Y-37778D01*
X47415Y-37793D01*
X47360Y-37927D01*
X47360Y-38072D01*
X47360Y-38722D01*
X47415Y-38856D01*
X47518Y-38959D01*
X47652Y-39014D01*
X47797Y-39014D01*
X48447Y-39014D01*
X48581Y-38959D01*
X48684Y-38856D01*
X48739Y-38722D01*
X48739Y-38577D01*
X48739Y-37927D01*
X48684Y-37793D01*
X48669Y-37778D01*
X48692Y-37755D01*
X48808Y-37476D01*
X48808Y-37174D01*
X48693Y-36895D01*
X48622Y-36825D01*
X48692Y-36755D01*
X48808Y-36476D01*
X48808Y-36174D01*
X48693Y-35895D01*
X48572Y-35774D01*
X48572Y-27348D01*
X49258Y-26662D01*
X61403Y-26662D01*
X61539Y-26798D01*
X61539Y-26850D01*
X61591Y-26977D01*
X57700Y-26977D01*
X57500Y-27017D01*
X57330Y-27130D01*
X56820Y-27640D01*
X56707Y-27810D01*
X56667Y-28010D01*
X56667Y-28879D01*
X56616Y-28955D01*
X56550Y-28873D01*
X56358Y-28768D01*
X56326Y-28761D01*
X56240Y-28810D01*
X56240Y-29395D01*
X56247Y-29395D01*
X56247Y-29495D01*
X56240Y-29495D01*
X56240Y-30079D01*
X56326Y-30128D01*
X56358Y-30121D01*
X56550Y-30016D01*
X56616Y-29934D01*
X56712Y-30078D01*
X56931Y-30224D01*
X57190Y-30275D01*
X57448Y-30224D01*
X57667Y-30078D01*
X57690Y-30044D01*
X57712Y-30078D01*
X57931Y-30224D01*
X58190Y-30275D01*
X58448Y-30224D01*
X58667Y-30078D01*
X58690Y-30044D01*
X58712Y-30078D01*
X58931Y-30224D01*
X59190Y-30275D01*
X59448Y-30224D01*
X59667Y-30078D01*
X59741Y-29967D01*
X61631Y-29967D01*
X61539Y-30188D01*
X61539Y-30450D01*
X61639Y-30693D01*
X61825Y-30879D01*
X62068Y-30980D01*
X62121Y-30980D01*
X63152Y-32011D01*
X63152Y-39404D01*
X63105Y-39357D01*
X62826Y-39241D01*
X62524Y-39241D01*
X62245Y-39356D01*
X62139Y-39462D01*
X62049Y-39425D01*
X61787Y-39425D01*
X61725Y-39487D01*
X61725Y-39950D01*
X61732Y-39950D01*
X61732Y-40050D01*
X61725Y-40050D01*
X61725Y-40057D01*
X61625Y-40057D01*
X61625Y-40050D01*
X61625Y-39950D01*
X61625Y-39487D01*
X61562Y-39425D01*
X61300Y-39425D01*
X61208Y-39463D01*
X61138Y-39533D01*
X61100Y-39625D01*
X61100Y-39724D01*
X61100Y-39887D01*
X61162Y-39950D01*
X61625Y-39950D01*
X61625Y-40050D01*
X61162Y-40050D01*
X61100Y-40112D01*
X61100Y-40275D01*
X61100Y-40277D01*
X59266Y-40277D01*
X58347Y-39359D01*
X58347Y-37804D01*
X58338Y-37548D01*
X58258Y-37355D01*
X58153Y-37316D01*
X57770Y-37700D01*
X58153Y-38083D01*
X58258Y-38044D01*
X58347Y-37804D01*
X58347Y-39359D01*
X57230Y-38242D01*
X57317Y-38155D01*
X57355Y-38258D01*
X57595Y-38347D01*
X57851Y-38338D01*
X58044Y-38258D01*
X58083Y-38153D01*
X57700Y-37770D01*
X57694Y-37776D01*
X57623Y-37705D01*
X57629Y-37700D01*
X57623Y-37694D01*
X57694Y-37623D01*
X57700Y-37629D01*
X58083Y-37246D01*
X58044Y-37141D01*
X57804Y-37052D01*
X57548Y-37061D01*
X57355Y-37141D01*
X57317Y-37244D01*
X57222Y-37149D01*
X57222Y-33712D01*
X57320Y-33859D01*
X58480Y-35019D01*
X58480Y-35019D01*
X58650Y-35132D01*
X58849Y-35172D01*
X58850Y-35172D01*
X59443Y-35172D01*
X59410Y-35252D01*
X59410Y-35397D01*
X59410Y-36047D01*
X59465Y-36181D01*
X59568Y-36284D01*
X59702Y-36339D01*
X59847Y-36339D01*
X60497Y-36339D01*
X60577Y-36306D01*
X60577Y-37583D01*
X60083Y-38077D01*
X59861Y-38077D01*
X59824Y-38040D01*
X59581Y-37939D01*
X59319Y-37939D01*
X59076Y-38039D01*
X58890Y-38225D01*
X58789Y-38468D01*
X58789Y-38730D01*
X58889Y-38973D01*
X59075Y-39159D01*
X59318Y-39260D01*
X59580Y-39260D01*
X59823Y-39160D01*
X59861Y-39122D01*
X60300Y-39122D01*
X60499Y-39082D01*
X60669Y-38969D01*
X61469Y-38169D01*
X61469Y-38169D01*
X61469Y-38169D01*
X61582Y-37999D01*
X61582Y-37999D01*
X61622Y-37800D01*
X61622Y-37800D01*
X61622Y-33800D01*
X61622Y-33799D01*
X61582Y-33600D01*
X61582Y-33600D01*
X61469Y-33430D01*
X61469Y-33430D01*
X60669Y-32630D01*
X60499Y-32517D01*
X60300Y-32477D01*
X60250Y-32477D01*
X60250Y-31635D01*
X60250Y-31495D01*
X60250Y-31395D01*
X60250Y-31255D01*
X60188Y-31044D01*
X60050Y-30873D01*
X59858Y-30768D01*
X59826Y-30761D01*
X59740Y-30810D01*
X59740Y-31395D01*
X60250Y-31395D01*
X60250Y-31495D01*
X59740Y-31495D01*
X59740Y-32079D01*
X59826Y-32128D01*
X59858Y-32121D01*
X60050Y-32016D01*
X60188Y-31845D01*
X60250Y-31635D01*
X60250Y-32477D01*
X59666Y-32477D01*
X59212Y-32023D01*
X59212Y-32010D01*
X59263Y-31934D01*
X59329Y-32016D01*
X59521Y-32121D01*
X59553Y-32128D01*
X59640Y-32079D01*
X59640Y-31495D01*
X59632Y-31495D01*
X59632Y-31395D01*
X59640Y-31395D01*
X59640Y-30810D01*
X59553Y-30761D01*
X59521Y-30768D01*
X59329Y-30873D01*
X59263Y-30955D01*
X59167Y-30811D01*
X58948Y-30665D01*
X58690Y-30614D01*
X58431Y-30665D01*
X58212Y-30811D01*
X58190Y-30845D01*
X58167Y-30811D01*
X57948Y-30665D01*
X57690Y-30614D01*
X57431Y-30665D01*
X57212Y-30811D01*
X57190Y-30845D01*
X57167Y-30811D01*
X56948Y-30665D01*
X56690Y-30614D01*
X56431Y-30665D01*
X56212Y-30811D01*
X56190Y-30845D01*
X56167Y-30811D01*
X55948Y-30665D01*
X55690Y-30614D01*
X55431Y-30665D01*
X55212Y-30811D01*
X55190Y-30845D01*
X55167Y-30811D01*
X54948Y-30665D01*
X54911Y-30658D01*
X54969Y-30619D01*
X55343Y-30245D01*
X55448Y-30224D01*
X55667Y-30078D01*
X55763Y-29934D01*
X55829Y-30016D01*
X56021Y-30121D01*
X56053Y-30128D01*
X56140Y-30079D01*
X56140Y-29495D01*
X56132Y-29495D01*
X56132Y-29395D01*
X56140Y-29395D01*
X56140Y-28810D01*
X56053Y-28761D01*
X56021Y-28768D01*
X55829Y-28873D01*
X55763Y-28955D01*
X55667Y-28811D01*
X55448Y-28665D01*
X55190Y-28614D01*
X54931Y-28665D01*
X54712Y-28811D01*
X54712Y-28812D01*
X54712Y-28740D01*
X54712Y-28739D01*
X54672Y-28540D01*
X54672Y-28540D01*
X54559Y-28370D01*
X54559Y-28370D01*
X54169Y-27980D01*
X53999Y-27867D01*
X53800Y-27827D01*
X50550Y-27827D01*
X50455Y-27732D01*
X50558Y-27694D01*
X50647Y-27454D01*
X50638Y-27198D01*
X50558Y-27005D01*
X50453Y-26966D01*
X50383Y-27037D01*
X50383Y-26896D01*
X50344Y-26791D01*
X50104Y-26702D01*
X49848Y-26711D01*
X49655Y-26791D01*
X49616Y-26896D01*
X50000Y-27279D01*
X50383Y-26896D01*
X50383Y-27037D01*
X50070Y-27350D01*
X50076Y-27355D01*
X50005Y-27426D01*
X50000Y-27420D01*
X49994Y-27426D01*
X49923Y-27355D01*
X49929Y-27350D01*
X49546Y-26966D01*
X49441Y-27005D01*
X49352Y-27245D01*
X49361Y-27501D01*
X49441Y-27694D01*
X49544Y-27732D01*
X49357Y-27919D01*
X49351Y-27933D01*
X49280Y-27980D01*
X49090Y-28170D01*
X48977Y-28340D01*
X48937Y-28540D01*
X48937Y-37640D01*
X48977Y-37839D01*
X49090Y-38009D01*
X50027Y-38946D01*
X50027Y-47978D01*
X49634Y-48371D01*
X49634Y-48008D01*
X49630Y-47916D01*
X49630Y-46210D01*
X49620Y-45971D01*
X49548Y-45798D01*
X49448Y-45765D01*
X49377Y-45835D01*
X49377Y-45694D01*
X49343Y-45593D01*
X49119Y-45512D01*
X48881Y-45522D01*
X48708Y-45593D01*
X48674Y-45694D01*
X49026Y-46045D01*
X49377Y-45694D01*
X49377Y-45835D01*
X49096Y-46116D01*
X49448Y-46467D01*
X49548Y-46434D01*
X49630Y-46210D01*
X49630Y-47916D01*
X49624Y-47770D01*
X49552Y-47597D01*
X49452Y-47563D01*
X49381Y-47634D01*
X49381Y-47492D01*
X49377Y-47481D01*
X49377Y-46538D01*
X49026Y-46187D01*
X48955Y-46257D01*
X48955Y-46116D01*
X48603Y-45765D01*
X48503Y-45798D01*
X48421Y-46022D01*
X48431Y-46261D01*
X48503Y-46434D01*
X48603Y-46467D01*
X48955Y-46116D01*
X48955Y-46257D01*
X48674Y-46538D01*
X48708Y-46639D01*
X48932Y-46721D01*
X49170Y-46710D01*
X49343Y-46639D01*
X49377Y-46538D01*
X49377Y-47481D01*
X49347Y-47392D01*
X49123Y-47310D01*
X48885Y-47320D01*
X48712Y-47392D01*
X48678Y-47492D01*
X49030Y-47844D01*
X49381Y-47492D01*
X49381Y-47634D01*
X49100Y-47915D01*
X49452Y-48266D01*
X49552Y-48232D01*
X49634Y-48008D01*
X49634Y-48371D01*
X49381Y-48624D01*
X49381Y-48337D01*
X49030Y-47985D01*
X48959Y-48056D01*
X48959Y-47915D01*
X48607Y-47563D01*
X48507Y-47597D01*
X48425Y-47821D01*
X48435Y-48059D01*
X48507Y-48232D01*
X48607Y-48266D01*
X48959Y-47915D01*
X48959Y-48056D01*
X48678Y-48337D01*
X48712Y-48437D01*
X48936Y-48519D01*
X49174Y-48509D01*
X49347Y-48437D01*
X49381Y-48337D01*
X49381Y-48624D01*
X49006Y-48999D01*
X48607Y-48999D01*
X48473Y-49055D01*
X48370Y-49157D01*
X48315Y-49292D01*
X48314Y-49437D01*
X48314Y-50137D01*
X48370Y-50271D01*
X48472Y-50374D01*
X48527Y-50396D01*
X48527Y-50833D01*
X48473Y-50855D01*
X48370Y-50957D01*
X48315Y-51092D01*
X48314Y-51237D01*
X48314Y-51937D01*
X48370Y-52071D01*
X48472Y-52174D01*
X48507Y-52188D01*
X48507Y-53410D01*
X48547Y-53609D01*
X48660Y-53779D01*
X49670Y-54789D01*
X49840Y-54902D01*
X50040Y-54942D01*
X53460Y-54942D01*
X53659Y-54902D01*
X53829Y-54789D01*
X54756Y-53862D01*
X54935Y-53862D01*
X54935Y-53929D01*
X54935Y-54092D01*
X54997Y-54155D01*
X55460Y-54155D01*
X55460Y-54147D01*
X55560Y-54147D01*
X55560Y-54155D01*
X55567Y-54155D01*
X55567Y-54255D01*
X55560Y-54255D01*
X55560Y-54717D01*
X55622Y-54779D01*
X55884Y-54779D01*
X55974Y-54742D01*
X56079Y-54847D01*
X56358Y-54963D01*
X56660Y-54963D01*
X56939Y-54848D01*
X57152Y-54635D01*
X57268Y-54356D01*
X57268Y-54054D01*
X57200Y-53888D01*
X57216Y-53872D01*
X57550Y-53872D01*
X57749Y-53832D01*
X57919Y-53719D01*
X58819Y-52819D01*
X58932Y-52649D01*
X58972Y-52450D01*
X58972Y-51711D01*
X59012Y-51807D01*
X59112Y-51841D01*
X59464Y-51490D01*
X59112Y-51138D01*
X59012Y-51172D01*
X58972Y-51281D01*
X58972Y-49911D01*
X59012Y-50007D01*
X59112Y-50041D01*
X59464Y-49690D01*
X59112Y-49338D01*
X59012Y-49372D01*
X58972Y-49481D01*
X58972Y-49301D01*
X59543Y-48730D01*
X59942Y-48730D01*
X60076Y-48674D01*
X60179Y-48572D01*
X60234Y-48438D01*
X60235Y-48292D01*
X60235Y-47592D01*
X60179Y-47458D01*
X60077Y-47355D01*
X60022Y-47333D01*
X60022Y-46977D01*
X60091Y-46949D01*
X60194Y-46847D01*
X60249Y-46712D01*
X60250Y-46567D01*
X60250Y-45867D01*
X60194Y-45733D01*
X60092Y-45630D01*
X59957Y-45575D01*
X59812Y-45574D01*
X59112Y-45574D01*
X58978Y-45630D01*
X58875Y-45732D01*
X58820Y-45867D01*
X58819Y-46012D01*
X58819Y-46712D01*
X58875Y-46846D01*
X58977Y-46949D01*
X59017Y-46965D01*
X59017Y-47333D01*
X58963Y-47355D01*
X58860Y-47458D01*
X58805Y-47592D01*
X58805Y-47737D01*
X58805Y-47991D01*
X58080Y-48715D01*
X57967Y-48885D01*
X57927Y-49085D01*
X57927Y-52233D01*
X57333Y-52827D01*
X57000Y-52827D01*
X56800Y-52867D01*
X56630Y-52980D01*
X56575Y-53036D01*
X56509Y-52970D01*
X56339Y-52857D01*
X56140Y-52817D01*
X54540Y-52817D01*
X54340Y-52857D01*
X54170Y-52970D01*
X53243Y-53897D01*
X52591Y-53897D01*
X53399Y-53089D01*
X53512Y-52919D01*
X53552Y-52720D01*
X53552Y-52003D01*
X53635Y-51920D01*
X53744Y-51657D01*
X53744Y-51538D01*
X54319Y-50964D01*
X54432Y-50794D01*
X54472Y-50595D01*
X54472Y-46950D01*
X54432Y-46750D01*
X54319Y-46580D01*
X54319Y-46580D01*
X53810Y-46071D01*
X54059Y-45822D01*
X54059Y-45822D01*
X54172Y-45652D01*
X54212Y-45452D01*
X54212Y-45452D01*
X54212Y-39697D01*
X54320Y-39859D01*
X57555Y-43094D01*
X57725Y-43207D01*
X57925Y-43247D01*
X59611Y-43247D01*
X59615Y-43256D01*
X59718Y-43359D01*
X59852Y-43414D01*
X59997Y-43414D01*
X60647Y-43414D01*
X60781Y-43359D01*
X60796Y-43344D01*
X60819Y-43367D01*
X61098Y-43483D01*
X61400Y-43483D01*
X61679Y-43368D01*
X61800Y-43247D01*
X64375Y-43247D01*
X64574Y-43207D01*
X64744Y-43094D01*
X65277Y-42561D01*
X65277Y-45250D01*
X65277Y-46933D01*
X64718Y-47492D01*
X64008Y-47492D01*
X63925Y-47409D01*
X63662Y-47300D01*
X63378Y-47300D01*
X63137Y-47399D01*
X63137Y-47398D01*
X63531Y-47004D01*
X63676Y-47005D01*
X63939Y-46896D01*
X64140Y-46695D01*
X64249Y-46432D01*
X64250Y-46148D01*
X64141Y-45885D01*
X63940Y-45684D01*
X63677Y-45575D01*
X63558Y-45575D01*
X62164Y-44180D01*
X61994Y-44067D01*
X61795Y-44027D01*
X59661Y-44027D01*
X59624Y-43990D01*
X59381Y-43889D01*
X59119Y-43889D01*
X58876Y-43989D01*
X58690Y-44175D01*
X58589Y-44418D01*
X58589Y-44680D01*
X58689Y-44923D01*
X58875Y-45109D01*
X59118Y-45210D01*
X59380Y-45210D01*
X59623Y-45110D01*
X59661Y-45072D01*
X61578Y-45072D01*
X62810Y-46303D01*
X62279Y-46834D01*
X62170Y-46997D01*
X62132Y-47190D01*
X62132Y-50990D01*
X62170Y-51182D01*
X62279Y-51345D01*
X62422Y-51488D01*
X62280Y-51630D01*
X62167Y-51800D01*
X62127Y-52000D01*
X62127Y-52733D01*
X62000Y-52860D01*
X61952Y-52860D01*
X61302Y-52860D01*
X61168Y-52915D01*
X61153Y-52930D01*
X61130Y-52907D01*
X60851Y-52791D01*
X60549Y-52791D01*
X60270Y-52906D01*
X60139Y-53037D01*
X60139Y-51583D01*
X60139Y-49783D01*
X60129Y-49545D01*
X60057Y-49372D01*
X59957Y-49338D01*
X59886Y-49409D01*
X59886Y-49267D01*
X59852Y-49167D01*
X59628Y-49085D01*
X59390Y-49095D01*
X59217Y-49167D01*
X59183Y-49267D01*
X59535Y-49619D01*
X59886Y-49267D01*
X59886Y-49409D01*
X59605Y-49690D01*
X59957Y-50041D01*
X60057Y-50007D01*
X60139Y-49783D01*
X60139Y-51583D01*
X60129Y-51345D01*
X60057Y-51172D01*
X59957Y-51138D01*
X59886Y-51209D01*
X59886Y-51067D01*
X59886Y-50112D01*
X59535Y-49760D01*
X59183Y-50112D01*
X59217Y-50212D01*
X59441Y-50294D01*
X59679Y-50284D01*
X59852Y-50212D01*
X59886Y-50112D01*
X59886Y-51067D01*
X59852Y-50967D01*
X59628Y-50885D01*
X59390Y-50895D01*
X59217Y-50967D01*
X59183Y-51067D01*
X59535Y-51419D01*
X59886Y-51067D01*
X59886Y-51209D01*
X59605Y-51490D01*
X59957Y-51841D01*
X60057Y-51807D01*
X60139Y-51583D01*
X60139Y-53037D01*
X60057Y-53119D01*
X59941Y-53398D01*
X59941Y-53700D01*
X60056Y-53979D01*
X60177Y-54100D01*
X60177Y-54150D01*
X60217Y-54349D01*
X60330Y-54519D01*
X60680Y-54869D01*
X60680Y-54869D01*
X60850Y-54982D01*
X61049Y-55022D01*
X61050Y-55022D01*
X63700Y-55022D01*
X63899Y-54982D01*
X64069Y-54869D01*
X65019Y-53919D01*
X65132Y-53749D01*
X65172Y-53550D01*
X65172Y-50200D01*
X65132Y-50000D01*
X65019Y-49830D01*
X64509Y-49320D01*
X64339Y-49207D01*
X64214Y-49182D01*
X64194Y-49133D01*
X64092Y-49030D01*
X64057Y-49016D01*
X64057Y-48537D01*
X64934Y-48537D01*
X65134Y-48497D01*
X65304Y-48384D01*
X65890Y-47798D01*
X65890Y-55105D01*
M02*
