M48
;DRILL file {Pcbnew (2012-nov-02)-testing} date lun 29 abr 2013 20:34:23 UYT
;FORMAT={-:-/ absolute / metric / decimal}
FMAT,2
METRIC,TZ
T1C0.800
T2C0.813
T3C1.016
%
G90
G05
M71
T1
X150.495Y113.157
X151.003Y98.044
X157.988Y67.869
X157.988Y77.013
X161.671Y76.962
X167.132Y77.089
T2
X133.833Y79.87
X135.103Y74.79
X136.373Y79.87
X137.643Y74.79
X138.913Y79.87
X140.183Y74.79
X141.453Y79.87
X142.723Y74.79
X143.993Y79.87
X145.263Y74.79
X146.533Y79.87
X147.803Y74.79
X149.073Y79.87
X150.343Y74.79
X151.613Y79.87
T3
X122.047Y92.265
X122.047Y94.805
X122.047Y97.346
X124.526Y117.136
X124.536Y121.704
X124.536Y126.276
X124.536Y130.848
X127.Y69.469
X127.Y72.009
X127.762Y136.017
X128.969Y86.55
X128.969Y89.09
X130.302Y136.017
X134.686Y117.136
X134.696Y121.704
X134.696Y126.276
X134.696Y130.848
X140.995Y137.681
X143.535Y137.681
X144.018Y95.758
X146.558Y95.758
X151.181Y121.959
X151.219Y117.577
X151.219Y126.213
X151.219Y130.785
X152.654Y88.011
X152.654Y90.551
X153.035Y105.981
X153.035Y108.521
X154.178Y136.017
X155.575Y105.981
X155.575Y108.521
X156.654Y101.6
X156.718Y136.017
X159.195Y101.6
X161.341Y121.959
X161.379Y117.577
X161.379Y126.213
X161.379Y130.785
X161.734Y101.6
T0
M30
