G04 (created by PCBNEW (2012-nov-02)-testing) date jue 04 abr 2013 22:02:17 UYT*
%MOIN*%
G04 Gerber Fmt 3.4, Leading zero omitted, Abs format*
%FSLAX34Y34*%
G01*
G70*
G90*
G04 APERTURE LIST*
%ADD10C,0.00393701*%
%ADD11C,0.015*%
%ADD12C,0.070748*%
%ADD13R,0.075748X0.075748*%
%ADD14C,0.075748*%
%ADD15C,0.085748*%
%ADD16R,0.085748X0.085748*%
%ADD17O,0.077748X0.105748*%
%ADD18R,0.077748X0.105748*%
G04 APERTURE END LIST*
G54D10*
G54D11*
X49080Y-47920D02*
X49080Y-18640D01*
X69180Y-47920D02*
X49080Y-47920D01*
X69180Y-18640D02*
X69180Y-47920D01*
X49080Y-18640D02*
X69180Y-18640D01*
G54D12*
X60500Y-25600D03*
X60500Y-28600D03*
X64800Y-19160D03*
X64800Y-22160D03*
G54D13*
X64520Y-32200D03*
G54D14*
X65520Y-32200D03*
X66520Y-32200D03*
G54D13*
X63100Y-35100D03*
G54D14*
X63100Y-34100D03*
X64100Y-35100D03*
X64100Y-34100D03*
G54D13*
X58360Y-46580D03*
G54D14*
X59360Y-46580D03*
G54D13*
X65460Y-46580D03*
G54D14*
X64460Y-46580D03*
G54D13*
X52860Y-46580D03*
G54D14*
X51860Y-46580D03*
G54D15*
X62360Y-40780D03*
G54D16*
X62360Y-44780D03*
G54D15*
X60560Y-40780D03*
G54D16*
X60560Y-44780D03*
G54D15*
X65760Y-44780D03*
G54D16*
X65760Y-40780D03*
G54D15*
X64034Y-44765D03*
G54D16*
X64034Y-40765D03*
G54D15*
X56958Y-40776D03*
G54D16*
X56958Y-44776D03*
G54D15*
X55160Y-40780D03*
G54D16*
X55160Y-44780D03*
G54D15*
X53360Y-44780D03*
G54D16*
X53360Y-40780D03*
G54D15*
X51560Y-44780D03*
G54D16*
X51560Y-40780D03*
G54D17*
X62540Y-23820D03*
X62040Y-21820D03*
X61540Y-23820D03*
X61040Y-21820D03*
X60540Y-23820D03*
X60040Y-21820D03*
X59540Y-23820D03*
X59040Y-21820D03*
X58540Y-23820D03*
X58040Y-21820D03*
X57540Y-23820D03*
X57040Y-21820D03*
X56540Y-23820D03*
X56040Y-21820D03*
G54D18*
X55540Y-23820D03*
G54D13*
X51160Y-30380D03*
G54D14*
X51160Y-29380D03*
X51160Y-28380D03*
G54D13*
X53740Y-27200D03*
G54D14*
X53740Y-26200D03*
G54D13*
X63040Y-28000D03*
G54D14*
X63040Y-27000D03*
M02*
