G04 (created by PCBNEW (2012-nov-02)-testing) date jue 04 abr 2013 22:02:17 UYT*
%MOIN*%
G04 Gerber Fmt 3.4, Leading zero omitted, Abs format*
%FSLAX34Y34*%
G01*
G70*
G90*
G04 APERTURE LIST*
%ADD10C,0.00393701*%
%ADD11C,0.015*%
%ADD12C,0.00515748*%
%ADD13C,0.0100787*%
%ADD14C,0.055*%
%ADD15R,0.06X0.06*%
%ADD16C,0.06*%
%ADD17C,0.07*%
%ADD18R,0.07X0.07*%
%ADD19O,0.062X0.09*%
%ADD20R,0.062X0.09*%
%ADD21C,0.0275591*%
G04 APERTURE END LIST*
G54D10*
G54D11*
X49080Y-47920D02*
X49080Y-18640D01*
X69180Y-47920D02*
X49080Y-47920D01*
X69180Y-18640D02*
X69180Y-47920D01*
X49080Y-18640D02*
X69180Y-18640D01*
G54D12*
X84662Y-30627D02*
X84731Y-30359D01*
X84780Y-30627D02*
X84780Y-30063D01*
X84701Y-30063D01*
X84682Y-30090D01*
X84672Y-30117D01*
X84662Y-30171D01*
X84662Y-30251D01*
X84672Y-30305D01*
X84682Y-30332D01*
X84701Y-30359D01*
X84780Y-30359D01*
X84466Y-30627D02*
X84584Y-30627D01*
X84525Y-30627D02*
X84525Y-30063D01*
X84544Y-30144D01*
X84564Y-30198D01*
X84584Y-30224D01*
X84279Y-30063D02*
X84377Y-30063D01*
X84387Y-30332D01*
X84377Y-30305D01*
X84358Y-30278D01*
X84308Y-30278D01*
X84289Y-30305D01*
X84279Y-30332D01*
X84269Y-30385D01*
X84269Y-30520D01*
X84279Y-30573D01*
X84289Y-30600D01*
X84308Y-30627D01*
X84358Y-30627D01*
X84377Y-30600D01*
X84387Y-30573D01*
X84141Y-30063D02*
X84122Y-30063D01*
X84102Y-30090D01*
X84092Y-30117D01*
X84083Y-30171D01*
X84073Y-30278D01*
X84073Y-30412D01*
X84083Y-30520D01*
X84092Y-30573D01*
X84102Y-30600D01*
X84122Y-30627D01*
X84141Y-30627D01*
X84161Y-30600D01*
X84171Y-30573D01*
X84181Y-30520D01*
X84191Y-30412D01*
X84191Y-30278D01*
X84181Y-30171D01*
X84171Y-30117D01*
X84161Y-30090D01*
X84141Y-30063D01*
X84004Y-30063D02*
X83876Y-30063D01*
X83945Y-30278D01*
X83916Y-30278D01*
X83896Y-30305D01*
X83886Y-30332D01*
X83876Y-30385D01*
X83876Y-30520D01*
X83886Y-30573D01*
X83896Y-30600D01*
X83916Y-30627D01*
X83974Y-30627D01*
X83994Y-30600D01*
X84004Y-30573D01*
X83798Y-30117D02*
X83788Y-30090D01*
X83768Y-30063D01*
X83719Y-30063D01*
X83699Y-30090D01*
X83690Y-30117D01*
X83680Y-30171D01*
X83680Y-30224D01*
X83690Y-30305D01*
X83807Y-30627D01*
X83680Y-30627D01*
X83552Y-30063D02*
X83532Y-30063D01*
X83513Y-30090D01*
X83503Y-30117D01*
X83493Y-30171D01*
X83483Y-30278D01*
X83483Y-30412D01*
X83493Y-30520D01*
X83503Y-30573D01*
X83513Y-30600D01*
X83532Y-30627D01*
X83552Y-30627D01*
X83572Y-30600D01*
X83582Y-30573D01*
X83591Y-30520D01*
X83601Y-30412D01*
X83601Y-30278D01*
X83591Y-30171D01*
X83582Y-30117D01*
X83572Y-30090D01*
X83552Y-30063D01*
X83287Y-30627D02*
X83405Y-30627D01*
X83346Y-30627D02*
X83346Y-30063D01*
X83365Y-30144D01*
X83385Y-30198D01*
X83405Y-30224D01*
X83218Y-30063D02*
X83090Y-30063D01*
X83159Y-30278D01*
X83130Y-30278D01*
X83110Y-30305D01*
X83100Y-30332D01*
X83090Y-30385D01*
X83090Y-30520D01*
X83100Y-30573D01*
X83110Y-30600D01*
X83130Y-30627D01*
X83189Y-30627D01*
X83208Y-30600D01*
X83218Y-30573D01*
X82550Y-30251D02*
X82501Y-30627D01*
X82452Y-30251D01*
X82265Y-30627D02*
X82383Y-30627D01*
X82324Y-30627D02*
X82324Y-30063D01*
X82344Y-30144D01*
X82363Y-30198D01*
X82383Y-30224D01*
X82177Y-30573D02*
X82167Y-30600D01*
X82177Y-30627D01*
X82187Y-30600D01*
X82177Y-30573D01*
X82177Y-30627D01*
X82039Y-30063D02*
X82020Y-30063D01*
X82000Y-30090D01*
X81990Y-30117D01*
X81980Y-30171D01*
X81970Y-30278D01*
X81970Y-30412D01*
X81980Y-30520D01*
X81990Y-30573D01*
X82000Y-30600D01*
X82020Y-30627D01*
X82039Y-30627D01*
X82059Y-30600D01*
X82069Y-30573D01*
X82078Y-30520D01*
X82088Y-30412D01*
X82088Y-30278D01*
X82078Y-30171D01*
X82069Y-30117D01*
X82059Y-30090D01*
X82039Y-30063D01*
G54D13*
X85748Y-29488D02*
X85748Y-28924D01*
X85748Y-29192D02*
X85518Y-29192D01*
X85518Y-29488D02*
X85518Y-28924D01*
X85326Y-29273D02*
X85018Y-29273D01*
X84692Y-29192D02*
X84635Y-29219D01*
X84615Y-29246D01*
X84596Y-29300D01*
X84596Y-29380D01*
X84615Y-29434D01*
X84635Y-29461D01*
X84673Y-29488D01*
X84827Y-29488D01*
X84827Y-28924D01*
X84692Y-28924D01*
X84654Y-28951D01*
X84635Y-28978D01*
X84615Y-29031D01*
X84615Y-29085D01*
X84635Y-29139D01*
X84654Y-29166D01*
X84692Y-29192D01*
X84827Y-29192D01*
X84423Y-29488D02*
X84423Y-29112D01*
X84423Y-29219D02*
X84404Y-29166D01*
X84385Y-29139D01*
X84347Y-29112D01*
X84308Y-29112D01*
X84174Y-29488D02*
X84174Y-29112D01*
X84174Y-28924D02*
X84193Y-28951D01*
X84174Y-28978D01*
X84155Y-28951D01*
X84174Y-28924D01*
X84174Y-28978D01*
X83809Y-29488D02*
X83809Y-28924D01*
X83809Y-29461D02*
X83847Y-29488D01*
X83924Y-29488D01*
X83963Y-29461D01*
X83982Y-29434D01*
X84001Y-29380D01*
X84001Y-29219D01*
X83982Y-29166D01*
X83963Y-29139D01*
X83924Y-29112D01*
X83847Y-29112D01*
X83809Y-29139D01*
X83444Y-29112D02*
X83444Y-29568D01*
X83463Y-29622D01*
X83483Y-29649D01*
X83521Y-29676D01*
X83579Y-29676D01*
X83617Y-29649D01*
X83444Y-29461D02*
X83483Y-29488D01*
X83559Y-29488D01*
X83598Y-29461D01*
X83617Y-29434D01*
X83636Y-29380D01*
X83636Y-29219D01*
X83617Y-29166D01*
X83598Y-29139D01*
X83559Y-29112D01*
X83483Y-29112D01*
X83444Y-29139D01*
X83099Y-29461D02*
X83137Y-29488D01*
X83214Y-29488D01*
X83252Y-29461D01*
X83272Y-29407D01*
X83272Y-29192D01*
X83252Y-29139D01*
X83214Y-29112D01*
X83137Y-29112D01*
X83099Y-29139D01*
X83080Y-29192D01*
X83080Y-29246D01*
X83272Y-29300D01*
X82408Y-29488D02*
X82600Y-29488D01*
X82600Y-28924D01*
X82292Y-28978D02*
X82273Y-28951D01*
X82235Y-28924D01*
X82139Y-28924D01*
X82100Y-28951D01*
X82081Y-28978D01*
X82062Y-29031D01*
X82062Y-29085D01*
X82081Y-29166D01*
X82312Y-29488D01*
X82062Y-29488D01*
X81870Y-29488D02*
X81793Y-29488D01*
X81755Y-29461D01*
X81736Y-29434D01*
X81697Y-29353D01*
X81678Y-29246D01*
X81678Y-29031D01*
X81697Y-28978D01*
X81717Y-28951D01*
X81755Y-28924D01*
X81832Y-28924D01*
X81870Y-28951D01*
X81889Y-28978D01*
X81908Y-29031D01*
X81908Y-29166D01*
X81889Y-29219D01*
X81870Y-29246D01*
X81832Y-29273D01*
X81755Y-29273D01*
X81717Y-29246D01*
X81697Y-29219D01*
X81678Y-29166D01*
X81448Y-29166D02*
X81486Y-29139D01*
X81505Y-29112D01*
X81525Y-29058D01*
X81525Y-29031D01*
X81505Y-28978D01*
X81486Y-28951D01*
X81448Y-28924D01*
X81371Y-28924D01*
X81333Y-28951D01*
X81313Y-28978D01*
X81294Y-29031D01*
X81294Y-29058D01*
X81313Y-29112D01*
X81333Y-29139D01*
X81371Y-29166D01*
X81448Y-29166D01*
X81486Y-29192D01*
X81505Y-29219D01*
X81525Y-29273D01*
X81525Y-29380D01*
X81505Y-29434D01*
X81486Y-29461D01*
X81448Y-29488D01*
X81371Y-29488D01*
X81333Y-29461D01*
X81313Y-29434D01*
X81294Y-29380D01*
X81294Y-29273D01*
X81313Y-29219D01*
X81333Y-29192D01*
X81371Y-29166D01*
X81121Y-29488D02*
X81121Y-28924D01*
X80891Y-29488D01*
X80891Y-28924D01*
G54D14*
X60500Y-25600D03*
X60500Y-28600D03*
X64800Y-19160D03*
X64800Y-22160D03*
G54D15*
X64520Y-32200D03*
G54D16*
X65520Y-32200D03*
X66520Y-32200D03*
G54D15*
X63100Y-35100D03*
G54D16*
X63100Y-34100D03*
X64100Y-35100D03*
X64100Y-34100D03*
G54D15*
X58360Y-46580D03*
G54D16*
X59360Y-46580D03*
G54D15*
X65460Y-46580D03*
G54D16*
X64460Y-46580D03*
G54D15*
X52860Y-46580D03*
G54D16*
X51860Y-46580D03*
G54D17*
X62360Y-40780D03*
G54D18*
X62360Y-44780D03*
G54D17*
X60560Y-40780D03*
G54D18*
X60560Y-44780D03*
G54D17*
X65760Y-44780D03*
G54D18*
X65760Y-40780D03*
G54D17*
X64034Y-44765D03*
G54D18*
X64034Y-40765D03*
G54D17*
X56958Y-40776D03*
G54D18*
X56958Y-44776D03*
G54D17*
X55160Y-40780D03*
G54D18*
X55160Y-44780D03*
G54D17*
X53360Y-44780D03*
G54D18*
X53360Y-40780D03*
G54D17*
X51560Y-44780D03*
G54D18*
X51560Y-40780D03*
G54D19*
X62540Y-23820D03*
X62040Y-21820D03*
X61540Y-23820D03*
X61040Y-21820D03*
X60540Y-23820D03*
X60040Y-21820D03*
X59540Y-23820D03*
X59040Y-21820D03*
X58540Y-23820D03*
X58040Y-21820D03*
X57540Y-23820D03*
X57040Y-21820D03*
X56540Y-23820D03*
X56040Y-21820D03*
G54D20*
X55540Y-23820D03*
G54D15*
X51160Y-30380D03*
G54D16*
X51160Y-29380D03*
X51160Y-28380D03*
G54D15*
X53740Y-27200D03*
G54D16*
X53740Y-26200D03*
G54D15*
X63040Y-28000D03*
G54D16*
X63040Y-27000D03*
G54D21*
X64520Y-32200D02*
X64520Y-25380D01*
X62960Y-23820D02*
X62540Y-23820D01*
X64520Y-25380D02*
X62960Y-23820D01*
X62540Y-23820D02*
X62540Y-23240D01*
X59580Y-22840D02*
X59040Y-22300D01*
X62140Y-22840D02*
X59580Y-22840D01*
X62540Y-23240D02*
X62140Y-22840D01*
X59040Y-22300D02*
X59040Y-21820D01*
X55540Y-23820D02*
X55540Y-23280D01*
X59040Y-22300D02*
X59040Y-21820D01*
X58500Y-22840D02*
X59040Y-22300D01*
X55980Y-22840D02*
X58500Y-22840D01*
X55540Y-23280D02*
X55980Y-22840D01*
X55160Y-40780D02*
X55160Y-41040D01*
X50420Y-31120D02*
X51160Y-30380D01*
X50420Y-41240D02*
X50420Y-31120D01*
X50980Y-41800D02*
X50420Y-41240D01*
X54400Y-41800D02*
X50980Y-41800D01*
X55160Y-41040D02*
X54400Y-41800D01*
X51160Y-29380D02*
X51160Y-30380D01*
X51160Y-28380D02*
X51160Y-29380D01*
X55540Y-23820D02*
X52180Y-23820D01*
X51160Y-24840D02*
X51160Y-28380D01*
X52180Y-23820D02*
X51160Y-24840D01*
X56958Y-40776D02*
X60556Y-40776D01*
X60556Y-40776D02*
X60560Y-40780D01*
X58360Y-46580D02*
X58360Y-43580D01*
X61560Y-41580D02*
X62360Y-40780D01*
X60360Y-41580D02*
X61560Y-41580D01*
X58360Y-43580D02*
X60360Y-41580D01*
X55160Y-40780D02*
X56954Y-40780D01*
X56954Y-40780D02*
X56958Y-40776D01*
X60560Y-40780D02*
X62360Y-40780D01*
X63100Y-35100D02*
X62820Y-35100D01*
X57540Y-29820D02*
X57540Y-23820D01*
X62820Y-35100D02*
X57540Y-29820D01*
X63100Y-34100D02*
X63100Y-33840D01*
X58540Y-29280D02*
X58540Y-23820D01*
X63100Y-33840D02*
X58540Y-29280D01*
X64100Y-35100D02*
X66820Y-35100D01*
X60040Y-20980D02*
X60040Y-21820D01*
X61180Y-19840D02*
X60040Y-20980D01*
X66640Y-19840D02*
X61180Y-19840D01*
X68400Y-21600D02*
X66640Y-19840D01*
X68400Y-33520D02*
X68400Y-21600D01*
X66820Y-35100D02*
X68400Y-33520D01*
X64100Y-34100D02*
X66680Y-34100D01*
X61040Y-21180D02*
X61040Y-21820D01*
X61600Y-20620D02*
X61040Y-21180D01*
X66500Y-20620D02*
X61600Y-20620D01*
X67660Y-21780D02*
X66500Y-20620D01*
X67660Y-33120D02*
X67660Y-21780D01*
X66680Y-34100D02*
X67660Y-33120D01*
X60540Y-23820D02*
X60540Y-25560D01*
X60540Y-25560D02*
X60500Y-25600D01*
X64460Y-46580D02*
X64460Y-45190D01*
X64049Y-44780D02*
X62360Y-44780D01*
X64460Y-45190D02*
X64049Y-44780D01*
X51860Y-46580D02*
X51860Y-45080D01*
X51860Y-45080D02*
X51560Y-44780D01*
X51560Y-44780D02*
X51560Y-44580D01*
X56162Y-43980D02*
X56958Y-44776D01*
X52160Y-43980D02*
X56162Y-43980D01*
X51560Y-44580D02*
X52160Y-43980D01*
X52860Y-46580D02*
X52860Y-45280D01*
X52860Y-45280D02*
X53360Y-44780D01*
X55160Y-44780D02*
X53360Y-44780D01*
X60560Y-44780D02*
X60560Y-44380D01*
X64860Y-43880D02*
X65760Y-44780D01*
X61060Y-43880D02*
X64860Y-43880D01*
X60560Y-44380D02*
X61060Y-43880D01*
X65460Y-46580D02*
X65460Y-45080D01*
X65460Y-45080D02*
X65760Y-44780D01*
X58040Y-21820D02*
X58040Y-20280D01*
X59160Y-19160D02*
X64800Y-19160D01*
X58040Y-20280D02*
X59160Y-19160D01*
X64800Y-22160D02*
X64800Y-24240D01*
X66520Y-31860D02*
X66520Y-32200D01*
X65360Y-30700D02*
X66520Y-31860D01*
X65360Y-24800D02*
X65360Y-30700D01*
X64800Y-24240D02*
X65360Y-24800D01*
X60500Y-28600D02*
X60500Y-29740D01*
X66520Y-32780D02*
X66520Y-32200D01*
X66220Y-33080D02*
X66520Y-32780D01*
X63840Y-33080D02*
X66220Y-33080D01*
X60500Y-29740D02*
X63840Y-33080D01*
X59540Y-23820D02*
X59540Y-27640D01*
X59540Y-27640D02*
X60500Y-28600D01*
X53360Y-40780D02*
X54460Y-39680D01*
X62949Y-39680D02*
X64034Y-40765D01*
X54460Y-39680D02*
X62949Y-39680D01*
X59360Y-46580D02*
X59360Y-43880D01*
X59360Y-43880D02*
X60660Y-42580D01*
X60660Y-42580D02*
X63360Y-42580D01*
X63360Y-42580D02*
X64034Y-41905D01*
X64034Y-41905D02*
X64034Y-40765D01*
X64034Y-40765D02*
X65745Y-40765D01*
X65745Y-40765D02*
X65760Y-40780D01*
X53360Y-40780D02*
X51560Y-40780D01*
M02*
