G04 (created by PCBNEW (2012-nov-02)-testing) date lun 29 abr 2013 20:18:49 UYT*
%MOIN*%
G04 Gerber Fmt 3.4, Leading zero omitted, Abs format*
%FSLAX34Y34*%
G01*
G70*
G90*
G04 APERTURE LIST*
%ADD10C,2.3622e-06*%
%ADD11C,0.015*%
%ADD12C,0.012*%
%ADD13C,0.006*%
%ADD14C,0.008*%
%ADD15C,0.01125*%
%ADD16C,0.0112*%
G04 APERTURE END LIST*
G54D10*
G54D11*
X46230Y-55545D02*
X46230Y-21611D01*
X66330Y-55545D02*
X46230Y-55545D01*
X66330Y-21611D02*
X66330Y-55545D01*
X46230Y-21611D02*
X66330Y-21611D01*
G54D12*
X46992Y-23023D02*
X46992Y-22223D01*
X47135Y-22223D01*
X47221Y-22261D01*
X47278Y-22338D01*
X47307Y-22414D01*
X47335Y-22566D01*
X47335Y-22680D01*
X47307Y-22833D01*
X47278Y-22909D01*
X47221Y-22985D01*
X47135Y-23023D01*
X46992Y-23023D01*
X47821Y-22985D02*
X47764Y-23023D01*
X47650Y-23023D01*
X47592Y-22985D01*
X47564Y-22909D01*
X47564Y-22604D01*
X47592Y-22528D01*
X47650Y-22490D01*
X47764Y-22490D01*
X47821Y-22528D01*
X47850Y-22604D01*
X47850Y-22680D01*
X47564Y-22757D01*
X48078Y-22985D02*
X48135Y-23023D01*
X48250Y-23023D01*
X48307Y-22985D01*
X48335Y-22909D01*
X48335Y-22871D01*
X48307Y-22795D01*
X48250Y-22757D01*
X48164Y-22757D01*
X48107Y-22719D01*
X48078Y-22642D01*
X48078Y-22604D01*
X48107Y-22528D01*
X48164Y-22490D01*
X48250Y-22490D01*
X48307Y-22528D01*
X48592Y-23023D02*
X48592Y-22490D01*
X48592Y-22223D02*
X48564Y-22261D01*
X48592Y-22300D01*
X48621Y-22261D01*
X48592Y-22223D01*
X48592Y-22300D01*
X49135Y-22490D02*
X49135Y-23138D01*
X49107Y-23214D01*
X49078Y-23252D01*
X49021Y-23290D01*
X48935Y-23290D01*
X48878Y-23252D01*
X49135Y-22985D02*
X49078Y-23023D01*
X48964Y-23023D01*
X48907Y-22985D01*
X48878Y-22947D01*
X48850Y-22871D01*
X48850Y-22642D01*
X48878Y-22566D01*
X48907Y-22528D01*
X48964Y-22490D01*
X49078Y-22490D01*
X49135Y-22528D01*
X49421Y-22490D02*
X49421Y-23023D01*
X49421Y-22566D02*
X49450Y-22528D01*
X49507Y-22490D01*
X49592Y-22490D01*
X49650Y-22528D01*
X49678Y-22604D01*
X49678Y-23023D01*
X50192Y-22985D02*
X50135Y-23023D01*
X50021Y-23023D01*
X49964Y-22985D01*
X49935Y-22909D01*
X49935Y-22604D01*
X49964Y-22528D01*
X50021Y-22490D01*
X50135Y-22490D01*
X50192Y-22528D01*
X50221Y-22604D01*
X50221Y-22680D01*
X49935Y-22757D01*
X50735Y-23023D02*
X50735Y-22223D01*
X50735Y-22985D02*
X50678Y-23023D01*
X50564Y-23023D01*
X50507Y-22985D01*
X50478Y-22947D01*
X50450Y-22871D01*
X50450Y-22642D01*
X50478Y-22566D01*
X50507Y-22528D01*
X50564Y-22490D01*
X50678Y-22490D01*
X50735Y-22528D01*
X51478Y-23023D02*
X51478Y-22490D01*
X51478Y-22223D02*
X51450Y-22261D01*
X51478Y-22300D01*
X51507Y-22261D01*
X51478Y-22223D01*
X51478Y-22300D01*
X51764Y-22490D02*
X51764Y-23023D01*
X51764Y-22566D02*
X51792Y-22528D01*
X51850Y-22490D01*
X51935Y-22490D01*
X51992Y-22528D01*
X52021Y-22604D01*
X52021Y-23023D01*
X52764Y-22223D02*
X52764Y-22871D01*
X52792Y-22947D01*
X52821Y-22985D01*
X52878Y-23023D01*
X52992Y-23023D01*
X53050Y-22985D01*
X53078Y-22947D01*
X53107Y-22871D01*
X53107Y-22223D01*
X53392Y-23023D02*
X53392Y-22490D01*
X53392Y-22642D02*
X53421Y-22566D01*
X53450Y-22528D01*
X53507Y-22490D01*
X53564Y-22490D01*
X54021Y-22490D02*
X54021Y-23023D01*
X53764Y-22490D02*
X53764Y-22909D01*
X53792Y-22985D01*
X53850Y-23023D01*
X53935Y-23023D01*
X53992Y-22985D01*
X54021Y-22947D01*
X54564Y-22490D02*
X54564Y-23138D01*
X54535Y-23214D01*
X54507Y-23252D01*
X54450Y-23290D01*
X54364Y-23290D01*
X54307Y-23252D01*
X54564Y-22985D02*
X54507Y-23023D01*
X54392Y-23023D01*
X54335Y-22985D01*
X54307Y-22947D01*
X54278Y-22871D01*
X54278Y-22642D01*
X54307Y-22566D01*
X54335Y-22528D01*
X54392Y-22490D01*
X54507Y-22490D01*
X54564Y-22528D01*
X55107Y-22490D02*
X55107Y-23023D01*
X54850Y-22490D02*
X54850Y-22909D01*
X54878Y-22985D01*
X54935Y-23023D01*
X55021Y-23023D01*
X55078Y-22985D01*
X55107Y-22947D01*
X55650Y-23023D02*
X55650Y-22604D01*
X55621Y-22528D01*
X55564Y-22490D01*
X55450Y-22490D01*
X55392Y-22528D01*
X55650Y-22985D02*
X55592Y-23023D01*
X55450Y-23023D01*
X55392Y-22985D01*
X55364Y-22909D01*
X55364Y-22833D01*
X55392Y-22757D01*
X55450Y-22719D01*
X55592Y-22719D01*
X55650Y-22680D01*
X55878Y-22490D02*
X56021Y-23023D01*
X56164Y-22490D02*
X56021Y-23023D01*
X55964Y-23214D01*
X55935Y-23252D01*
X55878Y-23290D01*
G54D13*
X61175Y-40500D02*
X61175Y-39500D01*
X61175Y-39500D02*
X64175Y-39500D01*
X64175Y-39500D02*
X64175Y-40500D01*
X64175Y-40500D02*
X61175Y-40500D01*
X62175Y-39500D02*
X62175Y-40500D01*
G54D12*
X59750Y-41225D02*
X61750Y-41225D01*
X61750Y-41225D02*
X61750Y-43225D01*
X61750Y-43225D02*
X59750Y-43225D01*
X59750Y-43225D02*
X59750Y-41225D01*
G54D13*
X55010Y-54705D02*
X55010Y-53705D01*
X55010Y-53705D02*
X57010Y-53705D01*
X57010Y-53705D02*
X57010Y-54705D01*
X57010Y-54705D02*
X55010Y-54705D01*
X62200Y-53050D02*
X62200Y-54050D01*
X62200Y-54050D02*
X60200Y-54050D01*
X60200Y-54050D02*
X60200Y-53050D01*
X60200Y-53050D02*
X62200Y-53050D01*
X49800Y-54050D02*
X49800Y-53050D01*
X49800Y-53050D02*
X51800Y-53050D01*
X51800Y-53050D02*
X51800Y-54050D01*
X51800Y-54050D02*
X49800Y-54050D01*
G54D12*
X60035Y-49190D02*
X63035Y-49190D01*
X63035Y-49190D02*
X63035Y-50190D01*
X63035Y-50190D02*
X60035Y-50190D01*
X60035Y-50190D02*
X60035Y-49190D01*
X62785Y-49190D02*
X62785Y-50190D01*
X62535Y-50190D02*
X62535Y-49190D01*
X60035Y-49690D02*
X59535Y-49690D01*
X63035Y-49690D02*
X63535Y-49690D01*
X60035Y-50990D02*
X63035Y-50990D01*
X63035Y-50990D02*
X63035Y-51990D01*
X63035Y-51990D02*
X60035Y-51990D01*
X60035Y-51990D02*
X60035Y-50990D01*
X62785Y-50990D02*
X62785Y-51990D01*
X62535Y-51990D02*
X62535Y-50990D01*
X60035Y-51490D02*
X59535Y-51490D01*
X63035Y-51490D02*
X63535Y-51490D01*
X63035Y-46790D02*
X60035Y-46790D01*
X60035Y-46790D02*
X60035Y-45790D01*
X60035Y-45790D02*
X63035Y-45790D01*
X63035Y-45790D02*
X63035Y-46790D01*
X60285Y-46790D02*
X60285Y-45790D01*
X60535Y-45790D02*
X60535Y-46790D01*
X63035Y-46290D02*
X63535Y-46290D01*
X60035Y-46290D02*
X59535Y-46290D01*
X63020Y-48515D02*
X60020Y-48515D01*
X60020Y-48515D02*
X60020Y-47515D01*
X60020Y-47515D02*
X63020Y-47515D01*
X63020Y-47515D02*
X63020Y-48515D01*
X60270Y-48515D02*
X60270Y-47515D01*
X60520Y-47515D02*
X60520Y-48515D01*
X63020Y-48015D02*
X63520Y-48015D01*
X60020Y-48015D02*
X59520Y-48015D01*
X49526Y-45616D02*
X52526Y-45616D01*
X52526Y-45616D02*
X52526Y-46616D01*
X52526Y-46616D02*
X49526Y-46616D01*
X49526Y-46616D02*
X49526Y-45616D01*
X52276Y-45616D02*
X52276Y-46616D01*
X52026Y-46616D02*
X52026Y-45616D01*
X49526Y-46116D02*
X49026Y-46116D01*
X52526Y-46116D02*
X53026Y-46116D01*
X49530Y-47415D02*
X52530Y-47415D01*
X52530Y-47415D02*
X52530Y-48415D01*
X52530Y-48415D02*
X49530Y-48415D01*
X49530Y-48415D02*
X49530Y-47415D01*
X52280Y-47415D02*
X52280Y-48415D01*
X52030Y-48415D02*
X52030Y-47415D01*
X49530Y-47915D02*
X49030Y-47915D01*
X52530Y-47915D02*
X53030Y-47915D01*
X52530Y-50215D02*
X49530Y-50215D01*
X49530Y-50215D02*
X49530Y-49215D01*
X49530Y-49215D02*
X52530Y-49215D01*
X52530Y-49215D02*
X52530Y-50215D01*
X49780Y-50215D02*
X49780Y-49215D01*
X50030Y-49215D02*
X50030Y-50215D01*
X52530Y-49715D02*
X53030Y-49715D01*
X49530Y-49715D02*
X49030Y-49715D01*
X52530Y-52015D02*
X49530Y-52015D01*
X49530Y-52015D02*
X49530Y-51015D01*
X49530Y-51015D02*
X52530Y-51015D01*
X52530Y-51015D02*
X52530Y-52015D01*
X49780Y-52015D02*
X49780Y-51015D01*
X50030Y-51015D02*
X50030Y-52015D01*
X52530Y-51515D02*
X53030Y-51515D01*
X49530Y-51515D02*
X49030Y-51515D01*
G54D11*
X52290Y-30645D02*
X52690Y-30645D01*
X52690Y-30645D02*
X52690Y-30995D01*
X60140Y-29845D02*
X52240Y-29845D01*
X52240Y-29845D02*
X52240Y-31045D01*
X52240Y-31045D02*
X60140Y-31045D01*
X60140Y-31045D02*
X60140Y-29845D01*
G54D13*
X48550Y-38825D02*
X47550Y-38825D01*
X47550Y-38825D02*
X47550Y-35825D01*
X47550Y-35825D02*
X48550Y-35825D01*
X48550Y-35825D02*
X48550Y-38825D01*
X47550Y-37825D02*
X48550Y-37825D01*
X51275Y-35575D02*
X50275Y-35575D01*
X50275Y-35575D02*
X50275Y-33575D01*
X50275Y-33575D02*
X51275Y-33575D01*
X51275Y-33575D02*
X51275Y-35575D01*
X60600Y-36150D02*
X59600Y-36150D01*
X59600Y-36150D02*
X59600Y-34150D01*
X59600Y-34150D02*
X60600Y-34150D01*
X60600Y-34150D02*
X60600Y-36150D01*
G54D12*
X50500Y-26870D02*
X50500Y-28850D01*
X50500Y-28850D02*
X49500Y-28850D01*
X49500Y-28850D02*
X49500Y-26850D01*
X49500Y-26850D02*
X50500Y-26850D01*
X50250Y-26850D02*
X50500Y-27100D01*
X58180Y-38200D02*
X56200Y-38200D01*
X56200Y-38200D02*
X56200Y-37200D01*
X56200Y-37200D02*
X58200Y-37200D01*
X58200Y-37200D02*
X58200Y-38200D01*
X58200Y-37950D02*
X57950Y-38200D01*
G54D13*
X64454Y-40161D02*
X64454Y-39761D01*
X64683Y-40161D02*
X64511Y-39933D01*
X64683Y-39761D02*
X64454Y-39990D01*
X65064Y-40161D02*
X64835Y-40161D01*
X64950Y-40161D02*
X64950Y-39761D01*
X64911Y-39819D01*
X64873Y-39857D01*
X64835Y-39876D01*
G54D14*
X62054Y-42411D02*
X62054Y-42011D01*
X62207Y-42011D01*
X62245Y-42030D01*
X62264Y-42050D01*
X62283Y-42088D01*
X62283Y-42145D01*
X62264Y-42183D01*
X62245Y-42202D01*
X62207Y-42221D01*
X62054Y-42221D01*
X62664Y-42411D02*
X62435Y-42411D01*
X62550Y-42411D02*
X62550Y-42011D01*
X62511Y-42069D01*
X62473Y-42107D01*
X62435Y-42126D01*
G54D13*
X55788Y-53576D02*
X55788Y-53276D01*
X55902Y-53276D01*
X55931Y-53290D01*
X55945Y-53305D01*
X55960Y-53333D01*
X55960Y-53376D01*
X55945Y-53405D01*
X55931Y-53419D01*
X55902Y-53433D01*
X55788Y-53433D01*
X56074Y-53305D02*
X56088Y-53290D01*
X56117Y-53276D01*
X56188Y-53276D01*
X56217Y-53290D01*
X56231Y-53305D01*
X56245Y-53333D01*
X56245Y-53362D01*
X56231Y-53405D01*
X56060Y-53576D01*
X56245Y-53576D01*
X60685Y-54421D02*
X60685Y-54121D01*
X60785Y-54335D01*
X60885Y-54121D01*
X60885Y-54421D01*
X61085Y-54121D02*
X61142Y-54121D01*
X61171Y-54135D01*
X61200Y-54164D01*
X61214Y-54221D01*
X61214Y-54321D01*
X61200Y-54378D01*
X61171Y-54407D01*
X61142Y-54421D01*
X61085Y-54421D01*
X61057Y-54407D01*
X61028Y-54378D01*
X61014Y-54321D01*
X61014Y-54221D01*
X61028Y-54164D01*
X61057Y-54135D01*
X61085Y-54121D01*
X61300Y-54121D02*
X61471Y-54121D01*
X61385Y-54421D02*
X61385Y-54121D01*
X61557Y-54150D02*
X61571Y-54135D01*
X61600Y-54121D01*
X61671Y-54121D01*
X61700Y-54135D01*
X61714Y-54150D01*
X61728Y-54178D01*
X61728Y-54207D01*
X61714Y-54250D01*
X61542Y-54421D01*
X61728Y-54421D01*
X50385Y-54421D02*
X50385Y-54121D01*
X50485Y-54335D01*
X50585Y-54121D01*
X50585Y-54421D01*
X50785Y-54121D02*
X50842Y-54121D01*
X50871Y-54135D01*
X50900Y-54164D01*
X50914Y-54221D01*
X50914Y-54321D01*
X50900Y-54378D01*
X50871Y-54407D01*
X50842Y-54421D01*
X50785Y-54421D01*
X50757Y-54407D01*
X50728Y-54378D01*
X50714Y-54321D01*
X50714Y-54221D01*
X50728Y-54164D01*
X50757Y-54135D01*
X50785Y-54121D01*
X51000Y-54121D02*
X51171Y-54121D01*
X51085Y-54421D02*
X51085Y-54121D01*
X51428Y-54421D02*
X51257Y-54421D01*
X51342Y-54421D02*
X51342Y-54121D01*
X51314Y-54164D01*
X51285Y-54192D01*
X51257Y-54207D01*
G54D14*
X64304Y-49902D02*
X64304Y-49402D01*
X64400Y-49402D01*
X64457Y-49426D01*
X64495Y-49473D01*
X64514Y-49521D01*
X64533Y-49616D01*
X64533Y-49688D01*
X64514Y-49783D01*
X64495Y-49830D01*
X64457Y-49878D01*
X64400Y-49902D01*
X64304Y-49902D01*
X64761Y-49616D02*
X64723Y-49592D01*
X64704Y-49569D01*
X64685Y-49521D01*
X64685Y-49497D01*
X64704Y-49450D01*
X64723Y-49426D01*
X64761Y-49402D01*
X64838Y-49402D01*
X64876Y-49426D01*
X64895Y-49450D01*
X64914Y-49497D01*
X64914Y-49521D01*
X64895Y-49569D01*
X64876Y-49592D01*
X64838Y-49616D01*
X64761Y-49616D01*
X64723Y-49640D01*
X64704Y-49664D01*
X64685Y-49711D01*
X64685Y-49807D01*
X64704Y-49854D01*
X64723Y-49878D01*
X64761Y-49902D01*
X64838Y-49902D01*
X64876Y-49878D01*
X64895Y-49854D01*
X64914Y-49807D01*
X64914Y-49711D01*
X64895Y-49664D01*
X64876Y-49640D01*
X64838Y-49616D01*
X64304Y-51652D02*
X64304Y-51152D01*
X64400Y-51152D01*
X64457Y-51176D01*
X64495Y-51223D01*
X64514Y-51271D01*
X64533Y-51366D01*
X64533Y-51438D01*
X64514Y-51533D01*
X64495Y-51580D01*
X64457Y-51628D01*
X64400Y-51652D01*
X64304Y-51652D01*
X64666Y-51152D02*
X64933Y-51152D01*
X64761Y-51652D01*
X64254Y-46502D02*
X64254Y-46002D01*
X64350Y-46002D01*
X64407Y-46026D01*
X64445Y-46073D01*
X64464Y-46121D01*
X64483Y-46216D01*
X64483Y-46288D01*
X64464Y-46383D01*
X64445Y-46430D01*
X64407Y-46478D01*
X64350Y-46502D01*
X64254Y-46502D01*
X64845Y-46002D02*
X64654Y-46002D01*
X64635Y-46240D01*
X64654Y-46216D01*
X64692Y-46192D01*
X64788Y-46192D01*
X64826Y-46216D01*
X64845Y-46240D01*
X64864Y-46288D01*
X64864Y-46407D01*
X64845Y-46454D01*
X64826Y-46478D01*
X64788Y-46502D01*
X64692Y-46502D01*
X64654Y-46478D01*
X64635Y-46454D01*
X64254Y-48102D02*
X64254Y-47602D01*
X64350Y-47602D01*
X64407Y-47626D01*
X64445Y-47673D01*
X64464Y-47721D01*
X64483Y-47816D01*
X64483Y-47888D01*
X64464Y-47983D01*
X64445Y-48030D01*
X64407Y-48078D01*
X64350Y-48102D01*
X64254Y-48102D01*
X64826Y-47602D02*
X64750Y-47602D01*
X64711Y-47626D01*
X64692Y-47650D01*
X64654Y-47721D01*
X64635Y-47816D01*
X64635Y-48007D01*
X64654Y-48054D01*
X64673Y-48078D01*
X64711Y-48102D01*
X64788Y-48102D01*
X64826Y-48078D01*
X64845Y-48054D01*
X64864Y-48007D01*
X64864Y-47888D01*
X64845Y-47840D01*
X64826Y-47816D01*
X64788Y-47792D01*
X64711Y-47792D01*
X64673Y-47816D01*
X64654Y-47840D01*
X64635Y-47888D01*
X47704Y-46302D02*
X47704Y-45802D01*
X47800Y-45802D01*
X47857Y-45826D01*
X47895Y-45873D01*
X47914Y-45921D01*
X47933Y-46016D01*
X47933Y-46088D01*
X47914Y-46183D01*
X47895Y-46230D01*
X47857Y-46278D01*
X47800Y-46302D01*
X47704Y-46302D01*
X48276Y-45969D02*
X48276Y-46302D01*
X48180Y-45778D02*
X48085Y-46135D01*
X48333Y-46135D01*
X47704Y-48102D02*
X47704Y-47602D01*
X47800Y-47602D01*
X47857Y-47626D01*
X47895Y-47673D01*
X47914Y-47721D01*
X47933Y-47816D01*
X47933Y-47888D01*
X47914Y-47983D01*
X47895Y-48030D01*
X47857Y-48078D01*
X47800Y-48102D01*
X47704Y-48102D01*
X48066Y-47602D02*
X48314Y-47602D01*
X48180Y-47792D01*
X48238Y-47792D01*
X48276Y-47816D01*
X48295Y-47840D01*
X48314Y-47888D01*
X48314Y-48007D01*
X48295Y-48054D01*
X48276Y-48078D01*
X48238Y-48102D01*
X48123Y-48102D01*
X48085Y-48078D01*
X48066Y-48054D01*
X47704Y-49902D02*
X47704Y-49402D01*
X47800Y-49402D01*
X47857Y-49426D01*
X47895Y-49473D01*
X47914Y-49521D01*
X47933Y-49616D01*
X47933Y-49688D01*
X47914Y-49783D01*
X47895Y-49830D01*
X47857Y-49878D01*
X47800Y-49902D01*
X47704Y-49902D01*
X48314Y-49902D02*
X48085Y-49902D01*
X48200Y-49902D02*
X48200Y-49402D01*
X48161Y-49473D01*
X48123Y-49521D01*
X48085Y-49545D01*
X47704Y-51702D02*
X47704Y-51202D01*
X47800Y-51202D01*
X47857Y-51226D01*
X47895Y-51273D01*
X47914Y-51321D01*
X47933Y-51416D01*
X47933Y-51488D01*
X47914Y-51583D01*
X47895Y-51630D01*
X47857Y-51678D01*
X47800Y-51702D01*
X47704Y-51702D01*
X48085Y-51250D02*
X48104Y-51226D01*
X48142Y-51202D01*
X48238Y-51202D01*
X48276Y-51226D01*
X48295Y-51250D01*
X48314Y-51297D01*
X48314Y-51345D01*
X48295Y-51416D01*
X48066Y-51702D01*
X48314Y-51702D01*
G54D15*
X60507Y-30088D02*
X60507Y-30655D01*
X60528Y-30721D01*
X60550Y-30755D01*
X60592Y-30788D01*
X60678Y-30788D01*
X60721Y-30755D01*
X60742Y-30721D01*
X60764Y-30655D01*
X60764Y-30088D01*
X61214Y-30788D02*
X60957Y-30788D01*
X61085Y-30788D02*
X61085Y-30088D01*
X61042Y-30188D01*
X61000Y-30255D01*
X60957Y-30288D01*
G54D16*
X58266Y-30908D02*
X58052Y-30908D01*
X58052Y-30208D01*
X58395Y-30275D02*
X58416Y-30241D01*
X58459Y-30208D01*
X58566Y-30208D01*
X58609Y-30241D01*
X58630Y-30275D01*
X58652Y-30341D01*
X58652Y-30408D01*
X58630Y-30508D01*
X58373Y-30908D01*
X58652Y-30908D01*
X58866Y-30908D02*
X58952Y-30908D01*
X58995Y-30875D01*
X59016Y-30841D01*
X59059Y-30741D01*
X59080Y-30608D01*
X59080Y-30341D01*
X59059Y-30275D01*
X59037Y-30241D01*
X58995Y-30208D01*
X58909Y-30208D01*
X58866Y-30241D01*
X58845Y-30275D01*
X58823Y-30341D01*
X58823Y-30508D01*
X58845Y-30575D01*
X58866Y-30608D01*
X58909Y-30641D01*
X58995Y-30641D01*
X59037Y-30608D01*
X59059Y-30575D01*
X59080Y-30508D01*
X59337Y-30508D02*
X59295Y-30475D01*
X59273Y-30441D01*
X59252Y-30375D01*
X59252Y-30341D01*
X59273Y-30275D01*
X59295Y-30241D01*
X59337Y-30208D01*
X59423Y-30208D01*
X59466Y-30241D01*
X59487Y-30275D01*
X59509Y-30341D01*
X59509Y-30375D01*
X59487Y-30441D01*
X59466Y-30475D01*
X59423Y-30508D01*
X59337Y-30508D01*
X59295Y-30541D01*
X59273Y-30575D01*
X59252Y-30641D01*
X59252Y-30775D01*
X59273Y-30841D01*
X59295Y-30875D01*
X59337Y-30908D01*
X59423Y-30908D01*
X59466Y-30875D01*
X59487Y-30841D01*
X59509Y-30775D01*
X59509Y-30641D01*
X59487Y-30575D01*
X59466Y-30541D01*
X59423Y-30508D01*
G54D13*
X49151Y-37620D02*
X48751Y-37620D01*
X49151Y-37391D02*
X48923Y-37563D01*
X48751Y-37391D02*
X48980Y-37620D01*
X48790Y-37239D02*
X48770Y-37220D01*
X48751Y-37182D01*
X48751Y-37086D01*
X48770Y-37048D01*
X48790Y-37029D01*
X48828Y-37010D01*
X48866Y-37010D01*
X48923Y-37029D01*
X49151Y-37258D01*
X49151Y-37010D01*
X51776Y-34856D02*
X51476Y-34856D01*
X51476Y-34742D01*
X51490Y-34713D01*
X51505Y-34699D01*
X51533Y-34685D01*
X51576Y-34685D01*
X51605Y-34699D01*
X51619Y-34713D01*
X51633Y-34742D01*
X51633Y-34856D01*
X51476Y-34585D02*
X51476Y-34399D01*
X51590Y-34499D01*
X51590Y-34456D01*
X51605Y-34427D01*
X51619Y-34413D01*
X51647Y-34399D01*
X51719Y-34399D01*
X51747Y-34413D01*
X51762Y-34427D01*
X51776Y-34456D01*
X51776Y-34542D01*
X51762Y-34570D01*
X51747Y-34585D01*
X61001Y-35351D02*
X60701Y-35351D01*
X60701Y-35237D01*
X60715Y-35208D01*
X60730Y-35194D01*
X60758Y-35180D01*
X60801Y-35180D01*
X60830Y-35194D01*
X60844Y-35208D01*
X60858Y-35237D01*
X60858Y-35351D01*
X60801Y-34922D02*
X61001Y-34922D01*
X60687Y-34994D02*
X60901Y-35065D01*
X60901Y-34880D01*
G54D14*
X50198Y-29491D02*
X50217Y-29510D01*
X50236Y-29567D01*
X50236Y-29605D01*
X50217Y-29663D01*
X50179Y-29701D01*
X50141Y-29720D01*
X50065Y-29739D01*
X50008Y-29739D01*
X49932Y-29720D01*
X49894Y-29701D01*
X49855Y-29663D01*
X49836Y-29605D01*
X49836Y-29567D01*
X49855Y-29510D01*
X49875Y-29491D01*
X49875Y-29339D02*
X49855Y-29320D01*
X49836Y-29282D01*
X49836Y-29186D01*
X49855Y-29148D01*
X49875Y-29129D01*
X49913Y-29110D01*
X49951Y-29110D01*
X50008Y-29129D01*
X50236Y-29358D01*
X50236Y-29110D01*
X57033Y-38723D02*
X57014Y-38742D01*
X56957Y-38761D01*
X56919Y-38761D01*
X56861Y-38742D01*
X56823Y-38704D01*
X56804Y-38666D01*
X56785Y-38590D01*
X56785Y-38533D01*
X56804Y-38457D01*
X56823Y-38419D01*
X56861Y-38380D01*
X56919Y-38361D01*
X56957Y-38361D01*
X57014Y-38380D01*
X57033Y-38400D01*
X57414Y-38761D02*
X57185Y-38761D01*
X57300Y-38761D02*
X57300Y-38361D01*
X57261Y-38419D01*
X57223Y-38457D01*
X57185Y-38476D01*
M02*
