G04 (created by PCBNEW (2012-nov-02)-testing) date jue 04 abr 2013 22:02:17 UYT*
%MOIN*%
G04 Gerber Fmt 3.4, Leading zero omitted, Abs format*
%FSLAX34Y34*%
G01*
G70*
G90*
G04 APERTURE LIST*
%ADD10C,0.00393701*%
%ADD11C,0.015*%
%ADD12C,0.012*%
%ADD13C,0.008*%
%ADD14C,0.006*%
%ADD15C,0.01125*%
%ADD16C,0.0112*%
G04 APERTURE END LIST*
G54D10*
G54D11*
X49080Y-47920D02*
X49080Y-18640D01*
X69180Y-47920D02*
X49080Y-47920D01*
X69180Y-18640D02*
X69180Y-47920D01*
X49080Y-18640D02*
X69180Y-18640D01*
G54D12*
X79642Y-32323D02*
X79642Y-31523D01*
X79785Y-31523D01*
X79871Y-31561D01*
X79928Y-31638D01*
X79957Y-31714D01*
X79985Y-31866D01*
X79985Y-31980D01*
X79957Y-32133D01*
X79928Y-32209D01*
X79871Y-32285D01*
X79785Y-32323D01*
X79642Y-32323D01*
X80471Y-32285D02*
X80414Y-32323D01*
X80300Y-32323D01*
X80242Y-32285D01*
X80214Y-32209D01*
X80214Y-31904D01*
X80242Y-31828D01*
X80300Y-31790D01*
X80414Y-31790D01*
X80471Y-31828D01*
X80500Y-31904D01*
X80500Y-31980D01*
X80214Y-32057D01*
X80728Y-32285D02*
X80785Y-32323D01*
X80900Y-32323D01*
X80957Y-32285D01*
X80985Y-32209D01*
X80985Y-32171D01*
X80957Y-32095D01*
X80900Y-32057D01*
X80814Y-32057D01*
X80757Y-32019D01*
X80728Y-31942D01*
X80728Y-31904D01*
X80757Y-31828D01*
X80814Y-31790D01*
X80900Y-31790D01*
X80957Y-31828D01*
X81242Y-32323D02*
X81242Y-31790D01*
X81242Y-31523D02*
X81214Y-31561D01*
X81242Y-31600D01*
X81271Y-31561D01*
X81242Y-31523D01*
X81242Y-31600D01*
X81785Y-31790D02*
X81785Y-32438D01*
X81757Y-32514D01*
X81728Y-32552D01*
X81671Y-32590D01*
X81585Y-32590D01*
X81528Y-32552D01*
X81785Y-32285D02*
X81728Y-32323D01*
X81614Y-32323D01*
X81557Y-32285D01*
X81528Y-32247D01*
X81500Y-32171D01*
X81500Y-31942D01*
X81528Y-31866D01*
X81557Y-31828D01*
X81614Y-31790D01*
X81728Y-31790D01*
X81785Y-31828D01*
X82071Y-31790D02*
X82071Y-32323D01*
X82071Y-31866D02*
X82100Y-31828D01*
X82157Y-31790D01*
X82242Y-31790D01*
X82300Y-31828D01*
X82328Y-31904D01*
X82328Y-32323D01*
X82842Y-32285D02*
X82785Y-32323D01*
X82671Y-32323D01*
X82614Y-32285D01*
X82585Y-32209D01*
X82585Y-31904D01*
X82614Y-31828D01*
X82671Y-31790D01*
X82785Y-31790D01*
X82842Y-31828D01*
X82871Y-31904D01*
X82871Y-31980D01*
X82585Y-32057D01*
X83385Y-32323D02*
X83385Y-31523D01*
X83385Y-32285D02*
X83328Y-32323D01*
X83214Y-32323D01*
X83157Y-32285D01*
X83128Y-32247D01*
X83100Y-32171D01*
X83100Y-31942D01*
X83128Y-31866D01*
X83157Y-31828D01*
X83214Y-31790D01*
X83328Y-31790D01*
X83385Y-31828D01*
X84128Y-32323D02*
X84128Y-31790D01*
X84128Y-31523D02*
X84100Y-31561D01*
X84128Y-31600D01*
X84157Y-31561D01*
X84128Y-31523D01*
X84128Y-31600D01*
X84414Y-31790D02*
X84414Y-32323D01*
X84414Y-31866D02*
X84442Y-31828D01*
X84500Y-31790D01*
X84585Y-31790D01*
X84642Y-31828D01*
X84671Y-31904D01*
X84671Y-32323D01*
X85414Y-31523D02*
X85414Y-32171D01*
X85442Y-32247D01*
X85471Y-32285D01*
X85528Y-32323D01*
X85642Y-32323D01*
X85700Y-32285D01*
X85728Y-32247D01*
X85757Y-32171D01*
X85757Y-31523D01*
X86042Y-32323D02*
X86042Y-31790D01*
X86042Y-31942D02*
X86071Y-31866D01*
X86100Y-31828D01*
X86157Y-31790D01*
X86214Y-31790D01*
X86671Y-31790D02*
X86671Y-32323D01*
X86414Y-31790D02*
X86414Y-32209D01*
X86442Y-32285D01*
X86500Y-32323D01*
X86585Y-32323D01*
X86642Y-32285D01*
X86671Y-32247D01*
X87214Y-31790D02*
X87214Y-32438D01*
X87185Y-32514D01*
X87157Y-32552D01*
X87100Y-32590D01*
X87014Y-32590D01*
X86957Y-32552D01*
X87214Y-32285D02*
X87157Y-32323D01*
X87042Y-32323D01*
X86985Y-32285D01*
X86957Y-32247D01*
X86928Y-32171D01*
X86928Y-31942D01*
X86957Y-31866D01*
X86985Y-31828D01*
X87042Y-31790D01*
X87157Y-31790D01*
X87214Y-31828D01*
X87757Y-31790D02*
X87757Y-32323D01*
X87500Y-31790D02*
X87500Y-32209D01*
X87528Y-32285D01*
X87585Y-32323D01*
X87671Y-32323D01*
X87728Y-32285D01*
X87757Y-32247D01*
X88300Y-32323D02*
X88300Y-31904D01*
X88271Y-31828D01*
X88214Y-31790D01*
X88100Y-31790D01*
X88042Y-31828D01*
X88300Y-32285D02*
X88242Y-32323D01*
X88100Y-32323D01*
X88042Y-32285D01*
X88014Y-32209D01*
X88014Y-32133D01*
X88042Y-32057D01*
X88100Y-32019D01*
X88242Y-32019D01*
X88300Y-31980D01*
X88528Y-31790D02*
X88671Y-32323D01*
X88814Y-31790D02*
X88671Y-32323D01*
X88614Y-32514D01*
X88585Y-32552D01*
X88528Y-32590D01*
G54D13*
X60500Y-25600D02*
X60500Y-25800D01*
X60500Y-28600D02*
X60500Y-28400D01*
X60500Y-28400D02*
X60900Y-28400D01*
X60900Y-28400D02*
X60900Y-25800D01*
X60900Y-25800D02*
X60100Y-25800D01*
X60100Y-25800D02*
X60100Y-28400D01*
X60100Y-28400D02*
X60500Y-28400D01*
X60700Y-25800D02*
X60900Y-26000D01*
X64800Y-19160D02*
X64800Y-19360D01*
X64800Y-22160D02*
X64800Y-21960D01*
X64800Y-21960D02*
X65200Y-21960D01*
X65200Y-21960D02*
X65200Y-19360D01*
X65200Y-19360D02*
X64400Y-19360D01*
X64400Y-19360D02*
X64400Y-21960D01*
X64400Y-21960D02*
X64800Y-21960D01*
X65000Y-19360D02*
X65200Y-19560D01*
G54D14*
X64020Y-32700D02*
X64020Y-31700D01*
X64020Y-31700D02*
X67020Y-31700D01*
X67020Y-31700D02*
X67020Y-32700D01*
X67020Y-32700D02*
X64020Y-32700D01*
X65020Y-31700D02*
X65020Y-32700D01*
G54D12*
X62600Y-33600D02*
X64600Y-33600D01*
X64600Y-33600D02*
X64600Y-35600D01*
X64600Y-35600D02*
X62600Y-35600D01*
X62600Y-35600D02*
X62600Y-33600D01*
G54D14*
X57860Y-47080D02*
X57860Y-46080D01*
X57860Y-46080D02*
X59860Y-46080D01*
X59860Y-46080D02*
X59860Y-47080D01*
X59860Y-47080D02*
X57860Y-47080D01*
X65960Y-46080D02*
X65960Y-47080D01*
X65960Y-47080D02*
X63960Y-47080D01*
X63960Y-47080D02*
X63960Y-46080D01*
X63960Y-46080D02*
X65960Y-46080D01*
X53360Y-46080D02*
X53360Y-47080D01*
X53360Y-47080D02*
X51360Y-47080D01*
X51360Y-47080D02*
X51360Y-46080D01*
X51360Y-46080D02*
X53360Y-46080D01*
G54D12*
X62860Y-41280D02*
X62860Y-44280D01*
X62860Y-44280D02*
X61860Y-44280D01*
X61860Y-44280D02*
X61860Y-41280D01*
X61860Y-41280D02*
X62860Y-41280D01*
X62860Y-44030D02*
X61860Y-44030D01*
X61860Y-43780D02*
X62860Y-43780D01*
X62360Y-41280D02*
X62360Y-40780D01*
X62360Y-44280D02*
X62360Y-44780D01*
X61060Y-41280D02*
X61060Y-44280D01*
X61060Y-44280D02*
X60060Y-44280D01*
X60060Y-44280D02*
X60060Y-41280D01*
X60060Y-41280D02*
X61060Y-41280D01*
X61060Y-44030D02*
X60060Y-44030D01*
X60060Y-43780D02*
X61060Y-43780D01*
X60560Y-41280D02*
X60560Y-40780D01*
X60560Y-44280D02*
X60560Y-44780D01*
X65260Y-44280D02*
X65260Y-41280D01*
X65260Y-41280D02*
X66260Y-41280D01*
X66260Y-41280D02*
X66260Y-44280D01*
X66260Y-44280D02*
X65260Y-44280D01*
X65260Y-41530D02*
X66260Y-41530D01*
X66260Y-41780D02*
X65260Y-41780D01*
X65760Y-44280D02*
X65760Y-44780D01*
X65760Y-41280D02*
X65760Y-40780D01*
X63534Y-44265D02*
X63534Y-41265D01*
X63534Y-41265D02*
X64534Y-41265D01*
X64534Y-41265D02*
X64534Y-44265D01*
X64534Y-44265D02*
X63534Y-44265D01*
X63534Y-41515D02*
X64534Y-41515D01*
X64534Y-41765D02*
X63534Y-41765D01*
X64034Y-44265D02*
X64034Y-44765D01*
X64034Y-41265D02*
X64034Y-40765D01*
X57458Y-41276D02*
X57458Y-44276D01*
X57458Y-44276D02*
X56458Y-44276D01*
X56458Y-44276D02*
X56458Y-41276D01*
X56458Y-41276D02*
X57458Y-41276D01*
X57458Y-44026D02*
X56458Y-44026D01*
X56458Y-43776D02*
X57458Y-43776D01*
X56958Y-41276D02*
X56958Y-40776D01*
X56958Y-44276D02*
X56958Y-44776D01*
X55660Y-41280D02*
X55660Y-44280D01*
X55660Y-44280D02*
X54660Y-44280D01*
X54660Y-44280D02*
X54660Y-41280D01*
X54660Y-41280D02*
X55660Y-41280D01*
X55660Y-44030D02*
X54660Y-44030D01*
X54660Y-43780D02*
X55660Y-43780D01*
X55160Y-41280D02*
X55160Y-40780D01*
X55160Y-44280D02*
X55160Y-44780D01*
X52860Y-44280D02*
X52860Y-41280D01*
X52860Y-41280D02*
X53860Y-41280D01*
X53860Y-41280D02*
X53860Y-44280D01*
X53860Y-44280D02*
X52860Y-44280D01*
X52860Y-41530D02*
X53860Y-41530D01*
X53860Y-41780D02*
X52860Y-41780D01*
X53360Y-44280D02*
X53360Y-44780D01*
X53360Y-41280D02*
X53360Y-40780D01*
X51060Y-44280D02*
X51060Y-41280D01*
X51060Y-41280D02*
X52060Y-41280D01*
X52060Y-41280D02*
X52060Y-44280D01*
X52060Y-44280D02*
X51060Y-44280D01*
X51060Y-41530D02*
X52060Y-41530D01*
X52060Y-41780D02*
X51060Y-41780D01*
X51560Y-44280D02*
X51560Y-44780D01*
X51560Y-41280D02*
X51560Y-40780D01*
G54D11*
X55140Y-23020D02*
X55540Y-23020D01*
X55540Y-23020D02*
X55540Y-23370D01*
X62990Y-22220D02*
X55090Y-22220D01*
X55090Y-22220D02*
X55090Y-23420D01*
X55090Y-23420D02*
X62990Y-23420D01*
X62990Y-23420D02*
X62990Y-22220D01*
G54D14*
X51660Y-30880D02*
X50660Y-30880D01*
X50660Y-30880D02*
X50660Y-27880D01*
X50660Y-27880D02*
X51660Y-27880D01*
X51660Y-27880D02*
X51660Y-30880D01*
X50660Y-29880D02*
X51660Y-29880D01*
X54240Y-27700D02*
X53240Y-27700D01*
X53240Y-27700D02*
X53240Y-25700D01*
X53240Y-25700D02*
X54240Y-25700D01*
X54240Y-25700D02*
X54240Y-27700D01*
X63540Y-28500D02*
X62540Y-28500D01*
X62540Y-28500D02*
X62540Y-26500D01*
X62540Y-26500D02*
X63540Y-26500D01*
X63540Y-26500D02*
X63540Y-28500D01*
G54D13*
X60672Y-27445D02*
X60672Y-27730D01*
X60672Y-27588D02*
X60122Y-27588D01*
X60201Y-27635D01*
X60253Y-27683D01*
X60279Y-27730D01*
X60122Y-27135D02*
X60122Y-27088D01*
X60148Y-27040D01*
X60175Y-27016D01*
X60227Y-26992D01*
X60332Y-26969D01*
X60463Y-26969D01*
X60567Y-26992D01*
X60620Y-27016D01*
X60646Y-27040D01*
X60672Y-27088D01*
X60672Y-27135D01*
X60646Y-27183D01*
X60620Y-27207D01*
X60567Y-27230D01*
X60463Y-27254D01*
X60332Y-27254D01*
X60227Y-27230D01*
X60175Y-27207D01*
X60148Y-27183D01*
X60122Y-27135D01*
X60672Y-26754D02*
X60122Y-26754D01*
X60672Y-26469D02*
X60358Y-26683D01*
X60122Y-26469D02*
X60436Y-26754D01*
X64972Y-21005D02*
X64972Y-21290D01*
X64972Y-21148D02*
X64422Y-21148D01*
X64501Y-21195D01*
X64553Y-21243D01*
X64579Y-21290D01*
X64422Y-20695D02*
X64422Y-20648D01*
X64448Y-20600D01*
X64475Y-20576D01*
X64527Y-20552D01*
X64632Y-20529D01*
X64763Y-20529D01*
X64867Y-20552D01*
X64920Y-20576D01*
X64946Y-20600D01*
X64972Y-20648D01*
X64972Y-20695D01*
X64946Y-20743D01*
X64920Y-20767D01*
X64867Y-20790D01*
X64763Y-20814D01*
X64632Y-20814D01*
X64527Y-20790D01*
X64475Y-20767D01*
X64448Y-20743D01*
X64422Y-20695D01*
X64972Y-20314D02*
X64422Y-20314D01*
X64972Y-20029D02*
X64658Y-20243D01*
X64422Y-20029D02*
X64736Y-20314D01*
G54D14*
X66084Y-33241D02*
X66084Y-32841D01*
X66313Y-33241D02*
X66141Y-33013D01*
X66313Y-32841D02*
X66084Y-33070D01*
X66694Y-33241D02*
X66465Y-33241D01*
X66580Y-33241D02*
X66580Y-32841D01*
X66541Y-32899D01*
X66503Y-32937D01*
X66465Y-32956D01*
G54D13*
X63154Y-33411D02*
X63154Y-33011D01*
X63307Y-33011D01*
X63345Y-33030D01*
X63364Y-33050D01*
X63383Y-33088D01*
X63383Y-33145D01*
X63364Y-33183D01*
X63345Y-33202D01*
X63307Y-33221D01*
X63154Y-33221D01*
X63764Y-33411D02*
X63535Y-33411D01*
X63650Y-33411D02*
X63650Y-33011D01*
X63611Y-33069D01*
X63573Y-33107D01*
X63535Y-33126D01*
G54D14*
X58638Y-45951D02*
X58638Y-45651D01*
X58752Y-45651D01*
X58781Y-45665D01*
X58795Y-45680D01*
X58810Y-45708D01*
X58810Y-45751D01*
X58795Y-45780D01*
X58781Y-45794D01*
X58752Y-45808D01*
X58638Y-45808D01*
X58924Y-45680D02*
X58938Y-45665D01*
X58967Y-45651D01*
X59038Y-45651D01*
X59067Y-45665D01*
X59081Y-45680D01*
X59095Y-45708D01*
X59095Y-45737D01*
X59081Y-45780D01*
X58910Y-45951D01*
X59095Y-45951D01*
X64445Y-47451D02*
X64445Y-47151D01*
X64545Y-47365D01*
X64645Y-47151D01*
X64645Y-47451D01*
X64845Y-47151D02*
X64902Y-47151D01*
X64931Y-47165D01*
X64960Y-47194D01*
X64974Y-47251D01*
X64974Y-47351D01*
X64960Y-47408D01*
X64931Y-47437D01*
X64902Y-47451D01*
X64845Y-47451D01*
X64817Y-47437D01*
X64788Y-47408D01*
X64774Y-47351D01*
X64774Y-47251D01*
X64788Y-47194D01*
X64817Y-47165D01*
X64845Y-47151D01*
X65060Y-47151D02*
X65231Y-47151D01*
X65145Y-47451D02*
X65145Y-47151D01*
X65317Y-47180D02*
X65331Y-47165D01*
X65360Y-47151D01*
X65431Y-47151D01*
X65460Y-47165D01*
X65474Y-47180D01*
X65488Y-47208D01*
X65488Y-47237D01*
X65474Y-47280D01*
X65302Y-47451D01*
X65488Y-47451D01*
X51825Y-47501D02*
X51825Y-47201D01*
X51925Y-47415D01*
X52025Y-47201D01*
X52025Y-47501D01*
X52225Y-47201D02*
X52282Y-47201D01*
X52311Y-47215D01*
X52340Y-47244D01*
X52354Y-47301D01*
X52354Y-47401D01*
X52340Y-47458D01*
X52311Y-47487D01*
X52282Y-47501D01*
X52225Y-47501D01*
X52197Y-47487D01*
X52168Y-47458D01*
X52154Y-47401D01*
X52154Y-47301D01*
X52168Y-47244D01*
X52197Y-47215D01*
X52225Y-47201D01*
X52440Y-47201D02*
X52611Y-47201D01*
X52525Y-47501D02*
X52525Y-47201D01*
X52868Y-47501D02*
X52697Y-47501D01*
X52782Y-47501D02*
X52782Y-47201D01*
X52754Y-47244D01*
X52725Y-47272D01*
X52697Y-47287D01*
G54D13*
X62562Y-43075D02*
X62062Y-43075D01*
X62062Y-42979D01*
X62086Y-42922D01*
X62133Y-42884D01*
X62181Y-42865D01*
X62276Y-42846D01*
X62348Y-42846D01*
X62443Y-42865D01*
X62490Y-42884D01*
X62538Y-42922D01*
X62562Y-42979D01*
X62562Y-43075D01*
X62276Y-42618D02*
X62252Y-42656D01*
X62229Y-42675D01*
X62181Y-42694D01*
X62157Y-42694D01*
X62110Y-42675D01*
X62086Y-42656D01*
X62062Y-42618D01*
X62062Y-42541D01*
X62086Y-42503D01*
X62110Y-42484D01*
X62157Y-42465D01*
X62181Y-42465D01*
X62229Y-42484D01*
X62252Y-42503D01*
X62276Y-42541D01*
X62276Y-42618D01*
X62300Y-42656D01*
X62324Y-42675D01*
X62371Y-42694D01*
X62467Y-42694D01*
X62514Y-42675D01*
X62538Y-42656D01*
X62562Y-42618D01*
X62562Y-42541D01*
X62538Y-42503D01*
X62514Y-42484D01*
X62467Y-42465D01*
X62371Y-42465D01*
X62324Y-42484D01*
X62300Y-42503D01*
X62276Y-42541D01*
X60762Y-43075D02*
X60262Y-43075D01*
X60262Y-42979D01*
X60286Y-42922D01*
X60333Y-42884D01*
X60381Y-42865D01*
X60476Y-42846D01*
X60548Y-42846D01*
X60643Y-42865D01*
X60690Y-42884D01*
X60738Y-42922D01*
X60762Y-42979D01*
X60762Y-43075D01*
X60262Y-42713D02*
X60262Y-42446D01*
X60762Y-42618D01*
X65962Y-43075D02*
X65462Y-43075D01*
X65462Y-42979D01*
X65486Y-42922D01*
X65533Y-42884D01*
X65581Y-42865D01*
X65676Y-42846D01*
X65748Y-42846D01*
X65843Y-42865D01*
X65890Y-42884D01*
X65938Y-42922D01*
X65962Y-42979D01*
X65962Y-43075D01*
X65462Y-42484D02*
X65462Y-42675D01*
X65700Y-42694D01*
X65676Y-42675D01*
X65652Y-42637D01*
X65652Y-42541D01*
X65676Y-42503D01*
X65700Y-42484D01*
X65748Y-42465D01*
X65867Y-42465D01*
X65914Y-42484D01*
X65938Y-42503D01*
X65962Y-42541D01*
X65962Y-42637D01*
X65938Y-42675D01*
X65914Y-42694D01*
X64237Y-43060D02*
X63737Y-43060D01*
X63737Y-42965D01*
X63760Y-42907D01*
X63808Y-42869D01*
X63856Y-42850D01*
X63951Y-42831D01*
X64022Y-42831D01*
X64118Y-42850D01*
X64165Y-42869D01*
X64213Y-42907D01*
X64237Y-42965D01*
X64237Y-43060D01*
X63737Y-42488D02*
X63737Y-42565D01*
X63760Y-42603D01*
X63784Y-42622D01*
X63856Y-42660D01*
X63951Y-42679D01*
X64141Y-42679D01*
X64189Y-42660D01*
X64213Y-42641D01*
X64237Y-42603D01*
X64237Y-42526D01*
X64213Y-42488D01*
X64189Y-42469D01*
X64141Y-42450D01*
X64022Y-42450D01*
X63975Y-42469D01*
X63951Y-42488D01*
X63927Y-42526D01*
X63927Y-42603D01*
X63951Y-42641D01*
X63975Y-42660D01*
X64022Y-42679D01*
X57160Y-43071D02*
X56660Y-43071D01*
X56660Y-42976D01*
X56684Y-42918D01*
X56732Y-42880D01*
X56779Y-42861D01*
X56875Y-42842D01*
X56946Y-42842D01*
X57041Y-42861D01*
X57089Y-42880D01*
X57136Y-42918D01*
X57160Y-42976D01*
X57160Y-43071D01*
X56827Y-42499D02*
X57160Y-42499D01*
X56636Y-42595D02*
X56994Y-42690D01*
X56994Y-42442D01*
X55362Y-43075D02*
X54862Y-43075D01*
X54862Y-42979D01*
X54886Y-42922D01*
X54933Y-42884D01*
X54981Y-42865D01*
X55076Y-42846D01*
X55148Y-42846D01*
X55243Y-42865D01*
X55290Y-42884D01*
X55338Y-42922D01*
X55362Y-42979D01*
X55362Y-43075D01*
X54862Y-42713D02*
X54862Y-42465D01*
X55052Y-42599D01*
X55052Y-42541D01*
X55076Y-42503D01*
X55100Y-42484D01*
X55148Y-42465D01*
X55267Y-42465D01*
X55314Y-42484D01*
X55338Y-42503D01*
X55362Y-42541D01*
X55362Y-42656D01*
X55338Y-42694D01*
X55314Y-42713D01*
X53562Y-43075D02*
X53062Y-43075D01*
X53062Y-42979D01*
X53086Y-42922D01*
X53133Y-42884D01*
X53181Y-42865D01*
X53276Y-42846D01*
X53348Y-42846D01*
X53443Y-42865D01*
X53490Y-42884D01*
X53538Y-42922D01*
X53562Y-42979D01*
X53562Y-43075D01*
X53562Y-42465D02*
X53562Y-42694D01*
X53562Y-42579D02*
X53062Y-42579D01*
X53133Y-42618D01*
X53181Y-42656D01*
X53205Y-42694D01*
X51762Y-43075D02*
X51262Y-43075D01*
X51262Y-42979D01*
X51286Y-42922D01*
X51333Y-42884D01*
X51381Y-42865D01*
X51476Y-42846D01*
X51548Y-42846D01*
X51643Y-42865D01*
X51690Y-42884D01*
X51738Y-42922D01*
X51762Y-42979D01*
X51762Y-43075D01*
X51310Y-42694D02*
X51286Y-42675D01*
X51262Y-42637D01*
X51262Y-42541D01*
X51286Y-42503D01*
X51310Y-42484D01*
X51357Y-42465D01*
X51405Y-42465D01*
X51476Y-42484D01*
X51762Y-42713D01*
X51762Y-42465D01*
G54D15*
X63357Y-22463D02*
X63357Y-23030D01*
X63378Y-23096D01*
X63400Y-23130D01*
X63442Y-23163D01*
X63528Y-23163D01*
X63571Y-23130D01*
X63592Y-23096D01*
X63614Y-23030D01*
X63614Y-22463D01*
X64064Y-23163D02*
X63807Y-23163D01*
X63935Y-23163D02*
X63935Y-22463D01*
X63892Y-22563D01*
X63850Y-22630D01*
X63807Y-22663D01*
G54D16*
X61116Y-23283D02*
X60902Y-23283D01*
X60902Y-22583D01*
X61245Y-22650D02*
X61266Y-22616D01*
X61309Y-22583D01*
X61416Y-22583D01*
X61459Y-22616D01*
X61480Y-22650D01*
X61502Y-22716D01*
X61502Y-22783D01*
X61480Y-22883D01*
X61223Y-23283D01*
X61502Y-23283D01*
X61716Y-23283D02*
X61802Y-23283D01*
X61845Y-23250D01*
X61866Y-23216D01*
X61909Y-23116D01*
X61930Y-22983D01*
X61930Y-22716D01*
X61909Y-22650D01*
X61887Y-22616D01*
X61845Y-22583D01*
X61759Y-22583D01*
X61716Y-22616D01*
X61695Y-22650D01*
X61673Y-22716D01*
X61673Y-22883D01*
X61695Y-22950D01*
X61716Y-22983D01*
X61759Y-23016D01*
X61845Y-23016D01*
X61887Y-22983D01*
X61909Y-22950D01*
X61930Y-22883D01*
X62187Y-22883D02*
X62145Y-22850D01*
X62123Y-22816D01*
X62102Y-22750D01*
X62102Y-22716D01*
X62123Y-22650D01*
X62145Y-22616D01*
X62187Y-22583D01*
X62273Y-22583D01*
X62316Y-22616D01*
X62337Y-22650D01*
X62359Y-22716D01*
X62359Y-22750D01*
X62337Y-22816D01*
X62316Y-22850D01*
X62273Y-22883D01*
X62187Y-22883D01*
X62145Y-22916D01*
X62123Y-22950D01*
X62102Y-23016D01*
X62102Y-23150D01*
X62123Y-23216D01*
X62145Y-23250D01*
X62187Y-23283D01*
X62273Y-23283D01*
X62316Y-23250D01*
X62337Y-23216D01*
X62359Y-23150D01*
X62359Y-23016D01*
X62337Y-22950D01*
X62316Y-22916D01*
X62273Y-22883D01*
G54D14*
X52261Y-29675D02*
X51861Y-29675D01*
X52261Y-29446D02*
X52033Y-29618D01*
X51861Y-29446D02*
X52090Y-29675D01*
X51900Y-29294D02*
X51880Y-29275D01*
X51861Y-29237D01*
X51861Y-29141D01*
X51880Y-29103D01*
X51900Y-29084D01*
X51938Y-29065D01*
X51976Y-29065D01*
X52033Y-29084D01*
X52261Y-29313D01*
X52261Y-29065D01*
X54741Y-26981D02*
X54441Y-26981D01*
X54441Y-26867D01*
X54455Y-26838D01*
X54470Y-26824D01*
X54498Y-26810D01*
X54541Y-26810D01*
X54570Y-26824D01*
X54584Y-26838D01*
X54598Y-26867D01*
X54598Y-26981D01*
X54441Y-26710D02*
X54441Y-26524D01*
X54555Y-26624D01*
X54555Y-26581D01*
X54570Y-26552D01*
X54584Y-26538D01*
X54612Y-26524D01*
X54684Y-26524D01*
X54712Y-26538D01*
X54727Y-26552D01*
X54741Y-26581D01*
X54741Y-26667D01*
X54727Y-26695D01*
X54712Y-26710D01*
X63941Y-27701D02*
X63641Y-27701D01*
X63641Y-27587D01*
X63655Y-27558D01*
X63670Y-27544D01*
X63698Y-27530D01*
X63741Y-27530D01*
X63770Y-27544D01*
X63784Y-27558D01*
X63798Y-27587D01*
X63798Y-27701D01*
X63741Y-27272D02*
X63941Y-27272D01*
X63627Y-27344D02*
X63841Y-27415D01*
X63841Y-27230D01*
M02*
