M48
;DRILL file {PCBnew (20080825c)} date 30/9/2010-16:28:49
;FORMAT={-.-/ absolute / metric / decimal}
R,T
VER,1
FMAT,2
METRIC,TZ
TCST,OFF
ICI,OFF
ATC,ON
T1C0.635
T2C0.701
T3C0.813
T4C0.899
T5C0.991
T6C1.001
T7C1.999
T8C3.048
%
M47
G05
M71
T1
X154.432Y101.600
X154.432Y109.855
X159.258Y100.584
X159.258Y109.855
X173.355Y101.981
X178.943Y101.981
T2
X131.445Y75.438
X139.065Y75.438
X151.638Y100.076
X151.638Y107.696
X177.927Y65.532
X177.927Y73.152
X188.595Y78.359
X188.595Y80.899
X188.976Y65.532
X188.976Y73.152
X189.611Y87.757
X189.611Y95.377
X190.246Y116.586
X191.135Y78.359
X191.516Y49.022
X191.643Y51.562
X191.770Y65.532
X191.770Y73.152
X192.024Y83.312
X192.151Y87.757
X192.151Y95.377
X194.501Y75.121
X194.564Y80.772
X194.564Y83.312
X194.691Y87.757
X194.691Y95.377
X197.041Y75.121
X197.041Y77.661
X197.866Y116.586
X199.136Y49.022
X199.263Y51.562
X200.724Y89.281
X200.724Y91.821
X202.722Y89.281
X202.722Y91.821
X202.819Y70.231
X202.819Y72.771
X202.819Y74.803
X202.819Y77.343
T3
X191.821Y58.369
X191.872Y61.112
X199.441Y58.369
X199.492Y61.112
T4
X128.778Y75.565
X128.778Y78.105
X128.778Y80.645
X136.906Y51.562
X136.906Y54.102
X136.906Y56.642
X136.906Y59.182
X136.906Y64.770
X136.906Y67.310
X136.906Y69.850
X136.906Y72.390
X165.862Y109.093
X165.862Y114.173
X168.402Y111.633
X174.625Y67.945
X174.625Y70.485
X174.625Y73.025
X203.962Y50.165
X203.962Y52.705
X203.962Y55.245
X203.962Y57.785
X203.962Y60.325
X206.502Y50.165
X206.502Y52.705
X206.502Y55.245
X206.502Y57.785
X206.502Y60.325
T5
X143.129Y50.165
X143.129Y52.705
X143.129Y55.245
X143.129Y57.785
X143.129Y60.325
X143.129Y62.865
X143.129Y65.405
X143.129Y67.945
X143.129Y70.485
X143.129Y73.025
X143.129Y75.565
X143.129Y78.105
X143.129Y80.645
X143.129Y83.185
X143.129Y85.725
X143.129Y88.265
X143.129Y90.805
X143.129Y93.345
X143.129Y95.885
X143.129Y98.425
X181.229Y50.165
X181.229Y52.705
X181.229Y55.245
X181.229Y57.785
X181.229Y60.325
X181.229Y62.865
X181.229Y65.405
X181.229Y67.945
X181.229Y70.485
X181.229Y73.025
X181.229Y75.565
X181.229Y78.105
X181.229Y80.645
X181.229Y83.185
X181.229Y85.725
X181.229Y88.265
X181.229Y90.805
X181.229Y93.345
X181.229Y95.885
X181.229Y98.425
T6
X204.470Y102.743
X204.470Y107.823
X204.597Y114.300
X204.597Y119.380
T7
X205.423Y84.552
X205.423Y96.550
X205.486Y66.675
X205.486Y80.391
T8
X113.665Y74.549
X113.665Y111.633
T0
M30
